<?xml version="1.0" encoding="UTF-8"?>
<svg width="80px" height="80px" viewBox="0 0 80 80" version="1.1" xmlns="http://www.w3.org/2000/svg" xmlns:xlink="http://www.w3.org/1999/xlink">
    <!-- Generator: Sketch 54.1 (76490) - https://sketchapp.com -->
    <title>a1-4</title>
    <desc>Created with Sketch.</desc>
    <defs>
        <linearGradient x1="76.260693%" y1="11.2327284%" x2="22.3691856%" y2="89.6824494%" id="linearGradient-1">
            <stop stop-color="#FAE857" offset="0%"></stop>
            <stop stop-color="#F2CD2C" offset="100%"></stop>
        </linearGradient>
        <rect id="path-2" x="0" y="0" width="80" height="80" rx="6"></rect>
    </defs>
    <g id="Design" stroke="none" stroke-width="1" fill="none" fill-rule="evenodd">
        <g id="cpa-97_design" transform="translate(-609.000000, -991.000000)">
            <g id="✅-art1" transform="translate(0.000000, 724.000000)">
                <g id="content" transform="translate(160.000000, 267.000000)">
                    <g id="4" transform="translate(429.000000, 0.000000)">
                        <g id="a1-4" transform="translate(20.000000, 0.000000)">
                            <mask id="mask-3" fill="white">
                                <use xlink:href="#path-2"></use>
                            </mask>
                            <use id="Rectangle" fill="url(#linearGradient-1)" xlink:href="#path-2"></use>
                            <g id="belly-(1)" mask="url(#mask-3)" fill="#000000" fill-rule="nonzero">
                                <g transform="translate(20.000000, 11.000000)" id="Path">
                                    <path d="M32.6207139,59 C32.6051432,59 32.5891277,58.9995508 32.5731119,58.9986522 C32.1055447,58.9725954 31.7478624,58.5687135 31.7741103,58.0965445 C31.8515191,56.6885737 32.1251194,55.2374741 32.609592,53.6596841 C32.7479492,53.208181 33.2221896,52.9552494 33.6701823,53.0958668 C34.1168403,53.2355857 34.3673069,53.715392 34.2285048,54.1664458 C33.7854058,55.6090095 33.5362739,56.9257813 33.4664279,58.1917869 C33.4410699,58.6477827 33.0673719,59 32.6207139,59 L32.6207139,59 Z"></path>
                                    <path d="M10.974707,14.9297027 C11.0832574,14.9764254 11.1953667,14.9979898 11.3056966,14.9979898 C11.6357965,14.9979898 11.9494358,14.802563 12.0864583,14.4764026 C12.3262479,13.9062956 12.5144314,13.3069871 12.6465604,12.6950992 C12.7462131,12.2332633 12.4561524,11.7772676 11.9988173,11.6766341 C11.5410374,11.5764498 11.0899306,11.868916 10.9902778,12.330752 C10.8808376,12.8384122 10.7246854,13.3352903 10.5262695,13.8074592 C10.3429796,14.2423398 10.5440646,14.7450581 10.974707,14.9297027 Z"></path>
                                    <path d="M11.1264105,9.54985225 C11.1771267,9.98518208 11.5432617,10.3055023 11.9667861,10.3055023 C12.000152,10.3055023 12.0335178,10.3037053 12.0673285,10.299662 C12.5322265,10.2444034 12.8645508,9.81895712 12.8098307,9.34948376 C12.7368707,8.72411827 12.6047417,8.10773791 12.4170031,7.51786373 C12.2737521,7.06770833 11.7963976,6.8201678 11.3510742,6.96437932 C10.905306,7.10859073 10.659733,7.59064327 10.802984,8.04079855 C10.9573568,8.52599592 11.0659071,9.03365619 11.1264105,9.54985225 Z"></path>
                                    <path d="M10.2918186,16.11619 C9.87941626,15.8915616 9.36602645,16.0470045 9.14358721,16.4630162 C9.0452691,16.6467624 8.95673825,16.8049008 8.8731011,16.9468658 C8.63286673,17.3525447 8.76366105,17.8781753 9.16538623,18.120774 C9.3015191,18.202988 9.45144311,18.2420733 9.59958762,18.2420733 C9.88786887,18.2420733 10.1690321,18.0933692 10.3278538,17.8251629 C10.4248372,17.6616334 10.5253798,17.4819307 10.6357097,17.2757219 C10.8577041,16.85971 10.703776,16.3403692 10.2918186,16.11619 Z"></path>
                                    <path d="M28.8654948,10.299662 C28.8993056,10.303256 28.9326715,10.3055023 28.9660374,10.3055023 C29.3895617,10.3055023 29.7556966,9.98518208 29.8068576,9.54940302 C29.8669163,9.03365619 29.9754666,8.52599592 30.1298395,8.04034933 C30.2730903,7.59019405 30.0275174,7.10859073 29.5817492,6.96392998 C29.1364258,6.81971857 28.6590712,7.06725911 28.5158203,7.51741438 C28.3285264,8.10773791 28.1963976,8.72366892 28.1234375,9.34903442 C28.0682726,9.81895712 28.4010417,10.2444034 28.8654948,10.299662 Z"></path>
                                    <path d="M30.2975586,17.2757219 C30.4074436,17.4819307 30.5079861,17.6616334 30.6049696,17.8251629 C30.7637913,18.0933692 31.0449545,18.2420733 31.3332357,18.2420733 C31.4813802,18.2420733 31.6313042,18.202988 31.7674371,18.120774 C32.1691624,17.8781753 32.3004014,17.3525447 32.0601671,16.9468658 C31.9760851,16.8049008 31.8875542,16.6467624 31.789681,16.4630162 C31.5672417,16.0470045 31.0534071,15.8915616 30.6414497,16.1157407 C30.2290473,16.3403692 30.0751194,16.85971 30.2975586,17.2757219 Z"></path>
                                    <path d="M28.9340061,11.6766341 C28.476671,11.7772676 28.1866103,12.2332633 28.2862631,12.6950992 C28.418392,13.3069871 28.6065756,13.9062956 28.8468098,14.4764026 C28.9838325,14.802563 29.297027,14.9979898 29.6271267,14.9979898 C29.7374566,14.9979898 29.8500108,14.9764254 29.9581163,14.9297027 C30.3887587,14.7450581 30.5898438,14.2427891 30.4069987,13.8074592 C30.2081381,13.3352903 30.0519857,12.8384122 29.9425455,12.330752 C29.8428928,11.868916 29.3922309,11.5764498 28.9340061,11.6766341 L28.9340061,11.6766341 Z"></path>
                                    <path d="M4.67255862,40.4542291 C4.7731011,40.8378944 5.11610243,41.0921738 5.49157986,41.0921738 C5.56320527,41.0921738 5.63572049,41.0827395 5.70823571,41.0634214 C6.16067708,40.9430206 6.43071834,40.4748949 6.31149091,40.0175515 C6.1691298,39.4721537 6.03833548,38.9245096 5.92266707,38.3894448 C5.82256944,37.9276088 5.37146262,37.6337947 4.9136827,37.7357761 C4.45634763,37.8368588 4.16673183,38.2928545 4.26638461,38.7546905 C4.3878364,39.3131168 4.52396916,39.8850207 4.67255862,40.4542291 L4.67255862,40.4542291 Z"></path>
                                    <path d="M6.14644097,45.0981969 C6.27412112,45.4418783 6.59710284,45.6539275 6.94010417,45.6539275 C7.03886724,45.6539275 7.13940972,45.6364066 7.23772784,45.5991183 C7.67593322,45.4333424 7.89792749,44.9396093 7.73332251,44.4970913 C7.53713113,43.9692145 7.34894751,43.4359466 7.17455515,42.9121132 C7.02507598,42.4642041 6.54371742,42.2234024 6.10061846,42.3743527 C5.65707465,42.5257523 5.41861979,43.0109496 5.56809896,43.4588588 C5.74916453,44.0006624 5.94357639,44.5523498 6.14644097,45.0981969 L6.14644097,45.0981969 Z"></path>
                                    <path d="M11.6050999,53.2077318 C11.4026801,52.7220851 11.1757921,52.2148742 10.8901801,51.611073 C10.6886501,51.1842791 10.1819336,51.0036778 9.76063368,51.2076404 C9.33799919,51.4111538 9.15915799,51.9224081 9.36068791,52.3487528 C9.63428819,52.9273956 9.85094404,53.4107959 10.0426867,53.8712841 C10.1788194,54.1987923 10.4929036,54.3955669 10.8243381,54.3955669 C10.9333333,54.3955669 11.0449979,54.3740025 11.1522135,54.3286275 C11.5837457,54.1453307 11.7866103,53.6439602 11.6050999,53.2077318 Z"></path>
                                    <path d="M3.73208547,35.6453841 C3.78636071,36.0775691 4.15116105,36.3938459 4.57201603,36.3938459 C4.60760631,36.3938459 4.64319659,36.3915997 4.67967668,36.387107 C5.1441298,36.3278052 5.47289502,35.8996634 5.4137261,35.4306393 C5.34388021,34.870416 5.29049479,34.3142361 5.25534936,33.7778234 C5.22420793,33.306553 4.82025827,32.9484954 4.35358067,32.9803926 C3.88645833,33.0118406 3.53277992,33.4193165 3.56392147,33.8910362 C3.60129126,34.4611431 3.65779086,35.0514665 3.73208547,35.6453841 L3.73208547,35.6453841 Z"></path>
                                    <path d="M4.40963542,31.6115071 C4.84828553,31.6115071 5.21975909,31.2705211 5.2540147,30.8212643 C5.32919925,29.8284068 5.4644423,29.3036748 5.46844618,29.2884 C5.59123264,28.8337521 5.32652992,28.3638295 4.87631291,28.2380376 C4.42476123,28.1122457 3.95852859,28.3795534 3.83351777,28.8350999 C3.81527778,28.9020391 3.6524522,29.5220136 3.56347651,30.6900813 C3.52788623,31.1613517 3.87711591,31.572871 4.3437934,31.6092608 C4.36603738,31.6110578 4.3878364,31.6115071 4.40963542,31.6115071 L4.40963542,31.6115071 Z"></path>
                                    <path d="M8.02382813,49.5741426 C8.16796875,49.8836806 8.47271048,50.0656295 8.79079861,50.0656295 C8.91180556,50.0656295 9.03459201,50.0391235 9.15159508,49.9838649 C9.57467442,49.7821485 9.7566298,49.272242 9.55732425,48.8445496 C9.31842442,48.332846 9.08575307,47.8157514 8.86553819,47.3080912 C8.67779942,46.8750076 8.17820098,46.6777839 7.74889317,46.8673702 C7.32047529,47.0569566 7.12517361,47.5614721 7.31291238,47.9945556 C7.53891053,48.516592 7.77825521,49.0480629 8.02382813,49.5741426 Z"></path>
                                    <path d="M12.7635633,57.0358492 C12.720855,56.7824683 12.6692492,56.5241456 12.6109701,56.2676201 C12.5059788,55.8071317 12.0513129,55.5191581 11.5953125,55.6251827 C11.1388672,55.7312074 10.854145,56.1903478 10.9591362,56.6512853 C11.0102973,56.8768122 11.0556749,57.1032376 11.0930447,57.3247213 C11.1277452,57.5295824 11.1611111,57.7375884 11.1922527,57.9473912 C11.2549805,58.3719389 11.6166667,58.6769843 12.029069,58.6769843 C12.0708876,58.6769843 12.113151,58.6738395 12.1554145,58.6671007 C12.618533,58.5974659 12.9375108,58.1616868 12.8685547,57.6940104 C12.8356337,57.4720776 12.8004883,57.252391 12.7635633,57.0358492 L12.7635633,57.0358492 Z"></path>
                                    <path d="M36.5792426,32.9803926 C36.1125652,32.9466983 35.7081705,33.3061038 35.677474,33.7778234 C35.6423285,34.3142361 35.5889431,34.870416 35.5186524,35.4306393 C35.4599284,35.8996634 35.7886936,36.3278052 36.2531466,36.387107 C36.2891819,36.3915997 36.325217,36.3938459 36.3608073,36.3938459 C36.7812174,36.3938459 37.1460178,36.0780183 37.200293,35.6453841 C37.2750326,35.0514665 37.3315321,34.4611431 37.368902,33.8910362 C37.3995986,33.4193165 37.046365,33.0118406 36.5792426,32.9803926 Z"></path>
                                    <path d="M37.368902,30.6905305 C37.2803711,29.5220136 37.1171007,28.9020391 37.0988607,28.8350999 C36.9747396,28.3809012 36.5098416,28.1153905 36.0600694,28.2389361 C35.6098524,28.362931 35.3433702,28.8328536 35.4643771,29.2879508 C35.4657118,29.2933419 35.6027344,29.8180738 35.6788086,30.8212643 C35.7130642,31.2705211 36.0845378,31.6119563 36.5231879,31.6119563 C36.5449869,31.6119563 36.5667861,31.6110578 36.5890299,31.6092608 C37.0557075,31.572871 37.4049371,31.161801 37.368902,30.6905305 Z"></path>
                                    <path d="M35.0101562,38.3894448 C34.894043,38.9245096 34.7632487,39.4721537 34.6208876,40.0180007 C34.5016601,40.4748949 34.7721462,40.9430206 35.2245876,41.0634214 C35.2971028,41.0827395 35.3696181,41.0921738 35.4412435,41.0921738 C35.8167209,41.0921738 36.1597222,40.8383437 36.2598198,40.4542291 C36.4084093,39.8850207 36.5449869,39.313566 36.6659939,38.7551398 C36.7656466,38.2933038 36.4760308,37.8368588 36.0186958,37.7362253 C35.5618056,37.634244 35.109809,37.928058 35.0101562,38.3894448 L35.0101562,38.3894448 Z"></path>
                                    <path d="M34.7863823,45.0981969 C34.9892469,44.5523498 35.1836589,44.0006624 35.3647244,43.4588588 C35.5142035,43.0109496 35.2757487,42.5257523 34.8322049,42.3743527 C34.3895508,42.2238517 33.9077473,42.4642041 33.7582682,42.9121132 C33.5838758,43.4359466 33.3956923,43.9692145 33.199056,44.4970913 C33.0348958,44.9400585 33.2568902,45.4333424 33.6950955,45.5991183 C33.7934136,45.6364066 33.8939562,45.6539275 33.9927192,45.6539275 C34.3357205,45.6539275 34.6587022,45.4418783 34.7863824,45.0981969 L34.7863823,45.0981969 Z"></path>
                                    <path d="M29.3375108,55.6251827 C28.8810656,55.5196074 28.4263997,55.8066825 28.3218534,56.2676201 C28.2631293,56.5241456 28.2119683,56.7824683 28.1688152,57.0353999 C28.1323351,57.252391 28.0971896,57.4720776 28.0642687,57.6940104 C27.9948676,58.1616868 28.3142903,58.5974659 28.7769639,58.66755 C28.8196723,58.6738395 28.8619358,58.6769843 28.9037543,58.6769843 C29.3161567,58.6769843 29.6778429,58.3719389 29.7405708,57.9473912 C29.7717122,57.7375884 29.8050781,57.5295824 29.8397786,57.3247213 C29.8771485,57.1032376 29.922526,56.8768122 29.9736871,56.6512853 C30.0786784,56.1903478 29.7939562,55.7312074 29.3375108,55.6251827 L29.3375108,55.6251827 Z"></path>
                                    <path d="M33.1834853,46.8673702 C32.7550673,46.6777839 32.2550239,46.8750076 32.0672851,47.3080912 C31.8470703,47.8157514 31.6143989,48.332846 31.3754992,48.8449988 C31.1761936,49.272242 31.3577041,49.7825978 31.7812284,49.9838649 C31.8977865,50.0391235 32.0210178,50.0656295 32.1420247,50.0656295 C32.459668,50.0656295 32.7644097,49.8841298 32.9089952,49.5741426 C33.1545681,49.0480629 33.3934679,48.516592 33.6199111,47.9945556 C33.8076497,47.5614721 33.612348,47.0569566 33.1834853,46.8673702 L33.1834853,46.8673702 Z"></path>
                                    <path d="M31.1726346,51.2076404 C30.75,51.0036778 30.2441732,51.1842791 30.0426432,51.611073 C29.7570313,52.2148742 29.5301432,52.7220851 29.3277236,53.2077318 C29.1462131,53.6435109 29.3490777,54.1453307 29.7806098,54.3286275 C29.8878256,54.3740025 29.9990451,54.3955669 30.1089302,54.3955669 C30.4399197,54.3955669 30.7540039,54.1987923 30.8905816,53.8712841 C31.0818793,53.4112451 31.2985351,52.9273956 31.5721354,52.3487528 C31.7736653,51.9224081 31.5948242,51.4111538 31.1726346,51.2076404 L31.1726346,51.2076404 Z"></path>
                                    <path d="M40.6414279,31.425964 C40.439898,30.143785 40.1520617,28.873736 39.7525608,27.6391782 C39.5728299,27.0825491 39.3374892,26.5443393 39.2053603,25.9778265 C39.0696723,25.3969375 39.0879124,24.8052663 38.9758029,24.2221308 C38.8418945,23.5284783 38.6376953,22.8496512 38.3903429,22.1892438 C37.6669705,20.2583379 36.4640191,18.6553895 35.5444553,16.8390442 C35.1031358,15.9670367 34.7080837,15.0707693 34.3570747,14.1574302 C33.7217882,12.5023681 33.2328667,10.7902503 32.8787435,9.05207569 C32.3524522,6.46795045 32.0001084,3.68929703 32.2212131,1.04317428 C32.2608073,0.572802478 31.9155816,0.15858763 31.4497938,0.11815455 C30.9826715,0.0772721735 30.5724935,0.426344696 30.5324545,0.897615189 C30.4999784,1.28038189 29.8037435,10.2111583 34.6702691,18.8040936 C29.4607422,19.4963983 24.812652,19.8009945 20.5048937,19.7313596 C20.5004448,19.7309104 20.4955513,19.7309104 20.4915473,19.7309104 L20.4661892,19.7309104 C20.4617404,19.7309104 20.4572917,19.7309104 20.4528429,19.7313596 C16.1361871,19.8014437 11.4827583,19.4959491 6.26388889,18.8009487 C11.128635,10.208912 10.4328451,1.28038189 10.4003689,0.897615189 C10.359885,0.426794039 9.9488173,0.0772721735 9.48302951,0.11815455 C9.01679687,0.159036858 8.67112633,0.573700934 8.71116534,1.04452208 C8.71872836,1.13437345 9.42074653,10.1132204 4.55021701,18.3714592 C4.41008027,18.5736248 3.69916452,19.625335 3.03763021,21.0647539 C2.57317708,22.0751325 2.18969178,23.1398712 1.97881944,24.2387533 C1.97792974,24.2436952 1.97703993,24.248637 1.97615012,24.2535788 C1.84224172,24.9481299 1.90719404,25.6449272 1.67363276,26.3089288 C1.42450081,27.0178561 1.11708987,27.705219 0.922677894,28.433015 C0.659309839,29.4182352 0.449772164,30.4182809 0.290950578,31.425964 C-0.515614178,36.5474918 0.338107639,41.0822901 3.05853952,46.1296905 C5.25579433,50.2057977 7.24573571,54.1956475 7.46639543,58.1917869 C7.49175347,58.6473334 7.86545139,59 8.31210937,59 C8.32768015,59 8.34369577,58.9995508 8.3597114,58.9986522 C8.82727859,58.9725954 9.18496099,58.5682642 9.15871314,58.0965445 C8.91847876,53.745043 6.84045139,49.5656067 4.5475478,45.3111446 C2.0175239,40.6177586 1.22119138,36.4181058 1.96502818,31.6946195 C2.18524306,30.2960831 2.50689022,28.9352842 2.92062714,27.6495111 C2.95087888,27.5551672 3.02472876,27.395681 3.09546447,27.2420353 C3.11192494,27.2060947 3.12883027,27.1692556 3.14573571,27.1328658 C3.84775388,27.1818348 4.55021701,27.2191231 5.23532986,27.2555129 C6.18381076,27.3053805 7.16476777,27.3574942 8.12036672,27.4401575 C8.58704433,27.4805906 8.99722222,27.131518 9.03726123,26.6606969 C9.07730035,26.1894265 8.7316298,25.7747624 8.26539716,25.7347786 C7.28177083,25.6494197 6.28613276,25.5968567 5.32386071,25.5460907 C4.73306209,25.5146427 4.12891707,25.4827454 3.52699653,25.4432108 C3.52833119,25.4261391 3.52922089,25.4090674 3.53055556,25.3919956 C3.53767361,25.3048398 3.54612633,25.2172347 3.55635845,25.1300789 C3.55858293,25.1085145 3.56080729,25.0873994 3.56347651,25.0662844 C3.69605035,24.0150235 4.04305556,22.9965582 4.46746956,22.0315546 C4.53331169,21.8819521 5.16770833,20.3994046 5.29360897,20.396709 C10.8981879,21.1743726 15.8697049,21.5167063 20.4728624,21.4425789 L20.4848742,21.4425789 C25.0822483,21.5171555 30.0457573,21.1748218 35.6409939,20.3998538 C36.3132053,21.5787037 37.2732531,23.5608248 37.4058268,25.4445586 C36.812359,25.4831948 36.2171115,25.5150919 35.6347656,25.5456415 C34.5568251,25.602697 33.4424045,25.6615497 32.3408854,25.7666757 C28.0398003,26.1754995 23.765408,28.6118193 20.4786458,32.4965431 C18.1670573,29.7704525 15.3007053,27.6980309 12.3173503,26.6117279 C11.8764757,26.4513433 11.3911133,26.6822612 11.2322917,27.1270255 C11.0734701,27.5713405 11.3021376,28.0619289 11.7421223,28.2223136 C14.639171,29.2767194 17.4258897,31.3720532 19.6186958,34.1340842 L19.6186958,57.9442464 C19.6186958,58.4168647 19.9981771,58.8000807 20.4661892,58.8000807 C20.9346462,58.8000807 21.3136827,58.4168647 21.3136827,57.9442464 L21.3136827,34.1646336 C24.3735569,30.2929383 28.4379666,27.8575171 32.499707,27.4711562 C33.5665256,27.3696241 34.663151,27.31167 35.7237413,27.2555129 C36.4004014,27.2200216 37.0944119,27.1831826 37.7879774,27.1346629 C37.8044379,27.1710526 37.8208985,27.2069932 37.837359,27.2424845 C37.9080946,27.3961303 37.9819444,27.5556165 38.0121962,27.6499603 C38.4259332,28.9357334 38.7475803,30.2965323 38.9677951,31.6950689 C39.7116319,36.4185551 38.9152994,40.6182078 36.3852756,45.3115939 C35.6325413,46.7087826 34.8370986,48.2039093 34.1168403,49.7758589 C33.9206489,50.2048992 34.1057183,50.7134579 34.5305772,50.9120294 C34.6458008,50.965491 34.7663628,50.9910986 34.8855903,50.9910986 C35.2059028,50.9910986 35.5119792,50.8069034 35.65523,50.4942206 C36.3541341,48.9694429 37.134451,47.5017209 37.8742839,46.1296905 C40.5947157,41.0822901 41.4479926,36.5474918 40.6414279,31.425964 Z"></path>
                                </g>
                            </g>
                        </g>
                    </g>
                </g>
            </g>
        </g>
    </g>
</svg>