<?xml version="1.0" encoding="UTF-8"?>
<svg width="80px" height="80px" viewBox="0 0 80 80" version="1.1" xmlns="http://www.w3.org/2000/svg" xmlns:xlink="http://www.w3.org/1999/xlink">
    <!-- Generator: Sketch 54.1 (76490) - https://sketchapp.com -->
    <title>a1-5</title>
    <desc>Created with Sketch.</desc>
    <defs>
        <linearGradient x1="76.260693%" y1="11.2327284%" x2="22.3691856%" y2="89.6824494%" id="linearGradient-1">
            <stop stop-color="#FAE857" offset="0%"></stop>
            <stop stop-color="#F2CD2C" offset="100%"></stop>
        </linearGradient>
        <rect id="path-2" x="0" y="0" width="80" height="80" rx="6"></rect>
    </defs>
    <g id="Design" stroke="none" stroke-width="1" fill="none" fill-rule="evenodd">
        <g id="cpa-97_design" transform="translate(-752.000000, -991.000000)">
            <g id="✅-art1" transform="translate(0.000000, 724.000000)">
                <g id="content" transform="translate(160.000000, 267.000000)">
                    <g id="5" transform="translate(572.000000, 0.000000)">
                        <g id="a1-5" transform="translate(20.000000, 0.000000)">
                            <mask id="mask-3" fill="white">
                                <use xlink:href="#path-2"></use>
                            </mask>
                            <use id="Rectangle" fill="url(#linearGradient-1)" xlink:href="#path-2"></use>
                            <g id="breast" mask="url(#mask-3)" fill="#000000" fill-rule="nonzero">
                                <g transform="translate(21.000000, 15.000000)" id="Path">
                                    <path d="M1.48650568,19.4709777 C1.48842919,19.0505981 1.5007398,18.6447144 1.5234375,18.2647705 C1.54767403,17.860794 1.23683123,17.5140381 0.829427083,17.4900055 C0.422407621,17.4659729 0.0723248106,17.7742004 0.0480882803,18.1781769 C0.0238518485,18.5844422 0.0103870985,19.0170288 0.00846354167,19.4641113 C-0.0276988636,27.1415711 0.01346475,35.326004 0.928296614,43.5569764 C0.969844909,43.931961 1.28992067,44.209671 1.66193182,44.209671 C1.68886132,44.209671 1.7161754,44.2077637 1.74348958,44.2050934 C2.1493549,44.1604614 2.44211648,43.7988281 2.39710585,43.3963775 C1.49073748,35.2428437 1.45034323,27.1060943 1.48650568,19.4709777 Z"></path>
                                    <path d="M1.12295812,15.6471252 C1.1960523,15.6696319 1.27068539,15.6806945 1.34339489,15.6806945 C1.6580848,15.6806945 1.94969223,15.4796601 2.04856177,15.1664734 C2.45173411,13.8881684 3.06995739,12.8837586 3.93862458,12.0956421 C5.11236385,11.0305786 6.73505566,10.8364105 8.30427315,10.6491089 C8.49047117,10.6269836 8.67551494,10.6048584 8.8586352,10.5812072 C11.1276337,10.2920532 13.0777107,9.35745234 14.4980469,7.87887578 C16.0426432,6.27098086 16.0057114,3.61900332 15.9764737,1.48849492 C15.9730114,1.22528076 15.9691643,0.971984863 15.9691643,0.73280332 C15.9691643,0.328063965 15.6383167,0 15.2301432,0 C14.8223544,0 14.4911222,0.328063965 14.4911222,0.73280332 C14.4911222,0.978469824 14.4949693,1.23863223 14.4984316,1.50833125 C14.5242069,3.37295527 14.5565223,5.69343564 13.4277936,6.86798096 C12.2271248,8.11805723 10.6263613,8.87832637 8.670129,9.12780762 C8.49085585,9.1506958 8.30965909,9.17243955 8.12730829,9.1941834 C6.41036342,9.39941406 4.4645182,9.6317291 2.94069602,11.0141754 C1.88890867,11.9686127 1.11410985,13.2183075 0.637843227,14.7289276 C0.516276091,15.1153564 0.733250424,15.5261993 1.12295812,15.6471252 Z"></path>
                                    <path d="M38.9642223,19.4644928 C38.9526811,16.9685363 38.635683,13.3769989 36.0316051,11.0145568 C34.5081676,9.63211055 32.5619377,9.39941406 30.8449928,9.1941834 C30.6630267,9.17243955 30.48183,9.1506958 30.3025568,9.12780762 C28.3463246,8.87870791 26.745561,8.11805723 25.5445076,6.86798096 C24.4161636,5.69343564 24.448479,3.37295527 24.4738695,1.50871279 C24.4777166,1.23863223 24.481179,0.978469824 24.481179,0.73280332 C24.481179,0.328063965 24.1503314,0 23.7421579,0 C23.3343691,0 23.0035216,0.328063965 23.0035216,0.73280332 C23.0035216,0.972366309 22.9996745,1.22566221 22.9962121,1.48849492 C22.9665898,3.61938477 22.9300426,6.2713623 24.4742542,7.87887578 C25.8949752,9.35783389 27.8450521,10.2920532 30.1140507,10.5815888 C30.2971709,10.6048584 30.4822148,10.6269836 30.668028,10.6491089 C32.2372455,10.836792 33.860322,11.0305786 35.0340613,12.0956421 C36.6902225,13.5986328 37.4696378,15.9420014 37.4861801,19.4709777 C37.5223426,27.1060943 37.4819484,35.2420807 36.57558,43.3963775 C36.5305693,43.7988281 36.823331,44.1604614 37.2288116,44.2050934 C37.2565104,44.2077637 37.2838246,44.209671 37.310754,44.209671 C37.6827652,44.209671 38.0028409,43.931961 38.0443892,43.5569764 C38.9596058,35.326004 39.0007694,27.1415711 38.9642223,19.4644928 L38.9642223,19.4644928 Z"></path>
                                    <path d="M19.4865353,45.7839966 C18.2643229,45.7839966 17.2698568,46.7700958 17.2698568,47.9820252 C17.2698568,48.3867646 17.6007043,48.7144471 18.0088778,48.7144471 C18.4170513,48.7144471 18.7478989,48.3867646 18.7478989,47.9820252 C18.7478989,47.5780487 19.0791311,47.2496033 19.4865353,47.2496033 C19.8935547,47.2496033 20.2247869,47.5780487 20.2247869,47.9820252 C20.2247869,48.3867646 20.5556345,48.7144471 20.963808,48.7144471 C21.3719815,48.7144471 21.7028291,48.3867646 21.7028291,47.9820252 C21.7028291,46.7697144 20.7087477,45.7839966 19.4865353,45.7839966 Z"></path>
                                    <path d="M32.4853811,45.5619813 C32.3088009,45.1076508 32.12645,44.6380615 31.9514087,44.1753388 C31.3254913,42.5189972 30.6872633,40.7337188 30.2621627,38.9034271 C30.1709872,38.5089874 29.7739701,38.2629395 29.3761837,38.3537293 C28.978782,38.444519 28.7302616,38.8378144 28.8222064,39.232254 C29.2665424,41.1457062 29.923621,42.9859161 30.5676195,44.68956 C30.7445845,45.1587677 30.9288589,45.6317901 31.1065932,46.0891724 C31.5374644,47.1977234 31.9833392,48.3440399 32.3557351,49.4915009 C32.4565282,49.8020172 32.7469815,50 33.0593632,50 C33.1339962,50 33.2105528,49.9885559 33.2859553,49.9645233 C33.6745087,49.8405457 33.8880208,49.4277954 33.7629913,49.0421295 C33.3775154,47.8557587 32.9239465,46.6896057 32.4853811,45.5619812 L32.4853811,45.5619813 Z"></path>
                                    <path d="M36.5313388,25.8419037 C36.356682,25.4760742 35.9158085,25.3204346 35.5472597,25.4936219 L35.2302616,25.642395 C36.7190755,23.0949402 36.7490826,20.8885193 36.7494674,20.7767486 C36.7506214,20.3720093 36.420928,20.0428009 36.0127545,20.041275 C36.0119851,20.041275 36.0112157,20.041275 36.0100616,20.041275 C35.6034269,20.041275 35.2725793,20.3678131 35.2714252,20.7714081 C35.2710405,20.7939148 35.2464193,22.605133 34.0395951,24.7531891 L34.0315163,24.3980408 C34.0222834,23.9990234 33.6933594,23.6816406 33.2928799,23.6816406 C33.2871094,23.6816406 33.2817235,23.6820221 33.2759529,23.6820221 C32.8677794,23.6911773 32.5446259,24.0264893 32.5538589,24.4312286 L32.6204131,27.3490906 C32.6261837,27.5974273 32.758138,27.8259277 32.9712654,27.9563904 C33.0893703,28.0288696 33.2240175,28.0654907 33.3590495,28.0654907 C33.4667673,28.0654907 33.5752545,28.0418396 33.6756629,27.9945373 L36.1797171,26.8177032 C36.5490353,26.644516 36.7059955,26.2073517 36.5313388,25.8419037 Z"></path>
                                    <path d="M29.0814985,36.46698 C29.488518,36.4406586 29.7970526,36.0916138 29.7701231,35.6880187 C29.755889,35.4705811 29.7455019,35.2508545 29.7393466,35.0353241 C29.6658676,32.3677062 30.0313388,29.4303895 30.8811553,25.869751 C30.8692294,25.8750916 30.8561494,25.8792877 30.8438388,25.8846283 C31.6001716,24.2332459 31.6251776,22.1054077 30.8930812,19.9222564 C30.7545869,19.5091248 30.5991655,19.0917969 30.4487453,18.688202 C29.8674538,17.1279907 29.318093,15.6543731 29.5496863,14.1384125 C29.6108546,13.7382508 29.3330966,13.3647919 28.9295396,13.3041382 C28.5263672,13.243103 28.1493549,13.5189057 28.0881866,13.9190674 C27.8000415,15.8084869 28.4417318,17.5308228 29.0622633,19.1959381 C29.2153765,19.6067811 29.3600261,19.9947357 29.4908262,20.3849793 C30.4722123,23.3119965 29.6462477,25.1110077 29.2457682,25.7484436 C28.3428622,27.1850586 27.0352451,27.671814 26.0973307,27.8270722 C24.6335227,28.0693055 23.0873875,27.6721954 21.9609671,26.7642975 C21.6443537,26.5094757 21.1788589,26.5567779 20.9214903,26.871109 C20.6641216,27.1850586 20.71221,27.6466369 21.0288234,27.9018402 C22.2002545,28.8459777 23.7206144,29.3617248 25.2502072,29.3617248 C25.6149089,29.3617248 25.9799953,29.3323517 26.34085,29.2728424 C27.273763,29.1179657 28.128196,28.7670136 28.8645242,28.2493592 C28.3990294,30.7701111 28.2047526,32.9948426 28.2620739,35.0753784 C28.2682292,35.3096008 28.2793856,35.5480194 28.2951587,35.7837677 C28.3209339,36.1713409 28.6460109,36.4685059 29.0318714,36.4685059 C29.0484138,36.4688873 29.0649562,36.4681244 29.0814985,36.46698 L29.0814985,36.46698 Z"></path>
                                    <path d="M18.0511955,26.871109 C17.7938269,26.5567779 17.3287169,26.5094757 17.0117187,26.7642975 C15.8852983,27.672577 14.3387784,28.0693055 12.8753551,27.8270722 C11.9370561,27.671814 10.6298237,27.1850586 9.72691761,25.7484436 C9.6484375,25.623703 9.55379967,25.4535675 9.45916193,25.239563 C9.44762079,25.1922607 9.43684891,25.1457215 9.42530777,25.0980377 C9.41722895,25.0999451 9.40915005,25.1003266 9.40107123,25.1018524 C9.03675421,24.1973877 8.73206671,22.6203918 9.48185964,20.3845978 C9.61265983,19.9947357 9.75692467,19.6067811 9.91003788,19.1963195 C10.5309541,17.5308228 11.1726444,15.8084869 10.8841146,13.9190674 C10.823331,13.5185242 10.4467034,13.243866 10.0431463,13.3041382 C9.63958923,13.3644104 9.36183123,13.7382508 9.42299958,14.1380311 C9.65420812,15.6543731 9.10523201,17.1283722 8.52394055,18.688202 C8.37352041,19.0917969 8.21809891,19.5091248 8.07921991,19.9222564 C7.3725142,22.0294952 7.37136006,24.0856171 8.05267519,25.7110596 C8.92980587,29.3430328 9.30758755,32.3284149 9.23295455,35.0353241 C9.14293329,38.3075714 8.09114583,41.3448334 7.02127725,44.1753388 C6.84662048,44.6372986 6.66426967,45.1068878 6.48768939,45.5608368 C6.04912405,46.6888428 5.59555514,47.8553771 5.21007933,49.0425109 C5.08504967,49.4277954 5.29856177,49.8405457 5.68711532,49.9645233 C5.76251778,49.9885559 5.83868961,50 5.91370739,50 C6.22608902,50 6.51615762,49.8020172 6.61695076,49.4915009 C6.98973127,48.3436584 7.43560606,47.1973419 7.86686195,46.0884094 C8.04459638,45.6310272 8.22810133,45.1583862 8.40545097,44.6899414 C9.51879145,41.7434692 10.6144354,38.5738373 10.710612,35.0753784 C10.7679333,32.995224 10.5728871,30.7697296 10.1077769,28.2493592 C10.8444898,28.7670136 11.6985381,29.1183472 12.631836,29.2728424 C12.9926906,29.3327332 13.3577769,29.3621063 13.7224787,29.3621063 C15.2520715,29.3621063 16.7724314,28.8459777 17.9438625,27.9018402 C18.2608606,27.6466369 18.3085642,27.1850586 18.0511955,26.871109 L18.0511955,26.871109 Z"></path>
                                    <path d="M5.61363636,28.0654907 C5.74866835,28.0654907 5.88331555,28.0288696 6.00180514,27.9563904 C6.21493255,27.8259277 6.34688679,27.5974273 6.35227273,27.3490906 L6.41882692,24.4312286 C6.42805987,24.0264893 6.10490646,23.6911773 5.69673295,23.6820221 C5.69096233,23.6820221 5.68557649,23.6816406 5.67980587,23.6816406 C5.27932649,23.6816406 4.95040246,23.9990234 4.94116951,24.3980408 L4.9330907,24.7486114 C3.74396307,22.6207733 3.70203009,20.8076477 3.70126063,20.7695008 C3.69895244,20.3666687 3.36887427,20.041275 2.96223958,20.041275 C2.96147012,20.041275 2.96070076,20.041275 2.95993139,20.041275 C2.55175779,20.0428009 2.22206439,20.3720093 2.22321854,20.7767486 C2.22360322,20.8885193 2.25361027,23.0949402 3.74242424,25.642395 L3.42542614,25.4936219 C3.05687732,25.3200531 2.61600379,25.4760742 2.44134702,25.8419037 C2.26630566,26.2073517 2.42365057,26.644516 2.79258407,26.8177032 L5.29702294,27.9945373 C5.39781608,28.0418396 5.50591856,28.0654907 5.61363636,28.0654907 L5.61363636,28.0654907 Z"></path>
                                </g>
                            </g>
                        </g>
                    </g>
                </g>
            </g>
        </g>
    </g>
</svg>