<?xml version="1.0" encoding="UTF-8"?>
<svg width="80px" height="80px" viewBox="0 0 80 80" version="1.1" xmlns="http://www.w3.org/2000/svg" xmlns:xlink="http://www.w3.org/1999/xlink">
    <!-- Generator: Sketch 54.1 (76490) - https://sketchapp.com -->
    <title>a1-6</title>
    <desc>Created with Sketch.</desc>
    <defs>
        <linearGradient x1="76.260693%" y1="11.2327284%" x2="22.3691856%" y2="89.6824494%" id="linearGradient-1">
            <stop stop-color="#FAE857" offset="0%"></stop>
            <stop stop-color="#F2CD2C" offset="100%"></stop>
        </linearGradient>
        <rect id="path-2" x="0" y="0" width="80" height="80" rx="6"></rect>
    </defs>
    <g id="Design" stroke="none" stroke-width="1" fill="none" fill-rule="evenodd">
        <g id="cpa-97_design" transform="translate(-895.000000, -991.000000)">
            <g id="✅-art1" transform="translate(0.000000, 724.000000)">
                <g id="content" transform="translate(160.000000, 267.000000)">
                    <g id="6" transform="translate(715.000000, 0.000000)">
                        <g id="a1-6" transform="translate(20.000000, 0.000000)">
                            <mask id="mask-3" fill="white">
                                <use xlink:href="#path-2"></use>
                            </mask>
                            <use id="Rectangle" fill="url(#linearGradient-1)" xlink:href="#path-2"></use>
                            <g id="arm" mask="url(#mask-3)" fill="#000000" fill-rule="nonzero">
                                <g transform="translate(13.000000, 15.000000)">
                                    <path d="M37.1910027,42.6033572 C36.0673657,42.6033572 35.153128,43.5141793 35.153128,44.6340356 C35.153128,45.0763038 35.513295,45.4355423 35.9576404,45.4355423 C36.4019859,45.4355423 36.7621528,45.0763038 36.7621528,44.6340356 C36.7621528,44.3982984 36.9543814,44.2063707 37.1910027,44.2063707 C37.4276239,44.2063707 37.6202714,44.3982984 37.6202714,44.6340356 C37.6202714,45.0763038 37.9804383,45.4355423 38.4247838,45.4355423 C38.8691292,45.4355423 39.2292961,45.0763038 39.2292961,44.6340356 C39.2292961,43.5141793 38.3146397,42.6033572 37.1910027,42.6033572 L37.1910027,42.6033572 Z" id="Path"></path>
                                    <path d="M53.0341587,48.698313 C52.8289474,47.7870737 52.5785057,46.875 52.2891158,45.9871259 C51.8832999,44.7441854 51.4062881,43.5233584 50.9451907,42.3425859 C50.7596629,41.8673562 50.567853,41.3758545 50.3840003,40.8926974 C50.0033123,39.8892494 49.7239735,39.116949 49.4789763,38.3880411 C49.3378411,37.9683036 48.8821881,37.7417454 48.4608765,37.8827706 C48.0395651,38.0233785 47.8121573,38.4773292 47.9532926,38.8970666 C48.2054094,39.6460019 48.49103,40.4362433 48.8792565,41.4597186 C49.065622,41.9503859 49.259107,42.4452255 49.4458912,42.923793 C49.8990314,44.0837038 50.3676672,45.2828347 50.7588252,46.4823828 C51.0327196,47.3226922 51.2701785,48.1859495 51.4640823,49.0487897 C51.5482609,49.4213797 51.8803683,49.675058 52.2484924,49.675058 C52.3067053,49.675058 52.365756,49.6687996 52.4252254,49.6554481 C52.8586821,49.5586498 53.13132,49.1301503 53.0341587,48.698313 L53.0341587,48.698313 Z" id="Path"></path>
                                    <path d="M48.4939617,34.8594922 C48.3034082,33.9540943 48.176931,33.0937575 48.1107609,32.2517791 C49.7319307,30.9162127 50.7667824,28.8980513 50.7667824,26.6433182 C50.7667824,24.7599235 49.914527,23.1527378 49.0899123,21.5981234 C48.2125289,19.943373 47.3841451,18.380414 47.6513386,16.6201033 C47.7179276,16.1824247 47.4155549,15.7739526 46.976235,15.7076124 C46.5369152,15.6408549 46.1269112,15.9425151 46.0607411,16.3801938 C45.7139757,18.6620471 46.7069475,20.5354281 47.6676718,22.3466415 C48.4340734,23.7919404 49.1577576,25.1575476 49.1577576,26.6433182 C49.1577576,29.7713223 46.6035042,32.3160331 43.4641889,32.3160331 C40.3244549,32.3160331 37.7702014,29.7713223 37.7702014,26.6433182 C37.7702014,26.2582112 37.8091496,25.8731041 37.8857898,25.4992624 C37.9749939,25.0657561 37.6939799,24.6422635 37.2588481,24.5533926 C36.8237162,24.4645218 36.3986355,24.7444858 36.3094314,25.177992 C36.2110136,25.6573941 36.1611766,26.1505648 36.1611766,26.6433182 C36.1611766,27.2195186 36.2306972,27.7794467 36.3584308,28.3172614 C35.6397722,30.6308246 33.4729076,32.3160331 30.9178164,32.3160331 C27.7785011,32.3160331 25.2242477,29.7713223 25.2242477,26.6433182 C25.2242477,26.2144016 25.2858111,25.7959157 25.3900919,25.3824368 C25.4244335,25.3065001 25.4470486,25.2247223 25.4562622,25.1396065 C25.7301566,24.2054194 26.2126127,23.2933456 26.7143336,22.3466415 C27.6750578,20.5354281 28.6680296,18.6620471 28.3212643,16.3801938 C28.2546753,15.9425151 27.8446714,15.6412721 27.4053515,15.7076124 C26.9664505,15.7739526 26.6640777,16.1824247 26.7306668,16.6201033 C26.9978603,18.3799968 26.1690577,19.9429558 25.2916743,21.5981234 C24.8217821,22.4843287 24.343514,23.3876406 24.0185262,24.3497824 C21.7059195,24.7173656 19.1617172,24.742817 16.9592547,24.413202 C15.3761955,24.1766302 13.827059,23.7965299 12.3549814,23.2841665 C11.8465598,23.1068419 11.3607533,22.9023973 10.8460495,22.6854356 C10.0105461,22.3337072 9.1469831,21.9694618 8.18583998,21.7358107 C5.742987,21.1420866 3.21134868,20.9668482 0.838853889,20.8662949 C0.394927232,20.8450159 0.0196835673,21.1909029 0.000837597466,21.6327539 C-0.0180083723,22.075022 0.32624424,22.4488638 0.770170897,22.4676393 C3.06016237,22.5648548 5.49715222,22.7321658 7.80431442,23.2929284 C8.63939904,23.4961213 9.40663831,23.8194778 10.2195266,24.1616098 C10.7346491,24.3789888 11.2673611,24.6030435 11.8239446,24.7970573 C13.3906707,25.3427995 15.0382249,25.7466822 16.7201206,25.9982743 C17.8274245,26.1639163 19.0143,26.2461114 20.2179276,26.2461114 C21.3641797,26.2461114 22.5255086,26.1710092 23.6474704,26.0233084 C23.6273681,26.2269186 23.615223,26.4330322 23.615223,26.6433182 C23.615223,28.8963824 24.6488182,30.9132921 26.2678941,32.2492757 C26.0249909,35.3230393 25.0211303,38.1977824 23.998005,40.8926974 C23.8145712,41.3754373 23.6223425,41.8665218 23.4372335,42.3413342 C22.9757173,43.522524 22.4987055,44.7437682 22.0928895,45.9871259 C21.8034997,46.875 21.5526392,47.7870737 21.3478467,48.698313 C21.2506854,49.1301503 21.5233233,49.559067 21.95678,49.6554481 C22.0162493,49.6687996 22.0753,49.675058 22.133513,49.675058 C22.5016371,49.675058 22.8337445,49.421797 22.9179231,49.0487897 C23.1118268,48.1863667 23.3492857,47.3231094 23.6231802,46.4828 C24.014757,45.2824174 24.4833927,44.0828694 24.936533,42.9229586 C25.1233172,42.444391 25.3163834,41.9499687 25.5027489,41.4597186 C26.4764559,38.8953978 27.435505,36.1691901 27.7906464,33.2168416 C28.7392255,33.6666199 29.799205,33.9190466 30.9178164,33.9190466 C33.5809576,33.9190466 35.9149229,32.4908542 37.1905839,30.3629603 C38.4666636,32.490437 40.800629,33.9190466 43.4637702,33.9190466 C44.5819627,33.9190466 45.6423611,33.6666199 46.5905214,33.2168416 C46.6679992,33.8585477 46.7764681,34.5123534 46.9188596,35.1886899 C46.9984315,35.5667041 47.3330516,35.8258064 47.7053637,35.8258064 C47.7602263,35.8258064 47.8159266,35.8203824 47.8716268,35.8086998 C48.3067586,35.7173255 48.5852598,35.2925813 48.4939617,34.8594922 Z" id="Path"></path>
                                    <path d="M0.803674795,14.7930352 C0.850999025,14.7930352 0.899160906,14.7888628 0.947322788,14.7801009 C2.11242081,14.5706494 3.27584374,14.364953 4.44094176,14.1588394 C5.9900783,13.8847166 7.5924022,13.6014146 9.18383739,13.3122713 C11.8913712,12.8203524 14.5595379,12.3797532 17.1133727,12.0029907 C17.5757265,11.9345643 18.1373355,11.8690586 18.6800987,11.805639 C19.0637183,11.7605777 19.426398,11.7180198 19.757249,11.6746275 C20.1974065,11.6170492 20.5077364,11.2144183 20.4499422,10.7754879 C20.3917291,10.336975 19.9875884,10.0278044 19.5474309,10.0853828 C19.2274687,10.1275234 18.8706521,10.1692468 18.4924769,10.2134737 C17.9375686,10.2785622 17.3638142,10.3453197 16.8775889,10.4175011 C14.3061647,10.7967669 11.6204085,11.2402868 8.89528509,11.7351265 C7.30720029,12.0234352 5.70697036,12.3067372 4.15950902,12.5804427 C2.99315457,12.7869736 1.82847532,12.9930872 0.66212077,13.2025388 C0.224894893,13.2809788 -0.0657513743,13.6977957 0.0129827875,14.133388 C0.0833409747,14.5209986 0.422149123,14.7930352 0.803674795,14.7930352 Z" id="Path"></path>
                                    <path d="M23.3597557,11.1368127 C23.400798,11.1368127 23.4422591,11.1338921 23.484139,11.1276336 C24.3799495,10.9891118 25.1785986,10.8489211 25.9240603,10.6995514 C26.1539808,10.6536557 26.3914397,10.6090116 26.6339242,10.5631158 C28.6219618,10.1892741 31.0966435,9.724058 32.4560642,7.86235948 C33.7895193,6.03612582 33.7308876,3.19601324 33.6881701,1.12235969 L33.6810505,0.786903576 C33.6730933,0.34421811 33.3041317,-0.00625851692 32.8618802,0.000417234105 C32.4179535,0.0083446821 32.0644874,0.373841758 32.0724446,0.816527117 L32.0791454,1.15532121 C32.1176748,3.0015821 32.1696059,5.52960357 31.1548566,6.9194104 C30.1710983,8.2666593 28.1332237,8.65009747 26.3353208,8.98805714 C26.0861355,9.03478736 25.8423946,9.08068306 25.606611,9.1282478 C24.8846019,9.27302796 24.1094055,9.40862912 23.2374665,9.54339566 C22.7985655,9.61140484 22.4974492,10.0207115 22.5657133,10.45839 C22.6272767,10.8539281 22.9698541,11.1368127 23.3597557,11.1368127 L23.3597557,11.1368127 Z" id="Path"></path>
                                    <path d="M52.8758528,13.256362 C51.8062409,11.9353989 50.4179231,10.7617192 48.7490101,9.76703314 C47.9834461,9.31057908 47.1605065,9.02894603 46.3643701,8.75607488 C45.1255635,8.33174782 43.955021,7.93078587 43.2166788,6.9194104 C42.2019295,5.52960357 42.2538605,3.00116489 42.2919712,1.15532121 L42.2990908,0.816527117 C42.307048,0.373841758 41.9535819,0.0083446821 41.5096552,0.000417234105 C41.0653098,-0.00792745334 40.6984421,0.34421811 40.6900661,0.786903576 L40.6833653,1.12235969 C40.6406478,3.19601324 40.582016,6.03612582 41.9154712,7.86235948 C42.9524168,9.28220716 44.421144,9.78539144 45.8412905,10.2723037 C46.5921966,10.5293199 47.3016416,10.7725674 47.9231391,11.1430713 C49.4073618,12.0271903 50.6867918,13.1061577 51.6236446,14.2631479 C52.694513,15.5849455 53.2841816,17.28434 53.2841816,19.0479886 L53.2841816,23.276239 C53.2841816,23.7189244 53.6443485,24.0777457 54.088694,24.0777457 C54.5330394,24.0777457 54.8932063,23.7189244 54.8932063,23.276239 L54.8932063,19.0479886 C54.8927875,16.9192602 54.1766416,14.862296 52.8758528,13.256362 Z" id="Path"></path>
                                    <path d="M4.30902014,22.6954492 L4.21311525,22.6950319 C3.76876982,22.6937802 3.40985934,22.3337072 3.41111565,21.8910218 C3.41279085,21.4483365 3.77798334,21.0911841 4.21814084,21.0920185 L4.30902014,21.0924357 C4.49035996,21.0924357 4.9904057,21.0916013 5.71660265,21.084091 L5.72497873,21.084091 C6.16555489,21.084091 6.52488426,21.4374883 6.5290723,21.877253 C6.53367901,22.3199385 6.17728136,22.6825149 5.73293583,22.6871045 C4.99920045,22.6946146 4.49245404,22.6954492 4.30902014,22.6954492 Z M8.62767267,22.6362019 C8.19254076,22.6362019 7.83446792,22.2903148 7.82399788,21.8547224 C7.81310916,21.4120371 8.16448133,21.0444538 8.60840798,21.0336057 C9.08290692,21.0219231 9.58462786,21.0081545 10.1072887,20.9918823 C10.5516341,20.9764447 10.9226897,21.3248352 10.9369289,21.7671032 C10.951168,22.2097887 10.6023087,22.5798754 10.1583821,22.5940613 C9.63195209,22.6103334 9.12646199,22.6245193 8.64777501,22.6362019 C8.64107423,22.6362019 8.63437345,22.6362019 8.62767267,22.6362019 Z M13.032179,22.4801564 C12.6054231,22.4801564 12.2494441,22.1459519 12.228923,21.7170351 C12.2079831,21.2747671 12.5505604,20.8992563 12.9944871,20.8779774 C13.4865756,20.8550295 13.9862025,20.8287437 14.4895986,20.8003718 C14.9326876,20.775755 15.3133756,21.1128801 15.3385036,21.5547311 C15.3640504,21.996582 15.0248233,22.3754306 14.5813155,22.4004646 C14.0728938,22.4296711 13.5678225,22.4559567 13.0711273,22.4793219 C13.0581445,22.4801564 13.0447429,22.4801564 13.032179,22.4801564 Z M17.4291468,22.2051991 C17.0141173,22.2051991 16.6623263,21.8872666 16.6284037,21.4679464 C16.5928058,21.0265128 16.9228192,20.6401539 17.3659082,20.604689 C17.8764239,20.5638002 18.3764696,20.5199905 18.852225,20.474512 C19.2944765,20.4315369 19.6873096,20.7548933 19.7300271,21.1959097 C19.7723258,21.636509 19.4481756,22.0278746 19.0059242,22.0704324 C18.5217927,22.1163282 18.0133711,22.1609722 17.4944794,22.2026957 C17.4727019,22.2043645 17.4509244,22.2051991 17.4291468,22.2051991 Z M21.8106192,21.7408175 C21.415692,21.7408175 21.0710206,21.451257 21.0149016,21.0502951 C20.9533382,20.6121992 21.2598989,20.207065 21.7000564,20.1453143 C22.216854,20.0735501 22.7072673,19.996779 23.1583135,19.9170872 C23.5959583,19.8403162 24.0130817,20.1311283 24.0905595,20.567138 C24.1676185,21.0031476 23.8757157,21.4187128 23.4380711,21.4959011 C22.9685977,21.5785135 22.4589197,21.6582051 21.9232761,21.7328901 C21.8851654,21.7383141 21.8474735,21.7408175 21.8106192,21.7408175 Z M26.1171265,20.8333333 C25.7820875,20.8333333 25.469245,20.6234646 25.3553317,20.2900946 C25.2121025,19.8711914 25.4369974,19.4155719 25.8578902,19.2728778 C26.2147067,19.1518799 26.5128914,19.0262924 26.7444871,18.899036 C27.1335511,18.6858294 27.6231269,18.8272718 27.837133,19.2148822 C28.0515579,19.60291 27.9095851,20.0902394 27.5201023,20.3034461 C27.2068409,20.4753464 26.8219648,20.6393195 26.376363,20.7903582 C26.2905093,20.8195646 26.2029804,20.8333333 26.1171265,20.8333333 L26.1171265,20.8333333 Z" id="Shape"></path>
                                </g>
                            </g>
                        </g>
                    </g>
                </g>
            </g>
        </g>
    </g>
</svg>