<?xml version="1.0" encoding="UTF-8"?>
<svg width="80px" height="80px" viewBox="0 0 80 80" version="1.1" xmlns="http://www.w3.org/2000/svg" xmlns:xlink="http://www.w3.org/1999/xlink">
    <!-- Generator: Sketch 54.1 (76490) - https://sketchapp.com -->
    <title>a1-7</title>
    <desc>Created with Sketch.</desc>
    <defs>
        <linearGradient x1="76.260693%" y1="11.2327284%" x2="22.3691856%" y2="89.6824494%" id="linearGradient-1">
            <stop stop-color="#FAE857" offset="0%"></stop>
            <stop stop-color="#F2CD2C" offset="100%"></stop>
        </linearGradient>
        <rect id="path-2" x="0" y="0" width="80" height="80" rx="6"></rect>
    </defs>
    <g id="Design" stroke="none" stroke-width="1" fill="none" fill-rule="evenodd">
        <g id="cpa-97_design" transform="translate(-1038.000000, -991.000000)">
            <g id="✅-art1" transform="translate(0.000000, 724.000000)">
                <g id="content" transform="translate(160.000000, 267.000000)">
                    <g id="7" transform="translate(858.000000, 0.000000)">
                        <g id="a1-7" transform="translate(20.000000, 0.000000)">
                            <mask id="mask-3" fill="white">
                                <use xlink:href="#path-2"></use>
                            </mask>
                            <use id="Rectangle" fill="url(#linearGradient-1)" xlink:href="#path-2"></use>
                            <g id="anatomy" mask="url(#mask-3)" fill="#000000" fill-rule="nonzero">
                                <g transform="translate(19.000000, 12.000000)">
                                    <path d="M17.6862362,34.6026612 C17.2304112,34.6026612 16.8611845,34.9688111 16.8611845,35.4208374 C16.8611845,35.9946289 16.3902803,36.4611816 15.8120979,36.4611816 C15.2334846,36.4611816 14.7625804,35.9946289 14.7625804,35.4208374 C14.7625804,34.9692383 14.3933536,34.6026612 13.9379596,34.6026612 C13.4821347,34.6026612 13.1129078,34.9688111 13.1129078,35.4208374 C13.1129078,36.8965454 14.3235582,38.0971069 15.811667,38.0971069 C17.3002068,38.0971069 18.5108571,36.8965454 18.5108571,35.4208374 C18.5108571,34.9688111 18.1416303,34.6026612 17.6862362,34.6026612 L17.6862362,34.6026612 Z" id="Path"></path>
                                    <path d="M27.1952264,38.0971069 C28.6833352,38.0971069 29.8939856,36.8965454 29.8939856,35.4208374 C29.8939856,34.9692383 29.5247587,34.6026612 29.0689338,34.6026612 C28.6135398,34.6026612 28.244313,34.9688111 28.244313,35.4208374 C28.244313,35.9946289 27.7734088,36.4611816 27.1947954,36.4611816 C26.6166131,36.4611816 26.1457089,35.9946289 26.1457089,35.4208374 C26.1457089,34.9692383 25.7764821,34.6026612 25.3206572,34.6026612 C24.8652631,34.6026612 24.4960363,34.9688111 24.4960363,35.4208374 C24.4960363,36.8965454 25.7071174,38.0971069 27.1952264,38.0971069 L27.1952264,38.0971069 Z" id="Path"></path>
                                    <path d="M31.4501666,49.6900025 C31.5397806,49.6900025 31.630687,49.675476 31.720301,49.6447143 C32.2149012,49.4746704 32.678912,49.2371216 33.0989774,48.9389038 C33.4694968,48.6761474 33.5548024,48.1651612 33.2894072,47.7977294 C33.0244428,47.4307251 32.5091624,47.3457031 32.1386431,47.6088867 C31.8473977,47.8156738 31.5247013,47.9805909 31.1800322,48.098938 C30.7496266,48.2471924 30.5217142,48.7128906 30.6707836,49.1397095 C30.7888327,49.4780884 31.1085134,49.6900025 31.4501666,49.6900025 L31.4501666,49.6900025 Z" id="Path"></path>
                                    <path d="M27.3369715,49.3529052 C27.7962432,49.5848999 28.2886891,49.7519531 28.8000919,49.8493652 C28.8530848,49.8596191 28.905216,49.8643189 28.9569164,49.8643189 C29.3446691,49.8643189 29.6901999,49.592163 29.7660271,49.2008057 C29.8521943,48.7573242 29.5592256,48.3283691 29.1115867,48.2429199 C28.752269,48.1745605 28.4071691,48.0574951 28.086196,47.8951417 C27.6803481,47.6900635 27.1835937,47.8502807 26.9767923,48.2527466 C26.7699908,48.6552124 26.9311237,49.1478271 27.3369715,49.3529052 L27.3369715,49.3529052 Z" id="Path"></path>
                                    <path d="M30.0762293,41.7509155 C30.5320542,41.7722779 30.9185144,41.425354 30.9409179,40.9741822 C30.9633214,40.5230103 30.6130515,40.1393432 30.1576574,40.1171264 C29.6475471,40.0914917 29.1236501,40.135498 28.6247415,40.2474365 C28.1805491,40.3465576 27.9017981,40.7844849 28.0017521,41.2254029 C28.0883502,41.6052246 28.4287109,41.8632812 28.8056928,41.8632812 C28.8660099,41.8632812 28.9267579,41.8568725 28.9879366,41.8432007 C29.3412224,41.7641602 29.7130343,41.7333984 30.0762293,41.7509155 L30.0762293,41.7509155 Z" id="Path"></path>
                                    <path d="M33.8559571,47.0838013 C33.9472944,47.1158448 34.0407858,47.1312255 34.1329848,47.1312255 C34.4720531,47.1312255 34.7895796,46.9227294 34.9097828,46.5877685 C35.0898725,46.0870362 35.1812098,45.5628052 35.1812098,45.0304565 C35.1812098,44.9689331 35.1799173,44.907837 35.1777631,44.8467408 C35.1596679,44.3955689 34.7762236,44.0422363 34.3212604,44.0614624 C33.8658663,44.0794068 33.5112879,44.4596557 33.5289522,44.9108276 C33.5306756,44.9505615 33.5315373,44.9902954 33.5315373,45.0304565 C33.5315373,45.3748169 33.4725126,45.7144776 33.355756,46.0383301 C33.2028091,46.4638672 33.426844,46.9321289 33.8559571,47.0838013 L33.8559571,47.0838013 Z" id="Path"></path>
                                    <path d="M25.1810662,47.3290405 C25.3327206,47.5952148 25.6119026,47.7443237 25.8997013,47.7443237 C26.0371381,47.7443237 26.1767291,47.710144 26.3051183,47.6383667 C26.7014878,47.4157715 26.8410788,46.916748 26.6170439,46.5236816 C26.4434168,46.2194824 26.3249368,45.8947754 26.2646197,45.5585327 C26.1844841,45.1137695 25.7562328,44.8172607 25.3077321,44.8967285 C24.8592314,44.9761963 24.560231,45.4008789 24.6403665,45.8456421 C24.7334271,46.3647461 24.915671,46.8637695 25.1810662,47.3290405 L25.1810662,47.3290405 Z" id="Path"></path>
                                    <path d="M27.1973805,41.647522 C26.8781308,41.3253784 26.3559571,41.3206787 26.0306756,41.6368409 C25.6489546,42.0085449 25.3335822,42.4306641 25.0936064,42.8916626 C24.8846507,43.293274 25.0431985,43.7867432 25.4477539,43.9939575 C25.5688189,44.0559082 25.6980699,44.0853882 25.8255974,44.0853882 C26.1245979,44.0853882 26.4128275,43.9238892 26.5593118,43.6427612 C26.7187213,43.3364258 26.9298311,43.0544434 27.1866096,42.8045044 C27.5114602,42.4879151 27.5166303,41.9700927 27.1973805,41.647522 L27.1973805,41.647522 Z" id="Path"></path>
                                    <path d="M32.0361041,42.3815307 C32.3381204,42.5810547 32.6039464,42.8198853 32.8258272,43.0911865 C32.9886833,43.2911378 33.2269359,43.3945313 33.4673426,43.3945313 C33.6495864,43.3945313 33.8331226,43.335144 33.9856388,43.2125245 C34.3397863,42.9279785 34.3945025,42.413147 34.1075655,42.0619507 C33.7809915,41.6616211 33.3910846,41.3108521 32.9499081,41.0198974 C32.5707721,40.7695313 32.0589384,40.8712159 31.8064682,41.2476197 C31.5539982,41.6235962 31.6569681,42.1311646 32.0361041,42.3815307 Z" id="Path"></path>
                                    <path d="M10.4555089,41.647522 C10.1362592,41.3253784 9.61408548,41.3206787 9.28880397,41.6368409 C8.90708298,42.0085449 8.59171074,42.4306641 8.35173478,42.8916626 C8.14277915,43.293274 8.30132695,43.7867432 8.70588235,43.9939575 C8.82694735,44.0559082 8.95619827,44.0853882 9.08372585,44.0853882 C9.38272636,44.0853882 9.67095588,43.9238892 9.81744026,43.6427612 C9.97684978,43.3364258 10.1879596,43.0544434 10.4447381,42.8045044 C10.7695887,42.4879151 10.7747587,41.9700927 10.4555089,41.647522 L10.4555089,41.647522 Z" id="Path"></path>
                                    <path d="M8.56542963,44.8967285 C8.11692897,44.9761963 7.81835937,45.4008789 7.898495,45.8456421 C7.99155566,46.3647461 8.17379937,46.8637695 8.4391946,47.3290405 C8.59084901,47.5952148 8.87046191,47.7443237 9.15782971,47.7443237 C9.29526654,47.7443237 9.43485754,47.710144 9.56324684,47.6383667 C9.96004713,47.4157715 10.0996381,46.916748 9.87517228,46.5236816 C9.7019761,46.2194824 9.58306526,45.8947754 9.52274816,45.5585327 C9.44261265,45.1137695 9.01436121,44.8172607 8.56542963,44.8967285 L8.56542963,44.8967285 Z" id="Path"></path>
                                    <path d="M14.708295,49.6900025 C14.797909,49.6900025 14.8888155,49.675476 14.9784295,49.6447143 C15.4730297,49.4746704 15.9370404,49.2371216 16.357106,48.9389038 C16.7276253,48.6761474 16.8129308,48.1651612 16.5475356,47.7977294 C16.2825712,47.4307251 15.767291,47.3457031 15.3967715,47.6088867 C15.1055263,47.8156738 14.7828297,47.9805909 14.4381606,48.098938 C14.007755,48.2471924 13.7798426,48.7128906 13.928912,49.1397095 C14.0473921,49.4780884 14.3666418,49.6900025 14.708295,49.6900025 L14.708295,49.6900025 Z" id="Path"></path>
                                    <path d="M16.0839556,43.0911865 C16.2468118,43.2911377 16.4850643,43.3945312 16.7254711,43.3945312 C16.9077148,43.3945312 17.0912512,43.335144 17.2437672,43.2120971 C17.5979148,42.9279785 17.652631,42.4127198 17.3656939,42.0619507 C17.03912,41.6616211 16.649213,41.3108521 16.2080365,41.0194702 C15.8289005,40.7695312 15.3170668,40.8712159 15.0645968,41.2471924 C14.8121266,41.623169 14.9150965,42.1311646 15.2942325,42.3815307 C15.5962488,42.5810547 15.8620749,42.8198853 16.0839556,43.0911865 L16.0839556,43.0911865 Z" id="Path"></path>
                                    <path d="M17.1140855,47.0838013 C17.2054228,47.1158448 17.2993451,47.1312255 17.3911133,47.1312255 C17.7297507,47.1312255 18.047708,46.9227294 18.1679113,46.5877685 C18.3480009,46.0870362 18.4393382,45.5628052 18.4393382,45.0313111 C18.4393382,44.9693604 18.4380457,44.9082642 18.4358915,44.8467408 C18.4177965,44.3955689 18.034352,44.0422363 17.5793888,44.0614624 C17.1239947,44.0794068 16.7694164,44.4596557 16.7870806,44.9108276 C16.788804,44.9501343 16.7896657,44.9898682 16.7896657,45.0304565 C16.7896657,45.3748169 16.730641,45.7144776 16.6138844,46.0383301 C16.4609375,46.4638672 16.6849724,46.9321289 17.1140855,47.0838013 L17.1140855,47.0838013 Z" id="Path"></path>
                                    <path d="M13.3343578,41.7509155 C13.7897518,41.7722779 14.1766429,41.425354 14.1990465,40.9741822 C14.2214499,40.5230103 13.8711799,40.1393432 13.4162167,40.1171264 C12.9061064,40.091919 12.3822093,40.135498 11.8833008,40.2474365 C11.4386776,40.3465576 11.1599265,40.7844849 11.2603113,41.2254029 C11.3464786,41.6052246 11.6868394,41.8632813 12.0638212,41.8632813 C12.1241384,41.8632813 12.1848863,41.8568725 12.246065,41.8432007 C12.5993508,41.7641602 12.9711627,41.7329712 13.3343578,41.7509155 L13.3343578,41.7509155 Z" id="Path"></path>
                                    <path d="M10.5950999,49.3529052 C11.0543716,49.5848999 11.5468175,49.7519531 12.0582203,49.8493652 C12.1107824,49.8596191 12.1633444,49.8643189 12.2150448,49.8643189 C12.6023667,49.8643189 12.9483284,49.592163 13.0241556,49.2008057 C13.1098921,48.7573242 12.8169233,48.3283691 12.3697151,48.2429199 C12.0103976,48.1745605 11.6652975,48.0574951 11.3438936,47.8951417 C10.9380457,47.6900635 10.4412914,47.8502807 10.2344899,48.2527466 C10.0281192,48.6552124 10.1892521,49.1478271 10.5950999,49.3529052 Z" id="Path"></path>
                                    <path d="M30.074506,28.6028443 C29.650563,28.435791 29.1714729,28.6408691 29.0030159,29.0608521 C28.8349896,29.4804077 29.0417911,29.9559326 29.4648725,30.1229858 C29.8814913,30.2870483 30.1942785,30.5143432 30.3941866,30.798462 C30.5544577,31.0261841 30.8108054,31.1483764 31.0710306,31.1483764 C31.2343175,31.1483764 31.3988971,31.1005249 31.5427965,31.0005493 C31.9163315,30.7420654 32.0076689,30.2323608 31.7465821,29.8615112 C31.3588293,29.310791 30.7961569,28.8869629 30.074506,28.6028443 L30.074506,28.6028443 Z" id="Path"></path>
                                    <path d="M25.6907457,30.3105469 C25.8027631,30.3105469 25.9165039,30.2879029 26.0255055,30.239624 C26.4201517,30.0657349 26.8858858,29.9456787 27.3714384,29.8922729 C27.8242475,29.8422852 28.1503906,29.4376831 28.0999828,28.9886474 C28.0500058,28.5396118 27.6424345,28.2166138 27.1891946,28.2661743 C26.5373392,28.3379517 25.903148,28.5032958 25.3555549,28.74469 C24.939367,28.9279785 24.7515223,29.4116211 24.9367819,29.8243409 C25.0729262,30.1293945 25.3749425,30.3105469 25.6907457,30.3105469 L25.6907457,30.3105469 Z" id="Path"></path>
                                    <path d="M24.3025907,30.4831543 C23.8988971,30.2738037 23.4004194,30.428894 23.1893095,30.8292237 C22.9687212,31.2483521 22.7804458,31.7123413 22.5973403,32.2895508 C22.4607652,32.7206421 22.7020336,33.1799316 23.1367475,33.3153686 C23.2190373,33.3410034 23.3026195,33.3533935 23.3844785,33.3533935 C23.7351792,33.3533935 24.0604607,33.1299439 24.1711857,32.7804565 C24.3241326,32.2976685 24.4770796,31.918274 24.6515683,31.586731 C24.8626781,31.1864013 24.7062844,30.6920776 24.3025907,30.4831543 Z" id="Path"></path>
                                    <path d="M19.6228458,33.3529663 C19.7047047,33.3529663 19.7878561,33.3410034 19.8705767,33.3153686 C20.3048598,33.1795044 20.5465591,32.7206421 20.409984,32.2895508 C20.2268784,31.7123413 20.0386029,31.2483521 19.8180147,30.8292237 C19.6069049,30.428894 19.1084271,30.2733764 18.7047335,30.4827271 C18.3010398,30.6920776 18.1446461,31.1859741 18.355756,31.586731 C18.5302447,31.9178466 18.6827608,32.2972412 18.8361385,32.7804565 C18.9468635,33.1295167 19.272145,33.3529663 19.6228458,33.3529663 Z" id="Path"></path>
                                    <path d="M15.6358858,29.8922729 C16.1214384,29.9456787 16.5871725,30.0657349 16.9818187,30.239624 C17.0908204,30.2879029 17.2041303,30.3105469 17.3161477,30.3105469 C17.6323817,30.3105469 17.9339672,30.1293945 18.0705423,29.8243409 C18.2553711,29.4116211 18.0679572,28.9279785 17.6513385,28.74469 C17.1037454,28.5032958 16.4695542,28.3379517 15.8176988,28.2661743 C15.3657513,28.2166138 14.9573185,28.5396118 14.9069106,28.9886474 C14.8565028,29.4376831 15.1830767,29.8422852 15.6358858,29.8922729 L15.6358858,29.8922729 Z" id="Path"></path>
                                    <path d="M11.4640969,31.0009766 C11.6079963,31.1005249 11.7725759,31.1483764 11.9358628,31.1483764 C12.196088,31.1483764 12.4524357,31.0261841 12.6127068,30.7988892 C12.8130457,30.5147706 13.1254021,30.2874755 13.5420209,30.1229858 C13.9651023,29.9563599 14.1719038,29.4808349 14.0038775,29.0608521 C13.8354204,28.6408691 13.3563304,28.4362182 12.9323874,28.6028443 C12.2111673,28.8873901 11.6480641,29.310791 11.2603113,29.8619385 C10.9996553,30.2323608 11.0905618,30.7420654 11.4640969,31.0009766 L11.4640969,31.0009766 Z" id="Path"></path>
                                    <path d="M38.2190373,43.864502 C38.2578125,43.4398193 38.2918486,42.984375 38.3254538,42.4310913 C38.3530273,41.9799194 38.0066349,41.5924073 37.5516716,41.5650635 C37.0971392,41.538147 36.7059399,41.8816529 36.6787971,42.3323974 C36.6460536,42.8690185 36.61331,43.309082 36.576258,43.7166747 C36.5038775,44.5075073 36.4293428,45.3252564 36.2397748,46.0789185 C36.0963063,46.6492919 35.8800264,47.2153931 35.5969669,47.7618409 C34.4263844,50.0211182 32.4268726,51.7467651 29.6544405,52.8905029 C26.7019186,54.1085815 23.6188535,54.3640747 21.5517004,54.3640747 C19.4849782,54.3640747 16.4019129,54.1085815 13.449391,52.8905029 C10.6769589,51.7467651 8.67787801,50.0215454 7.50686463,47.7618409 C7.22380515,47.2153931 7.00752522,46.6492919 6.86405673,46.0789185 C6.67491963,45.3256836 6.60038485,44.5079346 6.52800434,43.7166747 C6.44829963,42.8485107 6.40220011,41.9615479 6.35308482,41.0228882 C6.25399239,39.1254883 6.15102257,37.1708374 5.75766886,35.333252 C5.91966335,35.1529542 6.04159007,34.9333496 6.10923136,34.6859741 C6.97952088,31.498291 7.90107996,29.0685425 9.80322268,26.8088379 C11.4580653,24.8430786 13.6549001,23.2656861 16.1563361,22.2475586 L16.248966,22.2095337 C17.1709559,21.8344116 18.3824678,21.3400879 19.4746381,20.6530762 C21.7024932,21.8848267 23.5111443,22.5577393 23.6136833,22.595337 C27.1939338,23.9172363 32.0761719,26.3713379 35.0062902,30.5570678 C36.7473001,33.0436401 36.9773667,34.9978638 36.9790901,35.0132447 C36.9825368,35.0465698 36.9877068,35.0790405 36.995031,35.1115112 C37.0544865,35.3755493 37.1522863,35.5759277 37.2655963,35.7297363 C37.113511,36.5265503 36.9989086,37.4126587 36.9123104,38.4453125 C36.8748277,38.8956299 37.2121725,39.2908325 37.6662742,39.3280029 C38.1203757,39.3660279 38.5188994,39.0306396 38.5563821,38.5803223 C38.6352252,37.6399536 38.7377642,36.8345948 38.8713235,36.1151122 C39.2866498,35.9514771 39.6205481,35.6669311 39.762724,35.5336303 C42.6109835,32.9868164 42.1719611,24.8977661 42.111644,23.975769 C41.7445714,19.0222779 40.1371208,16.4280396 38.4348863,13.6812745 C38.2466108,13.3770752 38.0566119,13.0707397 37.8666131,12.7579956 C37.7959559,12.6413574 37.7752757,12.4999389 37.8101735,12.3700561 L38.0212833,11.5873413 C38.1742303,11.020813 38.0828929,10.409851 37.7713982,9.91040039 C36.0079848,7.08374023 33.7620347,4.67578125 31.0955882,2.75402837 C27.4838867,0.151245062 22.8498104,-0.668640109 18.6987017,0.560546875 C15.0184972,1.65045169 13.1163545,3.84991458 12.1689454,5.50292969 C11.213781,7.16918945 11.0121496,8.62524414 10.9824219,8.88671875 C10.863511,9.57458491 10.845416,10.2611694 10.9242589,10.9439087 C9.59555949,11.3233032 8.39309507,11.8710327 7.3353918,12.5879517 C5.51984717,13.8197021 5.01964614,14.873291 4.94209559,16.866394 C4.94123397,16.8792115 4.93994143,16.8916016 4.93951051,16.904419 C4.93951051,16.9133911 4.93951051,16.9351807 4.93907971,16.9646607 C4.9308939,17.217163 4.92917044,17.4837646 4.93218632,17.7683105 C4.93218632,17.7939453 4.93003217,17.8148803 4.92787801,17.8302612 C4.91452206,17.828125 4.89815022,17.8238526 4.87876261,17.8174439 C3.98650051,17.5166626 3.11578007,17.822998 2.49020563,18.6586914 C1.9296875,19.4072266 1.51436121,20.5958252 1.22139246,22.2924194 C1.14427272,22.7376099 1.4458582,23.1605835 1.89522059,23.2366333 C2.34372125,23.3135376 2.77024934,23.014038 2.84736897,22.5688477 C3.15240125,20.8034668 3.54187735,19.9985352 3.81459676,19.6340943 C4.08214614,19.2769165 4.22992305,19.3264771 4.34797217,19.3666382 C4.56382118,19.43927 4.78096272,19.472168 4.99207261,19.4678956 C5.05325132,20.7312622 5.18250235,22.2146607 5.4530675,23.3199463 C5.54483574,23.6942138 5.88218066,23.9450073 6.25399239,23.9450073 C6.3186179,23.9450073 6.38410504,23.9373169 6.44916125,23.9219361 C6.89206118,23.8151245 7.16391886,23.3729247 7.05620982,22.9337159 C6.54222191,20.8342285 6.58875235,16.9659424 6.58918316,16.927063 C6.58918316,16.9232177 6.58875235,16.9202271 6.58875235,16.9163818 C6.64476103,15.3193359 6.99330765,14.8019409 8.26642923,13.9384766 C9.1535214,13.3369141 10.1664178,12.8712159 11.2896082,12.5418091 C12.0694221,14.8104858 13.9444221,17.0090943 16.8551528,19.032959 C17.1886201,19.2645263 17.5229492,19.4849854 17.8551241,19.6956177 C17.0770336,20.1044922 16.2670612,20.4343262 15.6229607,20.696228 L15.5294693,20.7342529 C12.7807329,21.8532104 10.3624483,23.5912475 8.53656368,25.7608032 C6.26088577,28.4639893 5.28331801,31.472229 4.55951287,34.102356 C3.67026654,32.8509521 3.15153952,31.7290039 2.88528257,30.4852905 C2.60394643,29.1693725 2.47297217,27.7680053 2.49623739,26.3187866 C2.50313077,25.8671875 2.13993566,25.4950561 1.68454162,25.4882202 C1.22957838,25.4822388 0.853889044,25.8411255 0.846564853,26.2927246 C0.821145478,27.864563 0.964183162,29.3894043 1.27180029,30.8249512 C1.59406592,32.3301392 2.2472139,33.7221069 3.32732077,35.2063599 C3.54101563,35.4998779 3.8387236,35.7011108 4.17003676,35.7938232 C4.51599842,37.4763184 4.61207485,39.3186035 4.70556643,41.1074829 C4.75338919,42.0205078 4.8025046,42.9647216 4.88479438,43.864502 C4.96277574,44.7172852 5.04334217,45.5991211 5.26349949,46.4749755 C5.4375575,47.1671143 5.69821349,47.8515625 6.03943592,48.5095215 C7.39355463,51.1229858 9.67354096,53.1049805 12.8160616,54.4012451 C16.019761,55.7227173 19.3350471,56 21.5521312,56 C23.7692153,56 27.0840705,55.7227173 30.2882009,54.4008178 C33.4307215,53.1045532 35.7102769,51.1225586 37.0643957,48.5095215 C37.4056182,47.8515625 37.666705,47.166687 37.8407629,46.4745483 C38.0609203,45.5982667 38.1410558,44.7168579 38.2190373,43.864502 Z M12.612276,9.14135742 C12.6161535,9.11914062 12.6191694,9.09649661 12.6213235,9.07342527 C12.625201,9.02856445 13.0319106,5.13208008 17.1265797,2.95568853 C18.4544175,5.05432134 20.8438361,6.21557617 23.1987879,7.22387695 C25.2396599,8.09759519 27.7794405,9.18493647 28.884105,11.2455444 C29.0323128,11.5223999 29.3179572,11.6800537 29.6130802,11.6800537 C29.7436237,11.6800537 29.8763212,11.6492919 29.9995404,11.5843505 C30.4019417,11.3720092 30.5544577,10.876831 30.3407629,10.4777832 C28.9646715,7.91046145 26.1301988,6.69708255 23.8527975,5.72167969 C21.7468692,4.8206177 19.7688994,3.87127683 18.6603573,2.29217527 C18.8262293,2.23492434 18.9959789,2.17980962 19.1708984,2.12811277 C20.2880572,1.79699712 21.4452838,1.63507083 22.6055263,1.63507083 C25.2474149,1.63507083 27.9035214,2.47589114 30.1257755,4.07763672 C32.6181641,5.8737793 34.7184915,8.12579348 36.3685949,10.7713013 C36.4418371,10.888794 36.4633789,11.0323487 36.4276195,11.1647949 L36.2165097,11.9475098 C36.0665785,12.5042115 36.1527458,13.1074829 36.4534697,13.6022339 C36.6460536,13.9192505 36.8386374,14.2298583 37.0294979,14.5379029 C38.6925264,17.2218628 40.1285042,19.5396729 40.465849,24.0889893 C40.6136259,26.3572388 40.5757123,32.6176758 38.6524586,34.3236694 C38.6459961,34.3300781 38.6391027,34.3360596 38.6322093,34.3424682 C38.6089442,34.364685 38.5800781,34.389038 38.5490579,34.4138184 C38.3879251,33.6217042 37.8911707,31.8447876 36.4353745,29.7303466 C33.271312,25.1348877 28.0297564,22.4804077 24.1888499,21.0619507 C24.0604607,21.0145263 11.3563879,16.2413331 12.612276,9.14135742 L12.612276,9.14135742 Z" id="Shape"></path>
                                </g>
                            </g>
                        </g>
                    </g>
                </g>
            </g>
        </g>
    </g>
</svg>