<?xml version="1.0" encoding="UTF-8"?>
<svg width="80px" height="80px" viewBox="0 0 80 80" version="1.1" xmlns="http://www.w3.org/2000/svg" xmlns:xlink="http://www.w3.org/1999/xlink">
    <!-- Generator: Sketch 54.1 (76490) - https://sketchapp.com -->
    <title>a1-8</title>
    <desc>Created with Sketch.</desc>
    <defs>
        <linearGradient x1="76.260693%" y1="11.2327284%" x2="22.3691856%" y2="89.6824494%" id="linearGradient-1">
            <stop stop-color="#FAE857" offset="0%"></stop>
            <stop stop-color="#F2CD2C" offset="100%"></stop>
        </linearGradient>
        <rect id="path-2" x="0" y="0" width="80" height="80" rx="6"></rect>
    </defs>
    <g id="Design" stroke="none" stroke-width="1" fill="none" fill-rule="evenodd">
        <g id="cpa-97_design" transform="translate(-1181.000000, -991.000000)">
            <g id="✅-art1" transform="translate(0.000000, 724.000000)">
                <g id="content" transform="translate(160.000000, 267.000000)">
                    <g id="8" transform="translate(1001.000000, 0.000000)">
                        <g id="a1-8" transform="translate(20.000000, 0.000000)">
                            <mask id="mask-3" fill="white">
                                <use xlink:href="#path-2"></use>
                            </mask>
                            <use id="Rectangle" fill="url(#linearGradient-1)" xlink:href="#path-2"></use>
                            <g id="beauty" mask="url(#mask-3)" fill="#000000" fill-rule="nonzero">
                                <g transform="translate(25.000000, 15.000000)">
                                    <path d="M13.1129032,25.1312256 C12.7121976,25.1312256 12.3870968,25.4589081 12.3870968,25.8636475 C12.3870968,26.2821197 12.0498992,26.6223907 11.6348286,26.6223907 C11.2201361,26.6223907 10.8829385,26.2821197 10.8829385,25.8636475 C10.8829385,25.4589081 10.5578377,25.1312256 10.157132,25.1312256 C9.75604839,25.1312256 9.43132558,25.4589081 9.43132558,25.8636475 C9.43132558,27.0896912 10.4198589,28.0872345 11.6348286,28.0872345 C12.8501764,28.0872345 13.8387097,27.0896912 13.8387097,25.8636475 C13.8387097,25.4589081 13.5139869,25.1312256 13.1129032,25.1312256 Z" id="Path"></path>
                                    <path d="M18.3629032,28.087616 C19.577873,28.087616 20.5667843,27.0896912 20.5667843,25.8636475 C20.5667843,25.4589081 20.2416834,25.1312256 19.8409779,25.1312256 C19.4398941,25.1312256 19.1151714,25.4589081 19.1151714,25.8636475 C19.1151714,26.2821197 18.7775957,26.6227723 18.3629032,26.6227723 C17.9478327,26.6227723 17.610635,26.2821197 17.610635,25.8636475 C17.610635,25.4589081 17.2855343,25.1312256 16.8848286,25.1312256 C16.4837449,25.1312256 16.1590221,25.4589081 16.1590221,25.8636475 C16.1590221,27.0896912 17.1475554,28.087616 18.3629032,28.087616 Z" id="Path"></path>
                                    <path d="M6.69254032,27.3067475 C6.67704135,26.902771 6.33833168,26.5892029 5.93876013,26.6036987 C5.53843248,26.6197205 5.22656245,26.9603729 5.24206152,27.3647309 C5.26549897,27.9655457 5.47946071,28.554535 5.87714216,29.1145324 C6.01890116,29.3140411 6.24193548,29.4200897 6.467994,29.4200897 C6.61428929,29.4200897 6.76209677,29.3754578 6.890247,29.2831421 C7.21572581,29.0473937 7.29057465,28.5896301 7.05695565,28.2611847 C6.82749494,27.9376983 6.7046371,27.6168823 6.69254032,27.3067475 Z" id="Path"></path>
                                    <path d="M12.2513861,28.7967682 C11.906628,29.0870666 11.6121472,29.2995453 11.3240927,29.4658661 C10.9763105,29.6665191 10.8553427,30.1139832 11.0541834,30.4649354 C11.188382,30.7014465 11.4329637,30.834198 11.6851059,30.834198 C11.8072076,30.834198 11.9308215,30.8029175 12.0446069,30.7376861 C12.4086441,30.5274963 12.7700353,30.2680969 13.1817037,29.9209595 C13.4897933,29.6615601 13.5306199,29.1996002 13.2739415,28.8890839 C13.016885,28.578949 12.5590978,28.5373687 12.2513861,28.7967682 L12.2513861,28.7967682 Z" id="Path"></path>
                                    <path d="M9.66154239,29.8225402 C9.28540829,29.7645568 8.88319055,29.6318055 8.49722787,29.4391632 C8.13810484,29.2598725 7.70299897,29.4082642 7.52494955,29.7706604 C7.34727823,30.1334381 7.49395161,30.5725098 7.85345265,30.752182 C8.37096774,31.0108185 8.91985887,31.1901093 9.44153226,31.2705994 C9.47895668,31.2763214 9.516003,31.2793731 9.55229332,31.2793731 C9.90461187,31.2793731 10.2138357,31.0199737 10.2690272,30.6575775 C10.3298892,30.2577973 10.0577117,29.8839569 9.66154239,29.8225402 Z" id="Path"></path>
                                    <path d="M18.7382812,29.4658661 C18.4506048,29.2995453 18.155746,29.0870666 17.8109879,28.7967682 C17.5032763,28.5373687 17.0454889,28.578949 16.7888105,28.8894653 C16.531754,29.1999816 16.5729586,29.6615601 16.8806704,29.9209595 C17.2927167,30.2680969 17.6541078,30.5278778 18.0181452,30.7376861 C18.1315524,30.8032989 18.2555444,30.834198 18.3776462,30.834198 C18.6294103,30.834198 18.8743699,30.701828 19.0081905,30.4653168 C19.2070312,30.1139832 19.0864415,29.6665191 18.7382812,29.4658661 Z" id="Path"></path>
                                    <path d="M21.5651462,29.4391632 C21.1795615,29.6318055 20.7769657,29.7645568 20.4008317,29.8225402 C20.0046623,29.8839569 19.7328629,30.2577973 19.7937248,30.6575775 C19.8485383,31.0199737 20.1577621,31.2789917 20.5100806,31.2789917 C20.546749,31.2789917 20.5837954,31.2763214 20.6212198,31.2705994 C21.1425151,31.1897277 21.6914062,31.010437 22.2089214,30.752182 C22.5684224,30.5725098 22.7154737,30.1330566 22.5374244,29.7706604 C22.359753,29.4082642 21.9242691,29.2598725 21.5651462,29.4391632 L21.5651462,29.4391632 Z" id="Path"></path>
                                    <path d="M24.1236139,26.6040802 C23.7247984,26.5895844 23.3857107,26.902771 23.3698336,27.3067475 C23.3577369,27.6168823 23.234879,27.9376983 23.0054183,28.2611847 C22.7717994,28.5900116 22.8466482,29.0473937 23.172127,29.2831421 C23.3002772,29.3758393 23.4480847,29.4204712 23.5943801,29.4204712 C23.8204385,29.4204712 24.0430947,29.3140411 24.1852318,29.1145324 C24.5829134,28.554535 24.796497,27.9655457 24.8203125,27.3647309 C24.8361895,26.9603729 24.5243196,26.6197205 24.1236139,26.6040802 L24.1236139,26.6040802 Z" id="Path"></path>
                                    <path d="M13.1491935,17.8684234 C12.7481099,17.8684234 12.4233871,18.1964874 12.4233871,18.6008453 L12.4233871,19.2844391 C12.4233871,19.688797 12.7481099,20.0168609 13.1491935,20.0168609 C13.5498992,20.0168609 13.875,19.688797 13.875,19.2844391 L13.875,18.6008453 C13.875,18.1964874 13.5498992,17.8684234 13.1491935,17.8684234 Z" id="Path"></path>
                                    <path d="M13.1491935,20.7981109 C12.7481099,20.7981109 12.4233871,21.1261749 12.4233871,21.5305328 L12.4233871,22.9953766 C12.4233871,23.400116 12.7481099,23.7277984 13.1491935,23.7277984 C13.5498992,23.7277984 13.875,23.400116 13.875,22.9953766 L13.875,21.5305328 C13.875,21.1261749 13.5498992,20.7981109 13.1491935,20.7981109 Z" id="Path"></path>
                                    <path d="M16.9109123,23.7277984 C17.311996,23.7277984 17.6367188,23.400116 17.6367188,22.9953766 L17.6367188,21.5305328 C17.6367188,21.1261749 17.311996,20.7981109 16.9109123,20.7981109 C16.5102067,20.7981109 16.1851059,21.1261749 16.1851059,21.5305328 L16.1851059,22.9953766 C16.1851059,23.400116 16.5102067,23.7277984 16.9109123,23.7277984 Z" id="Path"></path>
                                    <path d="M16.9109123,20.0168609 C17.311996,20.0168609 17.6367188,19.6891785 17.6367188,19.2844391 L17.6367188,18.6012268 C17.6367188,18.1964874 17.311996,17.8688049 16.9109123,17.8688049 C16.5102067,17.8688049 16.1851059,18.1964874 16.1851059,18.6012268 L16.1851059,19.2844391 C16.1851059,19.6891785 16.5102067,20.0168609 16.9109123,20.0168609 Z" id="Path"></path>
                                    <path d="M26.4896673,42.7696229 L19.954385,39.9597168 C19.5858115,39.8010254 19.3476562,39.4374848 19.3476562,39.0335083 L19.3476562,38.0599976 C22.0535535,36.6962433 24.1583922,34.6221924 25.6156754,31.879425 C26.499496,30.2154541 27.1304183,28.3390045 27.5016381,26.2805938 C27.7549143,26.1535645 27.952243,25.9830475 28.0448589,25.8945465 C30.1130293,24.0097046 29.7988911,18.1110382 29.7557963,17.4373627 C29.7092994,16.796875 29.6314264,16.1800385 29.5240675,15.6044006 C29.4503528,15.2065277 29.0711946,14.9452209 28.6769153,15.0192261 C28.2830141,15.0939941 28.0236895,15.4766083 28.0974043,15.8740997 C28.1945565,16.3967133 28.265625,16.9586182 28.3075857,17.5380707 C28.4470766,19.7181701 28.2546623,23.5095978 27.173135,24.7055054 C26.7750756,23.0400086 24.9548892,18.2182312 16.9513608,15.2111054 C16.9283014,15.202713 14.5985383,14.3192291 12.4317037,12.7815246 C9.68611394,10.8325958 8.47416832,8.80813594 8.82951106,6.76460264 C8.83253526,6.74705508 8.83555945,6.72531133 8.83707155,6.70738223 C8.84992442,6.57997129 9.14327119,3.98445127 11.8457661,2.46315 C12.8199345,3.94058223 14.4942037,4.76760859 16.1442793,5.48629766 C17.8971774,6.25 19.405494,6.99081426 20.1086189,8.32557676 C20.2390373,8.57353213 20.4904234,8.71467588 20.750126,8.71467588 C20.8650454,8.71467588 20.9814768,8.68682861 21.0903478,8.62884521 C21.4441785,8.43887324 21.5787551,7.99522402 21.390499,7.63816836 C20.3913811,5.74073789 18.2691532,4.81643672 16.7200101,4.1416168 C15.3167843,3.53050234 13.9971018,2.88848877 13.2127016,1.86996465 C13.2697833,1.85127256 13.3249748,1.83181758 13.3835685,1.81427002 C15.9390121,1.04370117 18.7976311,1.56211855 21.0309979,3.19976807 C22.7838962,4.48570254 24.2612147,6.09779355 25.422127,7.99140928 C25.4538811,8.04290771 25.4629537,8.1058502 25.4478327,8.16421504 L25.298135,8.72879023 C25.1817037,9.16786191 25.2486139,9.64317324 25.4814768,10.0330353 C25.6183215,10.2626801 25.7551664,10.4869843 25.890877,10.710144 C26.329007,11.4295959 26.7429435,12.1097564 27.1050908,12.8559112 C27.281628,13.2190704 27.7163559,13.3693695 28.0762349,13.1916046 C28.4361139,13.0138397 28.5850554,12.5751495 28.4088962,12.2116089 C28.016129,11.4025116 27.5844254,10.6937408 27.1277721,9.9430084 C26.9939516,9.72404482 26.859375,9.50279238 26.7247984,9.27734375 C26.6941785,9.22622676 26.6854839,9.16404727 26.7006048,9.1072082 L26.8499244,8.54263301 C26.968246,8.09593203 26.8979334,7.61451719 26.656754,7.22045898 C25.3960433,5.16433711 23.7905746,3.41300967 21.8841986,2.01492305 C19.2875505,0.110244727 15.9541331,-0.489425684 12.9681199,0.410461426 C8.03981855,1.89590449 7.44594252,6.07986445 7.39528732,6.53762812 C7.3136341,7.02056885 7.29737903,7.48786924 7.33669355,7.93991094 C6.42641129,8.21647646 5.59967235,8.60633848 4.86857361,9.1106415 C3.52620968,10.0372314 3.16255045,10.8261108 3.10924897,12.3260498 C3.10887097,12.3310089 3.10811497,12.3363495 3.10811497,12.34169 C3.10811497,12.3462677 3.10773687,12.3561859 3.10773687,12.3687744 C3.10320058,12.5137329 3.10131048,12.6651764 3.10168848,12.8238678 C2.46055945,12.6663208 1.84627016,12.9161835 1.39831152,13.5250092 C1.0297379,14.0258789 0.387096774,15.3427124 0.224168323,18.5367584 C0.155367968,19.8875428 0.251386065,21.1940766 0.509576613,22.4208832 C0.742439516,23.5271454 1.21307961,24.5491027 1.99105345,25.6370545 C2.11504539,25.8098603 2.27419355,25.9433746 2.45299897,26.03302 C2.81779239,28.1887055 3.46307961,30.1490783 4.38205645,31.879425 C5.83896174,34.6214295 7.94304435,36.6947174 10.6478075,38.0584717 L10.6478075,39.0335083 C10.6478075,39.4374848 10.4096522,39.8010254 10.0410786,39.9597168 L9.90839216,40.0165558 C9.53944055,40.1752472 9.36781752,40.6051636 9.52469758,40.977478 C9.68195565,41.3497925 10.1083669,41.5229797 10.4769405,41.3642883 L10.6100051,41.3074493 C11.5146169,40.9183502 12.0994204,40.025711 12.0994204,39.0335083 L12.0994204,38.6962891 C13.0391885,39.0419006 14.0190272,39.2169952 14.999244,39.2169952 C15.9783266,39.2169952 16.9570312,39.0422821 17.8964214,38.697052 L17.8964214,39.0335083 C17.8964214,40.025711 18.4808468,40.9183502 19.3854586,41.3074493 L25.9207409,44.1173554 C26.9931956,44.5781708 27.6864919,45.6363678 27.6864919,46.813202 L27.6864919,48.5351562 L2.30934977,48.5351562 L2.30934977,46.813202 C2.30934977,45.6363678 3.00226819,44.5781708 4.07472281,44.1173554 L7.42401716,42.6773071 C7.79259077,42.5186157 7.96421371,42.0883179 7.80695565,41.7163849 C7.64969758,41.3440704 7.22366429,41.1708832 6.85471268,41.3295746 L3.50579632,42.7696229 C1.89692535,43.4612274 0.857736871,45.0485229 0.857736871,46.813202 L0.857736871,49.2675781 C0.857736871,49.6723175 1.18245968,50 1.58354332,50 L28.4119204,50 C28.813004,50 29.1377268,49.6723175 29.1377268,49.2675781 L29.1377268,46.813202 C29.1377268,45.0485229 28.0981603,43.4612274 26.4896673,42.7696229 L26.4896673,42.7696229 Z M1.92943548,22.1168518 C1.69732858,21.0147857 1.61151716,19.8356629 1.67389113,18.6122895 C1.77368952,16.6511535 2.12298387,14.9971008 2.56376013,14.3985748 C2.65524194,14.2742157 2.70211694,14.245224 2.73991935,14.245224 C2.75504032,14.245224 2.76902719,14.2501831 2.78377016,14.2551422 C2.90625,14.2971039 3.02986394,14.3211365 3.15158768,14.3310547 C3.19808468,15.2202606 3.29107858,16.2387848 3.47631048,17.0078277 C3.55682961,17.3427582 3.85357858,17.5674438 4.18094758,17.5674438 C4.23727316,17.5674438 4.29511084,17.5605773 4.35257052,17.546463 C4.74231348,17.4510956 4.98122477,17.05513 4.88671877,16.6618348 C4.52646174,15.164566 4.55897177,12.3893738 4.55934977,12.3615265 C4.55972787,12.3573303 4.55897177,12.3527527 4.55897177,12.3485565 C4.59639619,11.2525939 4.8273689,10.9138488 5.68813006,10.3199005 C6.26915323,9.91897578 6.92842742,9.60311895 7.65725806,9.37232969 C8.40877016,11.4536285 10.2890625,13.1320953 12.1205897,14.3447876 C11.6333166,14.59198 11.1479334,14.7937774 10.7733115,14.9490356 L10.7067793,14.9765015 C8.73613916,15.7932281 7.00176406,17.061615 5.69191026,18.6447144 C4.14276716,20.5173492 3.43397177,22.5841522 2.92401716,24.4239807 C2.40763606,23.6366271 2.09652213,22.9110718 1.92943548,22.1168518 Z M17.6034526,37.2444152 C15.9238911,37.9203797 14.0738408,37.9203797 12.3942793,37.2444152 C9.42792339,36.0507965 7.16242442,34.0129853 5.66166832,31.187439 C4.81716232,29.5986176 4.22328629,27.7893066 3.88533271,25.7923126 C4.03881048,25.6370545 4.15372984,25.4405976 4.21421371,25.2155304 C4.8266129,22.9331971 5.47379032,21.1948395 6.80632558,19.5838928 C7.96572581,18.1827545 9.50504032,17.0581817 11.2583166,16.3314819 L11.3244707,16.3043976 C11.9633317,16.0396576 12.7949849,15.694809 13.5589718,15.2179718 C15.0733366,16.0614014 16.3041834,16.5313721 16.4455645,16.5843964 C18.9594254,17.5289154 22.3888608,19.2810059 24.4483366,22.2621918 C25.6697328,24.0303039 25.8337954,25.4188537 25.8349295,25.428772 C25.8375756,25.4581451 25.8424899,25.4875184 25.8489164,25.51651 C25.8973035,25.7347107 25.9782006,25.9002686 26.0719506,26.0265351 C25.7275705,27.9308319 25.1473035,29.6607971 24.3364415,31.187439 C22.8353075,34.0129853 20.5701865,36.0507965 17.6034526,37.2444152 Z" id="Shape"></path>
                                    <path d="M29.9928175,35.3187561 L29.7716734,32.5813293 C29.7520161,32.3337555 29.609123,32.1136475 29.3925151,31.9957733 C29.1762853,31.8782807 28.9154486,31.8790436 28.6995968,31.9984436 L26.1645666,33.4003448 C25.812626,33.5945129 25.6840978,34.0396881 25.8765121,34.394455 C26.0693044,34.7492218 26.5104586,34.8793029 26.8620212,34.6847534 L27.1667086,34.5165253 C25.9260333,36.6012573 24.3912551,37.543869 24.359123,37.563324 C24.0139869,37.7674103 23.8975554,38.2148742 24.0990424,38.563919 C24.233997,38.7973785 24.4770666,38.9278412 24.7269405,38.9278412 C24.8509325,38.9278412 24.9768145,38.8954162 25.0913559,38.8278961 C25.187374,38.7718201 27.0650202,37.6426697 28.5181452,35.0914002 L28.5461189,35.4377746 C28.5771169,35.8207703 28.8946573,36.1106873 29.2689012,36.1106873 C29.2885585,36.1106873 29.3085938,36.1099243 29.328629,36.1083984 C29.7282006,36.075592 30.0257056,35.7219696 29.9928175,35.3187561 L29.9928175,35.3187561 Z" id="Path"></path>
                                    <path d="M1.44934471,35.4377746 L1.47731855,35.0914002 C2.93006555,37.6430512 4.80808974,38.7718201 4.90372984,38.8282775 C5.01864919,38.8954162 5.14453123,38.9278412 5.26852316,38.9278412 C5.51839723,38.9278412 5.76146671,38.7973785 5.89642142,38.563919 C6.09790829,38.2144928 5.98072074,37.7658844 5.63445058,37.5621796 C5.61517142,37.551117 4.07434471,36.6241455 2.82497477,34.5142364 L3.13344252,34.6851349 C3.48500506,34.8793029 3.92615923,34.7492218 4.11895161,34.3948364 C4.3113659,34.0400695 4.18283768,33.5948944 3.83127523,33.4003448 L1.29586694,31.9984436 C1.0803931,31.8790436 0.819556452,31.8782807 0.602948613,31.9957733 C0.386340774,32.1136475 0.243447581,32.3337555 0.223790323,32.5813293 L0.00264617419,35.3191376 C-0.0298639355,35.7219696 0.267263129,36.075592 0.666834677,36.1083984 C0.687247935,36.1099243 0.70690529,36.1110688 0.726940548,36.1110688 C1.10080645,36.1110688 1.41834677,35.8207703 1.44934471,35.4377746 L1.44934471,35.4377746 Z" id="Path"></path>
                                </g>
                            </g>
                        </g>
                    </g>
                </g>
            </g>
        </g>
    </g>
</svg>