<svg id="Слой_1" data-name="Слой 1" xmlns="http://www.w3.org/2000/svg" width="102" height="102" viewBox="0 0 102 102">
  <title>a16-2</title>
  <g id="Design">
    <g id="cpa-97_design" data-name="cpa-97 design">
      <g id="_-art16" data-name="✅-art16">
        <g id="content">
          <g id="_2" data-name="2">
            <g id="a16-2">
              <circle id="Oval" cx="51" cy="51" r="51" style="fill: #daf7ff"/>
              <g id="customer-service">
                <path id="Path" d="M54.46,33.1a.89.89,0,1,0,.88.89A.89.89,0,0,0,54.46,33.1Z"/>
                <path id="Path-2" data-name="Path" d="M47.53,33.1a.89.89,0,1,0,.88.89A.89.89,0,0,0,47.53,33.1Z"/>
                <path id="Shape" d="M59.56,44.57a2.88,2.88,0,0,0,.32-1.33V37.67H61.6a1.6,1.6,0,0,0,1.17-.51,4.69,4.69,0,0,0,0-9.38,1.6,1.6,0,0,0-1.07-.51A10.77,10.77,0,0,0,51,17h0A10.76,10.76,0,0,0,40.3,27.27a1.6,1.6,0,0,0-1.07.51,4.69,4.69,0,0,0,0,9.38,1.6,1.6,0,0,0,1.17.51h1.7v5.57a2.88,2.88,0,0,0,.32,1.33,9,9,0,0,0-8.35,9v2.67a.78.78,0,0,0,.77.78h32.3a.78.78,0,0,0,.77-.78V53.55A9,9,0,0,0,59.56,44.57Zm3.65-15.19a3.14,3.14,0,0,1,0,6.17ZM38.79,35.55a3.14,3.14,0,0,1,0-6.17Zm22.81.56H59.92l0,0a.79.79,0,0,0,0-.11V28.9a.07.07,0,0,1,.07-.07H61.6ZM42.15,29.65V36a.07.07,0,0,1-.07.07H40.4a.07.07,0,0,1-.07-.07V28.9a.07.07,0,0,1,.07-.07h1.68a.07.07,0,0,1,.07.07Zm-.07-2.38h-.23A9.21,9.21,0,0,1,51,18.56h0a9.21,9.21,0,0,1,9.14,8.7h-.23a1.59,1.59,0,0,0-.37,0,8.82,8.82,0,0,0-17.08,0A1.59,1.59,0,0,0,42.08,27.27ZM51,41.93a7.35,7.35,0,0,1-7.3-7.37V31.27h4.42A8.82,8.82,0,0,0,54,29.08a5.16,5.16,0,0,0,4.2,2.19h.14v3.28a7.39,7.39,0,0,1-.65,3,1.66,1.66,0,0,1-1,.33H54.53a2.32,2.32,0,0,0-2.19-1.56h-.62a2.34,2.34,0,0,0,0,4.69h.62a2.32,2.32,0,0,0,2.19-1.56h1.9A7.26,7.26,0,0,1,51,41.93ZM53.8,43v3.45a2.8,2.8,0,1,1-5.61,0V43a8.78,8.78,0,0,0,5.61,0Zm-7.15-.7v2.22h-1.7a1.31,1.31,0,0,1-1.3-1.31V39.52A9,9,0,0,0,46.65,42.33Zm9-16.06a.77.77,0,0,0-1.09,0l-1.22,1.24a7.31,7.31,0,0,1-5.24,2.2H43.7v-.06a7.3,7.3,0,1,1,14.61,0v.06h-.14A3.61,3.61,0,0,1,55.08,28l.59-.59A.79.79,0,0,0,55.67,26.27ZM53.11,38.7a.78.78,0,0,1-.77.78h-.62a.78.78,0,0,1,0-1.56h.62A.78.78,0,0,1,53.11,38.7Zm2.24,3.63a9,9,0,0,0,3-2.79v3.71A1.31,1.31,0,0,1,57,44.56H55.35Zm7.19,13.1V51.6a.77.77,0,1,0-1.55,0v3.84H41V53.91a.77.77,0,1,0-1.55,0v1.53H35.62V53.55A7.4,7.4,0,0,1,43,46.12h3.68v.37a4.35,4.35,0,1,0,8.7,0v-.37H59a7.4,7.4,0,0,1,7.35,7.43v1.89Z"/>
                <path id="Path-3" data-name="Path" d="M40.78,50.35a.77.77,0,0,0-1.09,0,.79.79,0,0,0,0,1.1.77.77,0,0,0,1.09,0,.79.79,0,0,0,0-1.1Z"/>
              </g>
            </g>
          </g>
        </g>
      </g>
    </g>
  </g>
</svg>
