<svg id="Слой_1" data-name="Слой 1" xmlns="http://www.w3.org/2000/svg" width="102" height="102" viewBox="0 0 102 102">
  <title>a16-3</title>
  <g id="Design">
    <g id="cpa-97_design" data-name="cpa-97 design">
      <g id="_-art16" data-name="✅-art16">
        <g id="content">
          <g id="_3" data-name="3">
            <g id="a16-3">
              <circle id="Oval" cx="51" cy="51" r="51" style="fill: #daf7ff"/>
              <g id="delivery">
                <path id="Shape" d="M71.76,42.48l-3.35-3.37h0l-4-4a.82.82,0,0,0-.58-.24H59.53V30.6a3,3,0,0,0-2.94-3H54.77V20.83A.82.82,0,0,0,54,20H35.58a.82.82,0,0,0-.82.83v6.81H32.94a3,3,0,0,0-2.94,3V55.2a.82.82,0,0,0,.82.83h3.64c0,.05,0,.11,0,.17a3.8,3.8,0,0,0,.66,2.15H30.82a.83.83,0,0,0,0,1.65H43.7a.83.83,0,0,0,0-1.65H41.34a3.78,3.78,0,1,0-6.42-4H31.64V51.57H70.36v2.81H65.47a3.76,3.76,0,0,0-6.63,0H45.23a.83.83,0,0,0,0,1.65H58.39c0,.05,0,.11,0,.17A3.8,3.8,0,0,0,59,58.34H53.8a.83.83,0,0,0,0,1.65H67.65a.83.83,0,0,0,0-1.65H65.27a3.8,3.8,0,0,0,.66-2.15c0-.06,0-.11,0-.17h5.25A.82.82,0,0,0,72,55.2V43.06A.83.83,0,0,0,71.76,42.48ZM38.23,54a2.15,2.15,0,1,1-2.13,2.15A2.14,2.14,0,0,1,38.23,54ZM36.4,21.66H53.13V38.51a1.81,1.81,0,0,1-1.8,1.82H38.2a1.81,1.81,0,0,1-1.8-1.82ZM57.89,49.85H31.64V30.6a1.3,1.3,0,0,1,1.3-1.31h1.82v9.23A3.46,3.46,0,0,0,38.2,42H51.33a3.46,3.46,0,0,0,3.45-3.47V29.29h1.82a1.3,1.3,0,0,1,1.3,1.31Zm4.27,8.5h0a2.15,2.15,0,1,1,2.13-2.15A2.14,2.14,0,0,1,62.15,58.34Zm1.35-21.81h0l3.13,3.16-3.06,3.09a1.57,1.57,0,0,1-.1-.54Zm6.85,13.31H59.53V36.53h2.34v5.7a3.22,3.22,0,0,0,3.2,3.23h5.29Zm0-6H64.92l2.92-2.94,2.53,2.54Z"/>
                <path id="Path" d="M51,58.34h0A.83.83,0,0,0,51,60h0a.83.83,0,0,0,0-1.65Z"/>
                <path id="Path-2" data-name="Path" d="M48.7,24a.82.82,0,0,0-.82.83v2.76a3.12,3.12,0,1,1-6.23,0V24.85a.82.82,0,1,0-1.64,0v2.76a4.76,4.76,0,1,0,9.52,0V24.85A.82.82,0,0,0,48.7,24Z"/>
                <path id="Path-3" data-name="Path" d="M50.07,44.3H40.34a.83.83,0,0,0,0,1.65h9.74a.83.83,0,0,0,0-1.65Z"/>
                <path id="Path-4" data-name="Path" d="M37.78,44.54a.82.82,0,0,0-1.16,0,.83.83,0,0,0,0,1.17.82.82,0,0,0,1.16,0,.83.83,0,0,0,0-1.17Z"/>
              </g>
            </g>
          </g>
        </g>
      </g>
    </g>
  </g>
</svg>
