<svg id="Слой_1" data-name="Слой 1" xmlns="http://www.w3.org/2000/svg" width="107.7" height="102" viewBox="0 0 107.7 102">
  <title>a2-1</title>
  <g id="Design">
    <g id="cpa-97_design" data-name="cpa-97 design">
      <g id="_-art2" data-name="✅-art2">
        <g id="content">
          <g id="_1" data-name="1">
            <g id="a2-1">
              <circle id="Oval" cx="56.51" cy="51" r="51" style="fill: #daf7ff"/>
              <path id="_63_" data-name="63%" d="M16.21,33.62a15,15,0,0,1,10.62,4.23A14,14,0,0,1,30.91,48.2a14,14,0,0,1-4.26,10.53,15.16,15.16,0,0,1-11,4.11,15.12,15.12,0,0,1-11-4.08A14,14,0,0,1,.49,48.2,14.81,14.81,0,0,1,3,39.74L16,20h9.48ZM10.69,53.18a7,7,0,0,0,5,1.86,7.09,7.09,0,0,0,5-1.86,6.46,6.46,0,0,0,2-5,6.39,6.39,0,0,0-2-4.92,7.09,7.09,0,0,0-5-1.86,7.05,7.05,0,0,0-5,1.83,6.41,6.41,0,0,0-2,5A6.51,6.51,0,0,0,10.69,53.18ZM53.47,37a14.08,14.08,0,0,1,6.93,4.41A11.35,11.35,0,0,1,63.07,49q0,6.48-4.35,10.14a16,16,0,0,1-10.65,3.66,17.16,17.16,0,0,1-8.79-2.25A12.94,12.94,0,0,1,33.67,54l7.08-4.08q1.56,4.86,7.32,4.86a7.33,7.33,0,0,0,5-1.53,5.76,5.76,0,0,0,0-8.31,7.24,7.24,0,0,0-5-1.56h-1.8l-3.18-4.8,8.28-10.8H34.93V20h26.4v6.84ZM85,36.14a10.56,10.56,0,0,1-14.43-.06,9.5,9.5,0,0,1-2.91-7,9.5,9.5,0,0,1,2.91-7A10.52,10.52,0,0,1,85,22a9.52,9.52,0,0,1,2.88,7A9.62,9.62,0,0,1,85,36.14ZM71.95,55.64,99.31,25.22l3.66,2L75.55,57.74Zm3.12-23.82a3.66,3.66,0,0,0,2.7,1.08,3.61,3.61,0,0,0,2.7-1.11,3.76,3.76,0,0,0,1.08-2.73,3.69,3.69,0,0,0-3.78-3.78,3.56,3.56,0,0,0-2.67,1.08,3.72,3.72,0,0,0-1,2.7A4,4,0,0,0,75.07,31.82Zm30.24,28a10.44,10.44,0,0,1-14.4,0,10,10,0,0,1,0-14,10.44,10.44,0,0,1,14.4,0,10,10,0,0,1,0,14Zm-9.9-4.26a3.66,3.66,0,0,0,2.7,1.08,3.47,3.47,0,0,0,2.67-1.14,4,4,0,0,0,0-5.43,3.77,3.77,0,0,0-5.34,0,3.82,3.82,0,0,0-1.05,2.73A4,4,0,0,0,95.41,55.58Z" transform="translate(-0.49)"/>
            </g>
          </g>
        </g>
      </g>
    </g>
  </g>
</svg>
