<svg id="Слой_1" data-name="Слой 1" xmlns="http://www.w3.org/2000/svg" width="102" height="102" viewBox="0 0 102 102">
  <title>a2-3</title>
  <g id="Design">
    <g id="cpa-97_design" data-name="cpa-97 design">
      <g id="_-art2" data-name="✅-art2">
        <g id="content">
          <g id="_3" data-name="3">
            <g id="a2-3">
              <circle id="Oval" cx="51" cy="51" r="51" style="fill: #daf7ff"/>
              <path id="_3_" data-name="3%" d="M30.88,37a14.08,14.08,0,0,1,6.93,4.41A11.35,11.35,0,0,1,40.48,49q0,6.48-4.35,10.14a16,16,0,0,1-10.65,3.66,17.16,17.16,0,0,1-8.79-2.25A12.94,12.94,0,0,1,11.08,54l7.08-4.08q1.56,4.86,7.32,4.86a7.33,7.33,0,0,0,5-1.53,5.76,5.76,0,0,0,0-8.31,7.24,7.24,0,0,0-5-1.56h-1.8l-3.18-4.8,8.28-10.8H12.34V20h26.4v6.84Zm31.56-.9A10.56,10.56,0,0,1,48,36.08a9.5,9.5,0,0,1-2.91-7A9.5,9.5,0,0,1,48,22a10.52,10.52,0,0,1,14.43,0,9.52,9.52,0,0,1,2.88,7A9.62,9.62,0,0,1,62.44,36.14ZM49.36,55.64,76.72,25.22l3.66,2L53,57.74Zm3.12-23.82a3.66,3.66,0,0,0,2.7,1.08,3.61,3.61,0,0,0,2.7-1.11A3.76,3.76,0,0,0,59,29.06a3.69,3.69,0,0,0-3.78-3.78,3.56,3.56,0,0,0-2.67,1.08,3.72,3.72,0,0,0-1,2.7A4,4,0,0,0,52.48,31.82Zm30.24,28a10.44,10.44,0,0,1-14.4,0,10,10,0,0,1,0-14,10.44,10.44,0,0,1,14.4,0,10,10,0,0,1,0,14Zm-9.9-4.26a3.66,3.66,0,0,0,2.7,1.08,3.47,3.47,0,0,0,2.67-1.14,4,4,0,0,0,0-5.43,3.77,3.77,0,0,0-5.34,0,3.82,3.82,0,0,0-1,2.73A4,4,0,0,0,72.82,55.58Z"/>
            </g>
          </g>
        </g>
      </g>
    </g>
  </g>
</svg>
