<svg id="Слой_1" data-name="Слой 1" xmlns="http://www.w3.org/2000/svg" width="102" height="102" viewBox="0 0 102 102">
  <title>a2-4</title>
  <g id="Design">
    <g id="cpa-97_design" data-name="cpa-97 design">
      <g id="_-art2" data-name="✅-art2">
        <g id="content">
          <g id="_4" data-name="4">
            <g id="a2-4">
              <circle id="Oval" cx="51" cy="51" r="51" style="fill: #daf7ff"/>
              <path id="_6_" data-name="6%" d="M26.56,33.62a15,15,0,0,1,10.62,4.23A14,14,0,0,1,41.26,48.2,14,14,0,0,1,37,58.73a15.16,15.16,0,0,1-11,4.11,15.12,15.12,0,0,1-11-4.08A14,14,0,0,1,10.84,48.2a14.81,14.81,0,0,1,2.46-8.46L26.38,20h9.48ZM21,53.18A7,7,0,0,0,26,55a7.09,7.09,0,0,0,5-1.86,6.46,6.46,0,0,0,2-5,6.39,6.39,0,0,0-2-4.92,7.09,7.09,0,0,0-5-1.86,7.05,7.05,0,0,0-5,1.83,6.41,6.41,0,0,0-2,5A6.51,6.51,0,0,0,21,53.18Zm41.64-17a10.56,10.56,0,0,1-14.43-.06,9.5,9.5,0,0,1-2.91-7,9.5,9.5,0,0,1,2.91-7,10.52,10.52,0,0,1,14.43,0,9.52,9.52,0,0,1,2.88,7A9.62,9.62,0,0,1,62.68,36.14ZM49.6,55.64,77,25.22l3.66,2L53.2,57.74Zm3.12-23.82a3.66,3.66,0,0,0,2.7,1.08,3.61,3.61,0,0,0,2.7-1.11,3.76,3.76,0,0,0,1.08-2.73,3.69,3.69,0,0,0-3.78-3.78,3.56,3.56,0,0,0-2.67,1.08,3.72,3.72,0,0,0-1,2.7A4,4,0,0,0,52.72,31.82ZM83,59.84a10.44,10.44,0,0,1-14.4,0,10,10,0,0,1,0-14,10.44,10.44,0,0,1,14.4,0,10,10,0,0,1,0,14Zm-9.9-4.26a3.66,3.66,0,0,0,2.7,1.08,3.47,3.47,0,0,0,2.67-1.14,4,4,0,0,0,0-5.43,3.77,3.77,0,0,0-5.34,0,3.82,3.82,0,0,0-1,2.73A4,4,0,0,0,73.06,55.58Z"/>
            </g>
          </g>
        </g>
      </g>
    </g>
  </g>
</svg>
