<?xml version="1.0" encoding="UTF-8"?>
<svg width="210px" height="80px" viewBox="0 0 210 80" version="1.1" xmlns="http://www.w3.org/2000/svg" xmlns:xlink="http://www.w3.org/1999/xlink">
    <!-- Generator: Sketch 54.1 (76490) - https://sketchapp.com -->
    <title>label-2</title>
    <desc>Created with Sketch.</desc>
    <defs>
        <linearGradient x1="76.260693%" y1="11.2327284%" x2="22.3691856%" y2="89.6824494%" id="linearGradient-1">
            <stop stop-color="#FAE857" offset="0%"></stop>
            <stop stop-color="#F2CD2C" offset="100%"></stop>
        </linearGradient>
        <rect id="path-2" x="0" y="0" width="80" height="80" rx="40"></rect>
    </defs>
    <g id="Design" stroke="none" stroke-width="1" fill="none" fill-rule="evenodd">
        <g id="cpa-97_design" transform="translate(-374.000000, -122.000000)">
            <g id="header" transform="translate(-178.000000, -16.000000)">
                <g id="label-2" transform="translate(552.000000, 138.000000)">
                    <g id="Group-6">
                        <g id="Rectangle-4">
                            <mask id="mask-3" fill="white">
                                <use xlink:href="#path-2"></use>
                            </mask>
                            <use id="Rectangle" fill="url(#linearGradient-1)" xlink:href="#path-2"></use>
                        </g>
                        <path d="M25.22,36 L25.22,33.44 C26.0466708,33.5600006 26.6666646,33.3933356 27.08,32.94 C27.4933354,32.4866644 27.7,31.6000066 27.7,30.28 L27.7,22 L37.22,22 L37.22,36 L34.48,36 L34.48,24.64 L30.44,24.64 L30.44,30.2 C30.44,31.4133394 30.2933348,32.4333292 30,33.26 C29.7066652,34.0866708 29.3033359,34.699998 28.79,35.1 C28.2766641,35.500002 27.7300029,35.766666 27.15,35.9 C26.5699971,36.033334 25.9266702,36.066667 25.22,36 Z M46.92,26 L48.84,26 L48.84,36 L46.32,36 L46.32,30.32 L41.62,36 L39.7,36 L39.7,26 L42.22,26 L42.22,31.68 L46.92,26 Z M62.92,26 L65.5,26 L65.5,36 L51.2,36 L51.2,26 L53.78,26 L53.78,33.58 L57.06,33.58 L57.06,26 L59.64,26 L59.64,33.58 L62.92,33.58 L62.92,26 Z M74.42,26 L77,26 L77,36 L74.42,36 L74.42,32.2 L70.44,32.2 L70.44,36 L67.86,36 L67.86,26 L70.44,26 L70.44,29.78 L74.42,29.78 L74.42,26 Z M86.58,26 L88.5,26 L88.5,36 L85.98,36 L85.98,30.32 L81.28,36 L79.36,36 L79.36,26 L81.88,26 L81.88,31.68 L86.58,26 Z M92.54,24.72 L92.54,22.48 L98.34,22.48 L98.34,24.72 L92.54,24.72 Z M98.08,26 L100,26 L100,36 L97.48,36 L97.48,30.32 L92.78,36 L90.86,36 L90.86,26 L93.38,26 L93.38,31.68 L98.08,26 Z M114.56,30.88 C115.493338,31.3333356 115.96,32.093328 115.96,33.16 C115.96,34.0000042 115.670003,34.6833307 115.09,35.21 C114.509997,35.7366693 113.686672,36 112.62,36 L107.36,36 L107.36,26 L112.22,26 C113.273339,26 114.089997,26.2599974 114.67,26.78 C115.250003,27.3000026 115.54,27.9799958 115.54,28.82 C115.54,29.7000044 115.213337,30.3866642 114.56,30.88 Z M111.98,28.12 L109.78,28.12 L109.78,29.92 L111.98,29.92 C112.713337,29.92 113.08,29.620003 113.08,29.02 C113.08,28.419997 112.713337,28.12 111.98,28.12 Z M112.32,33.82 C113.06667,33.82 113.44,33.5000032 113.44,32.86 C113.44,32.5799986 113.340001,32.3600008 113.14,32.2 C112.939999,32.0399992 112.666668,31.96 112.32,31.96 L109.78,31.96 L109.78,33.82 L112.32,33.82 Z M119.76,32.06 C120.106668,33.3133396 121.046659,33.94 122.58,33.94 C123.566672,33.94 124.313331,33.60667 124.82,32.94 L126.9,34.14 C125.913328,35.5666738 124.46001,36.28 122.54,36.28 C120.886658,36.28 119.560005,35.780005 118.56,34.78 C117.559995,33.779995 117.06,32.5200076 117.06,31 C117.06,29.4933258 117.553328,28.2366717 118.54,27.23 C119.526672,26.2233283 120.793326,25.72 122.34,25.72 C123.806674,25.72 125.016662,26.2266616 125.97,27.24 C126.923338,28.2533384 127.4,29.5066592 127.4,31 C127.4,31.333335 127.366667,31.6866648 127.3,32.06 L119.76,32.06 Z M119.72,30.06 L124.82,30.06 C124.673333,29.3799966 124.370002,28.873335 123.91,28.54 C123.449998,28.206665 122.92667,28.04 122.34,28.04 C121.646663,28.04 121.073336,28.2166649 120.62,28.57 C120.166664,28.9233351 119.866667,29.4199968 119.72,30.06 Z M133.96,36.28 C132.453326,36.28 131.196672,35.7733384 130.19,34.76 C129.183328,33.7466616 128.68,32.4933408 128.68,31 C128.68,29.5066592 129.183328,28.2533384 130.19,27.24 C131.196672,26.2266616 132.453326,25.72 133.96,25.72 C134.933338,25.72 135.819996,25.953331 136.62,26.42 C137.420004,26.886669 138.026665,27.5133294 138.44,28.3 L136.22,29.6 C136.019999,29.1866646 135.716669,28.8600012 135.31,28.62 C134.903331,28.3799988 134.446669,28.26 133.94,28.26 C133.166663,28.26 132.526669,28.5166641 132.02,29.03 C131.513331,29.5433359 131.26,30.199996 131.26,31 C131.26,31.7866706 131.513331,32.4366641 132.02,32.95 C132.526669,33.4633359 133.166663,33.72 133.94,33.72 C134.460003,33.72 134.923331,33.6033345 135.33,33.37 C135.736669,33.1366655 136.039999,32.8133354 136.24,32.4 L138.48,33.68 C138.039998,34.4666706 137.420004,35.0966643 136.62,35.57 C135.819996,36.0433357 134.933338,36.28 133.96,36.28 Z M151.44,26 L154.2,26 L150.56,36 C149.546662,38.8133474 147.786679,40.1466674 145.28,40 L145.28,37.6 C145.960003,37.6133334 146.496665,37.486668 146.89,37.22 C147.283335,36.953332 147.599999,36.5066698 147.84,35.88 L143.8,26 L146.54,26 L149.22,32.72 L151.44,26 Z M164.64,36 L161.66,36 L159.5,32.96 L157.32,36 L154.34,36 L158,30.9 L154.5,26 L157.48,26 L159.5,28.82 L161.52,26 L164.48,26 L160.98,30.88 L164.64,36 Z M174.44,34.76 C173.413328,35.7733384 172.160007,36.28 170.68,36.28 C169.199993,36.28 167.950005,35.7700051 166.93,34.75 C165.909995,33.7299949 165.4,32.4800074 165.4,31 C165.4,29.5199926 165.909995,28.2700051 166.93,27.25 C167.950005,26.2299949 169.199993,25.72 170.68,25.72 C172.160007,25.72 173.413328,26.2299949 174.44,27.25 C175.466672,28.2700051 175.98,29.5199926 175.98,31 C175.98,32.4800074 175.466672,33.7333282 174.44,34.76 Z M168.74,32.98 C169.260003,33.5000026 169.906663,33.76 170.68,33.76 C171.453337,33.76 172.099997,33.5000026 172.62,32.98 C173.140003,32.4599974 173.4,31.800004 173.4,31 C173.4,30.199996 173.140003,29.5400026 172.62,29.02 C172.099997,28.4999974 171.453337,28.24 170.68,28.24 C169.906663,28.24 169.263336,28.4999974 168.75,29.02 C168.236664,29.5400026 167.98,30.199996 167.98,31 C167.98,31.800004 168.233331,32.4599974 168.74,32.98 Z M186.8,33.58 L188.12,33.58 L188.12,38.68 L185.6,38.68 L185.6,36 L179.4,36 L179.4,38.68 L176.88,38.68 L176.88,33.58 L178.1,33.58 C178.673336,32.7266624 178.96,31.5466742 178.96,30.04 L178.96,26 L186.8,26 L186.8,33.58 Z M180.86,33.58 L184.28,33.58 L184.28,28.32 L181.48,28.32 L181.48,30.04 C181.48,31.4533404 181.273335,32.6333286 180.86,33.58 Z M196.98,26 L198.9,26 L198.9,36 L196.38,36 L196.38,30.32 L191.68,36 L189.76,36 L189.76,26 L192.28,26 L192.28,31.68 L196.98,26 Z M209.14,26 L209.14,28.48 L206.02,28.48 L206.02,36 L203.44,36 L203.44,28.48 L200.28,28.48 L200.28,26 L209.14,26 Z M33.78,50 L36.36,50 L36.36,60 L33.78,60 L33.78,58.82 C33.0066628,59.7933382 31.920007,60.28 30.52,60.28 C29.18666,60.28 28.0433381,59.7700051 27.09,58.75 C26.1366619,57.7299949 25.66,56.4800074 25.66,55 C25.66,53.5199926 26.1366619,52.2700051 27.09,51.25 C28.0433381,50.2299949 29.18666,49.72 30.52,49.72 C31.920007,49.72 33.0066628,50.2066618 33.78,51.18 L33.78,50 Z M29.02,57.04 C29.5400026,57.5600026 30.199996,57.82 31,57.82 C31.800004,57.82 32.4633307,57.5566693 32.99,57.03 C33.5166693,56.5033307 33.78,55.8266708 33.78,55 C33.78,54.1733292 33.5166693,53.4966693 32.99,52.97 C32.4633307,52.4433307 31.800004,52.18 31,52.18 C30.199996,52.18 29.5400026,52.4433307 29.02,52.97 C28.4999974,53.4966693 28.24,54.1733292 28.24,55 C28.24,55.8266708 28.4999974,56.506664 29.02,57.04 Z M45.9,54.88 C46.833338,55.3333356 47.3,56.093328 47.3,57.16 C47.3,58.0000042 47.0100029,58.6833307 46.43,59.21 C45.8499971,59.7366693 45.026672,60 43.96,60 L38.7,60 L38.7,50 L43.56,50 C44.6133386,50 45.4299971,50.2599974 46.01,50.78 C46.5900029,51.3000026 46.88,51.9799958 46.88,52.82 C46.88,53.7000044 46.5533366,54.3866642 45.9,54.88 Z M43.32,52.12 L41.12,52.12 L41.12,53.92 L43.32,53.92 C44.053337,53.92 44.42,53.620003 44.42,53.02 C44.42,52.419997 44.053337,52.12 43.32,52.12 Z M43.66,57.82 C44.4066704,57.82 44.78,57.5000032 44.78,56.86 C44.78,56.5799986 44.680001,56.3600008 44.48,56.2 C44.279999,56.0399992 44.0066684,55.96 43.66,55.96 L41.12,55.96 L41.12,57.82 L43.66,57.82 Z M56.8,50 L56.8,52.48 L53.68,52.48 L53.68,60 L51.1,60 L51.1,52.48 L47.94,52.48 L47.94,50 L56.8,50 Z M66.7,58.76 C65.6733282,59.7733384 64.4200074,60.28 62.94,60.28 C61.4599926,60.28 60.2100051,59.7700051 59.19,58.75 C58.1699949,57.7299949 57.66,56.4800074 57.66,55 C57.66,53.5199926 58.1699949,52.2700051 59.19,51.25 C60.2100051,50.2299949 61.4599926,49.72 62.94,49.72 C64.4200074,49.72 65.6733282,50.2299949 66.7,51.25 C67.7266718,52.2700051 68.24,53.5199926 68.24,55 C68.24,56.4800074 67.7266718,57.7333282 66.7,58.76 Z M61,56.98 C61.5200026,57.5000026 62.1666628,57.76 62.94,57.76 C63.7133372,57.76 64.3599974,57.5000026 64.88,56.98 C65.4000026,56.4599974 65.66,55.800004 65.66,55 C65.66,54.199996 65.4000026,53.5400026 64.88,53.02 C64.3599974,52.4999974 63.7133372,52.24 62.94,52.24 C62.1666628,52.24 61.5233359,52.4999974 61.01,53.02 C60.4966641,53.5400026 60.24,54.199996 60.24,55 C60.24,55.800004 60.4933308,56.4599974 61,56.98 Z M80.46,50 L80.46,60 L77.96,60 L77.96,54.16 L75.42,58.16 L75.1,58.16 L72.54,54.12 L72.54,60 L70.06,60 L70.06,50 L72.6,50 L75.26,54.2 L77.92,50 L80.46,50 Z M90.42,50 L93,50 L93,60 L90.42,60 L90.42,58.82 C89.6466628,59.7933382 88.560007,60.28 87.16,60.28 C85.82666,60.28 84.6833381,59.7700051 83.73,58.75 C82.7766619,57.7299949 82.3,56.4800074 82.3,55 C82.3,53.5199926 82.7766619,52.2700051 83.73,51.25 C84.6833381,50.2299949 85.82666,49.72 87.16,49.72 C88.560007,49.72 89.6466628,50.2066618 90.42,51.18 L90.42,50 Z M85.66,57.04 C86.1800026,57.5600026 86.839996,57.82 87.64,57.82 C88.440004,57.82 89.1033307,57.5566693 89.63,57.03 C90.1566693,56.5033307 90.42,55.8266708 90.42,55 C90.42,54.1733292 90.1566693,53.4966693 89.63,52.97 C89.1033307,52.4433307 88.440004,52.18 87.64,52.18 C86.839996,52.18 86.1800026,52.4433307 85.66,52.97 C85.1399974,53.4966693 84.88,54.1733292 84.88,55 C84.88,55.8266708 85.1399974,56.506664 85.66,57.04 Z M103.22,50 L103.22,52.48 L100.1,52.48 L100.1,60 L97.52,60 L97.52,52.48 L94.36,52.48 L94.36,50 L103.22,50 Z M111.82,50 L113.74,50 L113.74,60 L111.22,60 L111.22,54.32 L106.52,60 L104.6,60 L104.6,50 L107.12,50 L107.12,55.68 L111.82,50 Z M122,50 L124.58,50 L124.58,60 L122,60 L122,56.82 C121.25333,57.0600012 120.460004,57.18 119.62,57.18 C118.406661,57.18 117.43667,56.8733364 116.71,56.26 C115.98333,55.6466636 115.62,54.7533392 115.62,53.58 L115.62,50 L118.2,50 L118.2,53.28 C118.2,54.280005 118.819994,54.78 120.06,54.78 C120.780004,54.78 121.426664,54.6533346 122,54.4 L122,50 Z M129.1,56.06 C129.446668,57.3133396 130.386659,57.94 131.92,57.94 C132.906672,57.94 133.653331,57.60667 134.16,56.94 L136.24,58.14 C135.253328,59.5666738 133.80001,60.28 131.88,60.28 C130.226658,60.28 128.900005,59.780005 127.9,58.78 C126.899995,57.779995 126.4,56.5200076 126.4,55 C126.4,53.4933258 126.893328,52.2366717 127.88,51.23 C128.866672,50.2233283 130.133326,49.72 131.68,49.72 C133.146674,49.72 134.356662,50.2266616 135.31,51.24 C136.263338,52.2533384 136.74,53.5066592 136.74,55 C136.74,55.333335 136.706667,55.6866648 136.64,56.06 L129.1,56.06 Z M129.06,54.06 L134.16,54.06 C134.013333,53.3799966 133.710002,52.873335 133.25,52.54 C132.789998,52.206665 132.26667,52.04 131.68,52.04 C130.986663,52.04 130.413336,52.2166649 129.96,52.57 C129.506664,52.9233351 129.206667,53.4199968 129.06,54.06 Z M143.3,60.28 C141.793326,60.28 140.536672,59.7733384 139.53,58.76 C138.523328,57.7466616 138.02,56.4933408 138.02,55 C138.02,53.5066592 138.523328,52.2533384 139.53,51.24 C140.536672,50.2266616 141.793326,49.72 143.3,49.72 C144.273338,49.72 145.159996,49.953331 145.96,50.42 C146.760004,50.886669 147.366665,51.5133294 147.78,52.3 L145.56,53.6 C145.359999,53.1866646 145.056669,52.8600012 144.65,52.62 C144.243331,52.3799988 143.786669,52.26 143.28,52.26 C142.506663,52.26 141.866669,52.5166641 141.36,53.03 C140.853331,53.5433359 140.6,54.199996 140.6,55 C140.6,55.7866706 140.853331,56.4366641 141.36,56.95 C141.866669,57.4633359 142.506663,57.72 143.28,57.72 C143.800003,57.72 144.263331,57.6033345 144.67,57.37 C145.076669,57.1366655 145.379999,56.8133354 145.58,56.4 L147.82,57.68 C147.379998,58.4666706 146.760004,59.0966643 145.96,59.57 C145.159996,60.0433357 144.273338,60.28 143.3,60.28 Z M158.48,60 L155.48,60 L151.84,55.46 L151.84,60 L149.26,60 L149.26,50 L151.84,50 L151.84,54.4 L155.28,50 L158.36,50 L154.34,54.94 L158.48,60 Z M166.98,50 L168.9,50 L168.9,60 L166.38,60 L166.38,54.32 L161.68,60 L159.76,60 L159.76,50 L162.28,50 L162.28,55.68 L166.98,50 Z" id="Лишнийвесуходитавтоматически" fill="#000000" fill-rule="nonzero"></path>
                    </g>
                </g>
            </g>
        </g>
    </g>
</svg>