<?xml version="1.0" encoding="UTF-8"?>
<svg width="24px" height="24px" viewBox="0 0 24 24" version="1.1" xmlns="http://www.w3.org/2000/svg" xmlns:xlink="http://www.w3.org/1999/xlink">
    <!-- Generator: Sketch 54.1 (76490) - https://sketchapp.com -->
    <title>plus</title>
    <desc>Created with Sketch.</desc>
    <defs>
        <linearGradient x1="76.260693%" y1="11.2327284%" x2="22.3691856%" y2="89.6824494%" id="linearGradient-1">
            <stop stop-color="#FAE857" offset="0%"></stop>
            <stop stop-color="#F2CD2C" offset="100%"></stop>
        </linearGradient>
    </defs>
    <g id="plus" stroke="none" stroke-width="1" fill="none" fill-rule="evenodd">
        <path d="M13.1704878,13.3479024 L13.1704878,22.8685366 C13.1704878,23.2794146 12.7791593,24.1704878 11.9965366,24.1704878 C11.2139138,24.1704878 10.8225854,23.2794634 10.8225854,22.8685366 L10.8225854,13.3479024 L1.30195122,13.3479024 C0.891073171,13.3479024 5.32907052e-15,12.956574 5.32907052e-15,12.1739512 C5.32907052e-15,11.3913285 0.89102439,11 1.30195122,11 L10.8225854,11 L10.8225854,1.47941463 C10.8225854,1.06853659 11.2139138,0.177414634 11.9965366,0.177414634 C12.7791593,0.177414634 13.1704878,1.06853659 13.1704878,1.47931707 L13.1704878,11 L22.6910732,11 C23.1019512,11 23.9930732,11.3913285 23.9930732,12.1739512 C23.9930732,12.956574 23.1019512,13.3479024 22.6911707,13.3479024 L13.1704878,13.3479024 Z" id="Combined-Shape" fill="url(#linearGradient-1)"></path>
    </g>
</svg>