<?xml version="1.0" encoding="UTF-8"?>
<svg width="80px" height="80px" viewBox="0 0 80 80" version="1.1" xmlns="http://www.w3.org/2000/svg" xmlns:xlink="http://www.w3.org/1999/xlink">
    <!-- Generator: Sketch 54.1 (76490) - https://sketchapp.com -->
    <title>a1-1</title>
    <desc>Created with Sketch.</desc>
    <defs>
        <linearGradient x1="76.260693%" y1="11.2327284%" x2="22.3691856%" y2="89.6824494%" id="linearGradient-1">
            <stop stop-color="#FAE857" offset="0%"></stop>
            <stop stop-color="#F2CD2C" offset="100%"></stop>
        </linearGradient>
    </defs>
    <g id="Design" stroke="none" stroke-width="1" fill="none" fill-rule="evenodd">
        <g id="cpa-97_design" transform="translate(-180.000000, -991.000000)">
            <g id="✅-art1" transform="translate(0.000000, 724.000000)">
                <g id="content" transform="translate(160.000000, 267.000000)">
                    <g id="1">
                        <g id="a1-1" transform="translate(20.000000, 0.000000)">
                            <rect id="Rectangle" fill="url(#linearGradient-1)" x="0" y="0" width="80" height="80" rx="6"></rect>
                            <g id="abdominoplasty" transform="translate(16.666667, 14.666667)" fill="#000000" fill-rule="nonzero">
                                <path d="M34.6363419,7.37345375 C34.6541826,7.37467448 34.6720235,7.37548833 34.6894588,7.37548833 C35.0937158,7.37548833 35.4347188,7.06054688 35.462291,6.64957688 C35.4963508,6.14379885 35.5433857,5.63598635 35.6025847,5.13997396 C35.6532689,4.71313479 35.3495694,4.325765 34.9242279,4.27490229 C34.4988864,4.22403969 34.1132813,4.52880854 34.0625971,4.95564781 C34.0001542,5.47810875 33.9506865,6.01277667 33.9150048,6.54459635 C33.8862162,6.97347 34.208973,7.34456375 34.6363419,7.37345375 Z" id="Path"></path>
                                <path d="M35.1293974,3.04646813 C35.1861636,3.0586751 35.2425244,3.06518552 35.2980743,3.06518552 C35.6536744,3.06518552 35.9739983,2.81778969 36.0542821,2.45524083 C36.1637598,1.96044917 36.2878347,1.46850583 36.4236683,0.992838542 C36.5416609,0.579427083 36.3036482,0.148518854 35.8916873,0.030110625 C35.4805373,-0.08748375 35.0507356,0.150553333 34.9327428,0.563964792 C34.7883943,1.06974281 34.65621,1.59261063 34.5402446,2.1179199 C34.4473913,2.5374349 34.7113544,2.95328771 35.1293974,3.04646813 Z" id="Path"></path>
                                <path d="M12.1836623,2.78767906 C11.7648084,2.87638344 11.4967904,3.28938802 11.5851837,3.71012375 C11.6808754,4.16503906 11.769674,4.63500979 11.8491468,5.10620115 C11.9132116,5.48583979 12.2412395,5.75439458 12.612653,5.75439458 C12.6556332,5.75439458 12.6994243,5.75113937 12.7432155,5.74340823 C13.1653132,5.67179365 13.4499555,5.27018229 13.3781866,4.84659833 C13.2954702,4.354655 13.2026167,3.86433917 13.1028703,3.38867188 C13.0140716,2.96793625 12.6025162,2.69938146 12.1836623,2.78767906 Z" id="Path"></path>
                                <path d="M10.8849312,1.08968104 C10.9927872,1.41682938 11.2956757,1.62394208 11.6212708,1.62394208 C11.7015545,1.62394208 11.7838656,1.61092125 11.8645548,1.58406573 C12.2712445,1.44938146 12.491822,1.00911458 12.3576103,0.600992813 L12.3490954,0.575765 C12.2144783,0.167643229 11.7757561,-0.0533040625 11.3694719,0.0809733333 C10.9627821,0.216064479 10.7422046,0.656331354 10.8764163,1.06404625 L10.8849312,1.08968104 Z" id="Path"></path>
                                <path d="M39.3783523,9.55037438 C39.4805315,9.55037438 39.5847382,9.53002927 39.6844846,9.48649083 C40.0781993,9.31640625 40.2594458,8.8586426 40.089958,8.46394854 C38.8946226,5.68074542 38.3358803,3.17179365 38.3821043,0.793457083 C38.3906193,0.363769583 38.0500217,0.00854491667 37.6222473,0 C37.6165707,0 37.611705,0 37.6068394,0 C37.1855526,0 36.8396838,0.338541667 36.8315744,0.762939479 C36.7808902,3.3679199 37.3809908,6.08846031 38.6655302,9.07999677 C38.7920379,9.37418625 39.0778966,9.55037438 39.3783523,9.55037438 Z" id="Path"></path>
                                <path d="M45.2783946,17.6281739 C44.2075395,15.5310058 42.7855446,13.6466471 41.6412988,11.5938314 C41.4324802,11.2186686 40.9601037,11.0843912 40.5862573,11.2943522 C40.212411,11.5039062 40.0786047,11.9779459 40.2878289,12.3535156 C41.4251816,14.3961589 42.8309576,16.2479655 43.8981634,18.3382161 C45.445855,21.3700358 46.0273038,25.1647949 45.4855914,28.470459 C44.5384058,28.0855306 43.4282198,28.4594727 42.9189453,29.3782552 C42.7109375,29.7538249 42.8455546,30.2278646 43.2198065,30.4366048 C43.5936529,30.645345 44.0660294,30.5106608 44.2744426,30.1346843 C44.4094652,29.8909505 44.7172195,29.802653 44.960098,29.9385579 C45.0205135,29.9719239 45.0716032,30.0170898 45.1129614,30.069987 C44.679105,31.4082845 43.9005963,32.6924642 42.7912213,33.8940429 C41.8655257,34.8970541 40.5992325,35.550944 39.3811906,36.134847 C39.1504763,36.2455241 38.9059759,36.3476562 38.6472838,36.4558919 C38.554836,36.4945475 38.4615771,36.53361 38.3683182,36.5734864 C38.470903,36.1291504 38.5645674,35.6791178 38.6452565,35.2311198 C38.7218909,34.8083496 38.4421144,34.4030761 38.0208276,34.3265787 C37.5991353,34.2500814 37.1956895,34.5304363 37.1194604,34.9532064 C37.0302564,35.4475911 36.9252387,35.9452311 36.8084624,36.4326985 C36.7346662,36.7399089 36.8538754,37.047526 37.0874281,37.2294108 C36.8713108,37.3718261 36.6697905,37.5268554 36.4812454,37.6920573 C33.6250914,36.192627 19.0665719,28.4969075 11.4193451,23.4525553 C11.4339421,22.3522949 10.5041917,21.4750162 9.88300672,20.8898926 C9.55943896,20.5851238 9.2249235,20.2697754 9.06962719,20.0101725 C8.26516813,18.6645508 9.02543063,17.0373535 10.1919773,16.1254883 C10.7458539,15.6925456 11.0296852,15.1859537 11.0349564,14.6191406 C11.0450932,13.5583496 10.0622259,12.7591959 9.27236385,12.1166992 C9.00961714,11.9034831 8.73835552,11.6825358 8.62644488,11.5450032 C8.0677026,10.855306 7.59370431,9.86653646 7.25635051,8.68530271 C6.54271747,6.18652344 6.34849573,3.50260417 6.69476999,0.923665417 C6.7519417,0.49764 6.45432434,0.105794271 6.02979375,0.04842125 C5.60566861,-0.00895182292 5.21479233,0.289713542 5.15762061,0.715738958 C4.78296327,3.50626625 4.99299839,6.41031896 5.76542514,9.11417646 C6.16562734,10.5155436 6.72355862,11.6638183 7.42340552,12.5268554 C7.63668443,12.7901204 7.94200592,13.0383301 8.29557865,13.3260092 C8.68240015,13.6401367 9.48685921,14.2944335 9.48402098,14.6036783 C9.48361543,14.6549479 9.40738644,14.7660319 9.23870954,14.8974609 C7.53409971,16.2300619 6.47135417,18.6889648 7.73967471,20.8105469 C8.0056652,21.2556967 8.42046444,21.6467285 8.82147752,22.0243327 C9.13734126,22.3217773 9.53267777,22.6452636 9.74068556,23.0358886 C9.79988461,23.1469727 9.85908377,23.260905 9.86192201,23.3907064 C9.8761136,24.1780599 8.68807683,24.7273762 8.15812317,25.1310221 C7.24418626,25.8272298 6.37728436,26.5856933 5.56187749,27.3954265 C4.01378041,28.9322917 2.62665621,30.6608073 1.55701754,32.5683594 C1.01003406,33.5437011 0.606993532,34.6305339 0.365331434,35.723877 C-0.382766813,39.1121419 0.256664585,42.1911621 1.7605652,45.2388509 C2.94535819,47.6395671 4.57941571,49.7823079 4.98083425,52.5138346 C5.03800596,52.9003906 5.36887219,53.1783041 5.74717887,53.1783041 C5.78488786,53.1783041 5.8230023,53.1754557 5.86111685,53.1697592 C6.28483644,53.1070964 6.57758823,52.7115885 6.51514529,52.286377 C6.17211491,49.9511719 5.2346606,48.2210286 4.12325815,46.2984212 C6.03871411,44.395752 9.10855263,42.0113119 13.4008931,40.6437175 C13.8092048,40.5135092 14.0350535,40.0760905 13.905302,39.6663411 C13.775956,39.2565918 13.3400722,39.0303548 12.9317605,39.1601562 C12.3600432,39.342041 11.7952188,39.5454916 11.2385039,39.769694 C9.62390925,40.4199219 8.0802723,41.2451172 6.63881462,42.2224935 C5.45442708,43.0253093 4.40992781,43.9595541 3.33339613,44.8925781 C2.65706663,43.8789876 2.24348385,42.4446615 1.97181677,41.2679036 C1.39117898,38.7552897 1.5566121,35.978597 2.73167372,33.6710612 C3.09700526,32.9536947 3.55681195,32.2359212 4.02229532,31.5820312 C4.51940556,30.8837891 5.05827968,30.2156575 5.62959156,29.5772298 C6.37120223,28.7483724 7.16755183,27.9683431 8.01255823,27.24528 C8.8153954,26.558431 9.75771539,25.9981282 10.5151395,25.2644856 C10.5179779,25.2616374 10.5212217,25.2591959 10.52406,25.2563477 C10.630294,25.1529948 10.7328788,25.0431315 10.8289759,24.9243165 C18.3253667,29.8282877 31.9095337,37.0430501 35.416067,38.8887532 C35.3280793,39.0120443 35.2441463,39.1369629 35.1630516,39.2626953 C35.158997,39.2692057 35.1545367,39.2753093 35.1504819,39.2818197 C35.0641162,39.4156901 34.9809942,39.5507812 34.8998995,39.6883137 C34.85327,39.7668457 34.2568189,40.8496094 34.276687,40.8577474 C27.9010246,38.2698568 21.898803,37.4165853 16.4196421,38.322347 C15.9971388,38.392334 15.7108747,38.7927246 15.7806161,39.2167155 C15.849952,39.6407064 16.2489377,39.9275717 16.671441,39.8579916 C22.1234352,38.9571126 28.1564727,39.9084473 34.6063368,42.6822917 C35.8783066,44.9243165 35.0114047,49.9226887 34.5913343,52.3409017 L34.5771427,52.4210612 C34.5037521,52.8442383 34.786367,53.2474772 35.2080592,53.3211262 C35.2530668,53.3292644 35.2980743,53.3329265 35.3422709,53.3329265 C35.7120626,53.3329265 36.039685,53.0664062 36.1049662,52.6879883 L36.1191578,52.6082356 C36.2785088,51.6910807 36.4333996,50.7735189 36.5554471,49.8506673 C36.7606165,48.3024089 36.8948282,46.7281087 36.7861614,45.1664225 C36.7358827,44.4437662 36.632487,43.7194824 36.4220463,43.0249023 C36.3267601,42.7107748 36.2120111,42.3970541 36.0599586,42.1057129 C35.8904708,41.7801921 35.6236693,41.5873209 35.8332991,41.1962891 C36.1268617,40.6481933 36.4074493,40.1542155 36.7877833,39.6529134 C37.1385177,39.1906739 37.5492622,38.7613932 38.0475889,38.4590657 C38.4011616,38.244222 38.8102842,38.0729167 39.2433297,37.8918457 C39.5085093,37.7811686 39.7830147,37.6664225 40.0498161,37.5386556 C41.3436815,36.9181315 42.8171716,36.155599 43.9289793,34.9511719 C45.2451457,33.5249838 46.1570553,31.982015 46.6476779,30.3568522 C46.6801158,30.2868652 46.7028223,30.2119954 46.7133647,30.1342773 C46.7453971,30.0195313 46.7749966,29.9043782 46.8025688,29.7888183 C47.7371848,25.8744303 47.1674948,21.328125 45.2783946,17.6281739 L45.2783946,17.6281739 Z" id="Path"></path>
                                <path d="M34.8638124,12.9675293 C34.4396872,13.0293782 34.1461246,13.4240723 34.2077565,13.8496907 C34.28358,14.3737793 34.3719732,14.90153 34.4705032,15.4187011 C34.5414611,15.7914225 34.8666507,16.0510254 35.2315766,16.0510254 C35.279828,16.0510254 35.3284848,16.0465495 35.3779526,16.0367839 C35.7984284,15.9562175 36.0741502,15.5485026 35.9938665,15.1265462 C35.8997966,14.6317546 35.8150527,14.1267904 35.7424731,13.6258952 C35.6808412,13.2002767 35.2859101,12.9048666 34.8638124,12.9675293 L34.8638124,12.9675293 Z" id="Path"></path>
                                <path d="M35.660162,17.2505697 C35.2473901,17.3657227 35.0061335,17.7950032 35.1212879,18.2088217 C35.1464273,18.2999675 35.1719721,18.3907064 35.1979224,18.4814453 C35.3033455,18.8480631 35.423771,19.2439779 35.57704,19.7265625 C35.6824629,20.057373 35.9873789,20.2685547 36.3158123,20.2685547 C36.3940686,20.2685547 36.4735414,20.2563477 36.5517977,20.2315267 C36.9597039,20.1005046 37.1847417,19.6630859 37.0545847,19.2533366 C36.905776,18.7849935 36.7894052,18.4033203 36.6888478,18.0521647 C36.6641139,17.9654948 36.63938,17.8784179 36.6150517,17.7909343 C36.5003027,17.3771158 36.0729338,17.1350098 35.660162,17.2505697 L35.660162,17.2505697 Z" id="Path"></path>
                                <path d="M37.7491605,24.4181315 C38.1655816,24.3180339 38.4222462,23.898112 38.3224997,23.4802246 C38.2442434,23.1518554 38.1586885,22.8198242 38.0682681,22.4930827 C38.0167729,22.307129 37.9632504,22.1215821 37.9081061,21.9364421 C37.7856531,21.5242513 37.353824,21.2898763 36.943485,21.4127604 C36.533146,21.5356446 36.2995934,21.9689942 36.4220463,22.380778 C36.4739469,22.5569661 36.5250365,22.7331543 36.5740988,22.9101562 C36.6596537,23.2185873 36.7403429,23.5323079 36.814139,23.8423666 C36.8996939,24.1992188 37.2171795,24.4396973 37.5679139,24.4396973 C37.6275185,24.4396973 37.6883395,24.43278 37.7491605,24.4181315 L37.7491605,24.4181315 Z" id="Path"></path>
                                <path d="M37.4689784,28.0220541 C37.5006054,28.4301758 37.840392,28.7398275 38.2414051,28.7398275 C38.2616788,28.7398275 38.2819524,28.7394206 38.3022261,28.7377929 C38.7291895,28.7044271 39.0487025,28.3300781 39.0154537,27.9016114 C38.9745008,27.3722331 38.9181401,26.8371582 38.8475877,26.3106282 C38.790416,25.8850098 38.4007561,25.5855306 37.97582,25.6429036 C37.551695,25.7002767 37.2536721,26.0917155 37.3104383,26.5177408 C37.376936,27.0153808 37.4304584,27.5215657 37.4689784,28.0220541 L37.4689784,28.0220541 Z" id="Path"></path>
                                <path d="M38.1801786,33.0908203 C38.2008578,33.0924479 38.2211315,33.0932617 38.2414051,33.0932617 C38.6424183,33.0932617 38.9817994,32.78361 39.0138317,32.3758952 C39.0551901,31.8469239 39.0823568,31.3094075 39.0941155,30.7784017 C39.1038469,30.3487142 38.7644657,29.9926758 38.3366913,29.9829102 C37.9101334,29.9768067 37.5533169,30.3133138 37.5435855,30.7430013 C37.5322323,31.2455241 37.5066874,31.7537435 37.467762,32.2542318 C37.4341077,32.6826985 37.7532152,33.0570475 38.1801786,33.0908203 L38.1801786,33.0908203 Z" id="Path"></path>
                                <path d="M34.6841877,11.7301432 C34.7008121,11.7301432 34.717842,11.7297364 34.7344664,11.7285156 C35.1618353,11.7008464 35.486214,11.3309733 35.4590472,10.9020996 C35.4266094,10.3963217 35.4055247,9.88525396 35.3966043,9.38273115 C35.3884948,8.95751958 35.0430315,8.61857094 34.6213393,8.61857094 C34.6164736,8.61857094 34.6116079,8.61857094 34.6067423,8.61897792 C34.1785624,8.62670896 33.8375594,8.98152667 33.8456689,9.41121417 C33.8554002,9.93733729 33.8772958,10.4724121 33.9113555,11.0013834 C33.9373058,11.4135742 34.2787144,11.7301432 34.6841877,11.7301432 L34.6841877,11.7301432 Z" id="Path"></path>
                                <path d="M12.3223342,9.25089521 C12.3486899,9.66308594 12.689693,9.98006188 13.0955717,9.98006188 C13.1121961,9.98006188 13.1288206,9.97924802 13.145445,9.97843427 C13.5732194,9.95117188 13.8971925,9.58129885 13.8704313,9.1524251 C13.8392099,8.65966792 13.7994734,8.16365563 13.7520331,7.67781573 C13.7106749,7.25016271 13.3331792,6.93847656 12.9049993,6.97916667 C12.4788469,7.02067063 12.1670379,7.40112302 12.2088017,7.82918292 C12.2542147,8.29711917 12.2923291,8.77563479 12.3223342,9.25089521 Z" id="Path"></path>
                                <path d="M13.1847759,11.2280273 C12.7565961,11.2280273 12.4095109,11.5808105 12.4095109,12.010905 C12.4095109,12.4820964 12.4018069,12.9593913 12.3863989,13.4289551 C12.3726128,13.8582356 12.7083448,14.2179363 13.1361191,14.2317708 C13.1450395,14.2321777 13.1535545,14.2321777 13.1620694,14.2321777 C13.5784905,14.2321777 13.9227373,13.9001465 13.9365235,13.4794108 C13.9523368,12.9931641 13.9600409,12.4991863 13.9600409,12.0015463 C13.9600409,11.5718588 13.6129557,11.2280273 13.1847759,11.2280273 Z" id="Path"></path>
                                <path d="M12.7103721,18.4631348 C12.7456482,18.4676106 12.780519,18.4700521 12.8149842,18.4700521 C13.1973456,18.4700521 13.5298337,18.1864421 13.5825452,17.7954102 C13.6470155,17.3136394 13.7045927,16.8188477 13.7524385,16.3248698 C13.7942023,15.8972168 13.4827988,15.5167644 13.0566463,15.4748535 C12.6304939,15.4337565 12.2509709,15.7454427 12.2092071,16.1730957 C12.1629831,16.6483561 12.1078387,17.1244303 12.0458014,17.5878906 C11.9882242,18.013916 12.2858416,18.4057617 12.7103721,18.4631348 Z" id="Path"></path>
                                <path d="M11.8025174,22.6159668 C11.869015,22.6338704 11.9355126,22.6420084 12.0011993,22.6420084 C12.3446352,22.6420084 12.6584716,22.4112956 12.750514,22.0625814 C12.8737779,21.5934245 12.9897432,21.106364 13.0951663,20.6144206 C13.1851814,20.1940918 12.9187854,19.7802734 12.4999315,19.6903483 C12.081483,19.6004231 11.6687111,19.8673502 11.5786961,20.2876791 C11.4785442,20.7556152 11.3682554,21.2190755 11.2510736,21.6646322 C11.1415959,22.080485 11.3885291,22.5061035 11.8025174,22.6159668 Z" id="Path"></path>
                            </g>
                        </g>
                    </g>
                </g>
            </g>
        </g>
    </g>
</svg>