<?xml version="1.0" encoding="UTF-8"?>
<svg width="80px" height="80px" viewBox="0 0 80 80" version="1.1" xmlns="http://www.w3.org/2000/svg" xmlns:xlink="http://www.w3.org/1999/xlink">
    <!-- Generator: Sketch 54.1 (76490) - https://sketchapp.com -->
    <title>a1-2</title>
    <desc>Created with Sketch.</desc>
    <defs>
        <linearGradient x1="76.260693%" y1="11.2327284%" x2="22.3691856%" y2="89.6824494%" id="linearGradient-1">
            <stop stop-color="#FAE857" offset="0%"></stop>
            <stop stop-color="#F2CD2C" offset="100%"></stop>
        </linearGradient>
        <rect id="path-2" x="0" y="0" width="80" height="80" rx="6"></rect>
    </defs>
    <g id="Design" stroke="none" stroke-width="1" fill="none" fill-rule="evenodd">
        <g id="cpa-97_design" transform="translate(-323.000000, -991.000000)">
            <g id="✅-art1" transform="translate(0.000000, 724.000000)">
                <g id="content" transform="translate(160.000000, 267.000000)">
                    <g id="2" transform="translate(143.000000, 0.000000)">
                        <g id="a1-2" transform="translate(20.000000, 0.000000)">
                            <mask id="mask-3" fill="white">
                                <use xlink:href="#path-2"></use>
                            </mask>
                            <use id="Rectangle" fill="url(#linearGradient-1)" xlink:href="#path-2"></use>
                            <g id="aesthetic" mask="url(#mask-3)" fill="#000000" fill-rule="nonzero">
                                <g transform="translate(17.000000, 12.000000)" id="Path">
                                    <path d="M24.2314674,33.7887955 C24.2252368,29.1226578 26.5542191,24.6466064 28.7361603,22.013092 C29.0194429,21.6706848 28.9749982,21.1612702 28.6360559,20.8750916 C28.2971136,20.5884933 27.7928539,20.6338119 27.5095712,20.9757996 C25.9693774,22.8347015 24.3623091,25.5483627 23.4314639,28.6249923 C22.5006186,25.5483627 20.8935502,22.8347015 19.3537719,20.9762192 C19.0700739,20.6338119 18.5658141,20.5884933 18.2272871,20.8750916 C17.8883448,21.1616898 17.8434849,21.6711044 18.1271829,22.013092 C20.3087086,24.6466064 22.6381062,29.1230774 22.6318758,33.7887955 C22.6285528,36.0249329 22.0067431,38.0634308 20.879843,39.5287322 C20.6090215,39.8812103 20.6721578,40.3889465 21.021069,40.6625366 C21.1668641,40.777092 21.3396582,40.8324814 21.5112062,40.8324814 C21.7496288,40.8324814 21.9855592,40.7250595 22.1434001,40.5198669 C22.3473469,40.2542496 22.5371712,39.9735261 22.7128729,39.6793747 L22.7128729,54.1922379 C22.7128729,54.6382904 23.0709223,55 23.5124612,55 C23.9544154,55 24.3124646,54.6382904 24.3124646,54.1922379 L24.3124646,39.9399567 C24.4412294,40.1401139 24.5766403,40.3339767 24.7199431,40.5198669 C24.8773685,40.7250595 25.1132989,40.8320618 25.3517215,40.8320618 C25.5232696,40.8320618 25.6964791,40.7766724 25.8418588,40.662117 C26.19077,40.3885269 26.2539063,39.8807907 25.9830846,39.5287322 C24.8565999,38.0634308 24.234375,36.0249329 24.2314674,33.7887955 L24.2314674,33.7887955 Z"></path>
                                    <path d="M36.7744097,40.3528596 C36.3685927,40.5286789 36.1808452,41.0041047 36.3548855,41.4140702 C36.4853118,41.7199707 36.7802248,41.9033432 37.0905066,41.9033432 C37.1955953,41.9033432 37.3027609,41.8823624 37.4057728,41.8374634 C37.900479,41.6230392 38.400585,41.3691711 38.8919683,41.0834122 C38.9081678,41.0741806 38.9243673,41.0641098 38.939736,41.0531998 L38.9663197,41.0351562 C39.3314302,40.7842254 39.4261348,40.2819442 39.1777432,39.9126816 C38.9301824,39.5446777 38.4338147,39.4485855 38.0691194,39.6974182 C37.6396263,39.9458313 37.2039027,40.16613 36.7744097,40.3528596 L36.7744097,40.3528596 Z"></path>
                                    <path d="M34.2165583,41.0955811 C33.7272519,41.1669158 33.2292227,41.1962891 32.7561157,41.1837005 C32.3100077,41.1732101 31.9473893,41.524849 31.9361744,41.9709015 C31.9249594,42.4173737 32.2738706,42.7878952 32.7154093,42.7992249 C32.800145,42.8013229 32.8857113,42.8025818 32.9721083,42.8025818 C33.4585072,42.8025818 33.9536288,42.7664948 34.4445966,42.6947403 C34.8819817,42.6313782 35.1852022,42.2218323 35.1220659,41.7799759 C35.0593449,41.3381195 34.6518665,41.0317993 34.2165583,41.0955811 L34.2165583,41.0955811 Z"></path>
                                    <path d="M29.9183046,42.2633744 C30.2447858,42.2633744 30.5513292,42.0602799 30.6697097,41.7329788 C30.8213199,41.3137817 30.6082349,40.8496857 30.1932798,40.6965255 C29.926612,40.597496 29.6682515,40.4850387 29.4252598,40.3616715 C29.0306579,40.1615143 28.5500743,40.3218079 28.3515271,40.7204437 C28.15298,41.1190796 28.3120669,41.6049958 28.7066689,41.8055725 C29.0040742,41.9566345 29.3193403,42.0942688 29.6437447,42.2138595 C29.7342954,42.2474289 29.8273384,42.2633744 29.9183046,42.2633744 L29.9183046,42.2633744 Z"></path>
                                    <path d="M42.6838854,35.3682328 C42.7574059,35.3896331 42.8313419,35.3997039 42.9044471,35.3997039 C43.2525275,35.3997039 43.5723628,35.1684952 43.6728825,34.8139191 C43.8340462,34.2444992 43.943704,33.6620712 43.9981175,33.0825806 C44.0404854,32.6382065 43.7177425,32.2437668 43.2778652,32.2013855 C42.8375725,32.1594238 42.4479549,32.4850464 42.4060025,32.9290008 C42.3603118,33.4103012 42.2693457,33.8949585 42.1347657,34.3691253 C42.0134775,34.7983932 42.2593768,35.2457047 42.6838854,35.3682328 L42.6838854,35.3682328 Z"></path>
                                    <path d="M41.0257264,36.7663956 C40.7582278,37.1696472 40.4508537,37.5632477 40.1119114,37.9350281 C39.8128446,38.263588 39.8336132,38.7746811 40.1584329,39.0768051 C40.31212,39.2198944 40.5065134,39.29039 40.700076,39.29039 C40.9156533,39.29039 41.1308152,39.2026901 41.2886559,39.029808 C41.6832579,38.5967636 42.042138,38.137703 42.354912,37.6652145 C42.6008113,37.294693 42.5023685,36.7928314 42.135181,36.5444183 C41.7684088,36.2964249 41.2716258,36.3954544 41.0257264,36.7663956 L41.0257264,36.7663956 Z"></path>
                                    <path d="M5.73668166,39.029808 C5.89452244,39.2026901 6.10926895,39.29039 6.3252616,39.29039 C6.51882429,39.29039 6.71321757,39.2198944 6.86690469,39.0768051 C7.19172435,38.7746811 7.21290827,38.263588 6.91342619,37.9350281 C6.57448388,37.562828 6.26710973,37.1696472 5.99961114,36.7663956 C5.75371182,36.3954544 5.25692873,36.2960052 4.89015658,36.5444183 C4.52296908,36.7928314 4.42494164,37.294693 4.67042562,37.6652145 C4.98319956,38.137703 5.34207965,38.5967636 5.73668166,39.029808 L5.73668166,39.029808 Z"></path>
                                    <path d="M8.95621813,39.6974182 C8.59110756,39.4481658 8.09515516,39.5446777 7.84717902,39.9126816 C7.59920287,40.2819442 7.69390734,40.7842254 8.0590179,41.0351563 L8.08560162,41.0531998 C8.1009704,41.0641098 8.11716988,41.0741806 8.13336925,41.0834122 C8.62475255,41.3691711 9.1248586,41.6230392 9.61956486,41.8374634 C9.72257674,41.8823624 9.82974227,41.9033432 9.93483108,41.9033432 C10.2451127,41.9033432 10.5400258,41.7199707 10.6704521,41.4140702 C10.8444924,41.0041047 10.6567449,40.5290985 10.250928,40.3528596 C9.82143486,40.16613 9.38571126,39.9458313 8.95621813,39.6974182 L8.95621813,39.6974182 Z"></path>
                                    <path d="M4.89057203,34.3691253 C4.75599189,33.8949585 4.66502583,33.4103012 4.61933503,32.9290008 C4.57738264,32.4846268 4.18776508,32.1590042 3.74747248,32.2013855 C3.30759512,32.2437668 2.98526763,32.6382065 3.02722002,33.082161 C3.08163358,33.6616516 3.19129139,34.2444992 3.35245513,34.8134994 C3.45297473,35.1684952 3.77281005,35.3997039 4.12089046,35.3997039 C4.19399566,35.3997039 4.26793166,35.3896331 4.34145221,35.3682328 C4.76596078,35.2457047 5.0118601,34.7983932 4.89057203,34.3691253 L4.89057203,34.3691253 Z"></path>
                                    <path d="M14.0532293,42.8025818 C14.1400417,42.8025818 14.2251927,42.8013229 14.3099283,42.7992249 C14.751467,42.7878952 15.1003782,42.4173737 15.0891633,41.9709015 C15.0783636,41.5319824 14.7223911,41.1837005 14.2899905,41.1837005 C14.2833446,41.1837005 14.2762832,41.1837005 14.2692219,41.1837005 C13.796115,41.1958695 13.2985011,41.1664963 12.8091948,41.0955811 C12.3730557,41.0322189 11.966408,41.3381195 11.9032717,41.7799759 C11.8405507,42.2218323 12.1437712,42.6313782 12.5811563,42.6947403 C13.0717089,42.7664948 13.5672459,42.8025818 14.0532293,42.8025818 Z"></path>
                                    <path d="M17.6000778,40.3616715 C17.3570861,40.4850387 17.0987256,40.5979157 16.8320578,40.6965255 C16.4171027,40.8496857 16.2040176,41.3137817 16.3556278,41.7329788 C16.4744238,42.0602799 16.7805519,42.2633744 17.107033,42.2633744 C17.1979992,42.2633744 17.2910421,42.2474289 17.381593,42.2142791 C17.7059973,42.0942688 18.0212634,41.9566345 18.3190841,41.8055725 C18.713686,41.6049958 18.8723576,41.1190796 18.6738104,40.7204437 C18.4752634,40.3218079 17.9946797,40.1610946 17.6000778,40.3616715 Z"></path>
                                    <path d="M37.5241534,13.3710861 C37.6566565,13.3710861 37.7904058,13.3379363 37.9141863,13.2678604 C38.2996501,13.0500793 38.4371376,12.557869 38.2215603,12.1684647 C36.2572734,8.62060547 36.0329733,5.83686834 36.1908141,4.12651057 C36.3602853,2.28691096 36.9958021,1.25759122 36.9995404,1.25171664 C37.241286,0.878257725 37.1374434,0.377655029 36.7677638,0.133438164 C36.398084,-0.110778809 35.9021316,-0.00587463379 35.660386,0.367584229 C35.5328673,0.564804023 32.5808294,5.29010775 36.8255002,12.9573441 C36.9721259,13.2217025 37.2441936,13.3710861 37.5241534,13.3710861 Z"></path>
                                    <path d="M46.138937,26.4740372 C44.6996784,20.9384537 41.6550127,16.8677521 40.4130551,15.3747559 C40.3465958,15.2941895 40.2801365,15.213623 40.2145079,15.1326371 C39.9345483,14.7872925 39.4307038,14.7369385 39.0888539,15.0193405 C38.7474194,15.3021622 38.6971596,15.8111572 38.9771192,16.1565018 C39.0469015,16.2429428 39.1170992,16.3285446 39.1881274,16.4141464 C40.3607183,17.8236389 43.2346667,21.666069 44.5916819,26.8844223 C46.2876396,33.4077835 45.0386207,39.6860885 40.8791007,45.5451965 C39.8709965,46.9651794 38.9335054,48.3906173 38.229037,49.4740677 L35.450624,53.7482834 C35.2080476,54.1213226 35.310644,54.622345 35.6799085,54.8674011 C35.8153192,54.957199 35.9677602,55 36.1181242,55 C36.3785616,55 36.6340144,54.8715973 36.7877016,54.6353531 L39.5661146,50.3611374 C40.2618601,49.2906951 41.187721,47.8833008 42.1787949,46.487236 C44.5904359,43.0904388 46.0990615,39.4989395 46.66355,35.8130265 C47.1316724,32.7556991 46.95514,29.6136093 46.138937,26.4740372 Z"></path>
                                    <path d="M8.79588518,49.4740677 C8.0918322,48.3906173 7.15434106,46.9651794 6.14623689,45.5451965 C1.78858521,39.4070435 0.624301851,32.8266144 2.68578544,25.9864425 C2.814135,25.5596924 2.57612763,25.1081848 2.15369589,24.9781037 C1.7308488,24.8480225 1.28391017,25.0888825 1.15556071,25.5156327 C0.174040256,28.7726974 -0.120872835,32.037735 0.279128959,35.2209473 C0.768850776,39.117508 2.30530619,42.9079056 4.8465427,46.487236 C5.83761671,47.8833008 6.76347747,49.2906951 7.4588076,50.3611374 L10.2376361,54.6353531 C10.3913231,54.8720169 10.646776,55 10.9067979,55 C11.0575774,55 11.2100184,54.957199 11.3454291,54.8674011 C11.7142781,54.622345 11.81729,54.1213226 11.5747136,53.7482834 L8.79588518,49.4740677 Z"></path>
                                    <path d="M2.94165365,22.9198837 C3.05089611,22.9714966 3.16636916,22.9958343 3.27976527,22.9958343 C3.58090884,22.9958343 3.86876055,22.8237915 4.00500207,22.5300598 C5.37697077,19.5675659 6.9948388,17.4266815 7.83721012,16.4141464 C8.49141865,15.6277848 9.04469212,14.8691178 9.52901404,14.094925 C14.7381751,5.76805109 11.5049314,0.584106445 11.3649515,0.367584229 C11.123206,-0.00587463379 10.6260075,-0.113296563 10.2563278,0.13134 C9.886648,0.375556973 9.78114395,0.874061611 10.0228895,1.24752042 C10.0299509,1.25843051 10.7302655,2.39349365 10.8565381,4.41226962 C11.0255939,7.10872647 10.0993177,10.1585006 8.17656778,13.2313538 C7.73129063,13.9434433 7.2195542,14.6446228 6.61228262,15.3743363 C5.71923605,16.4477157 4.00541752,18.7153244 2.55577451,21.8452454 C2.36885785,22.2497559 2.54123662,22.7306365 2.94165365,22.9198837 Z"></path>
                                </g>
                            </g>
                        </g>
                    </g>
                </g>
            </g>
        </g>
    </g>
</svg>