<?xml version="1.0" encoding="UTF-8"?>
<svg width="80px" height="80px" viewBox="0 0 80 80" version="1.1" xmlns="http://www.w3.org/2000/svg" xmlns:xlink="http://www.w3.org/1999/xlink">
    <!-- Generator: Sketch 54.1 (76490) - https://sketchapp.com -->
    <title>a1-3</title>
    <desc>Created with Sketch.</desc>
    <defs>
        <linearGradient x1="76.260693%" y1="11.2327284%" x2="22.3691856%" y2="89.6824494%" id="linearGradient-1">
            <stop stop-color="#FAE857" offset="0%"></stop>
            <stop stop-color="#F2CD2C" offset="100%"></stop>
        </linearGradient>
        <rect id="path-2" x="0" y="0" width="80" height="80" rx="6"></rect>
    </defs>
    <g id="Design" stroke="none" stroke-width="1" fill="none" fill-rule="evenodd">
        <g id="cpa-97_design" transform="translate(-466.000000, -991.000000)">
            <g id="✅-art1" transform="translate(0.000000, 724.000000)">
                <g id="content" transform="translate(160.000000, 267.000000)">
                    <g id="3" transform="translate(286.000000, 0.000000)">
                        <g id="a1-3" transform="translate(20.000000, 0.000000)">
                            <mask id="mask-3" fill="white">
                                <use xlink:href="#path-2"></use>
                            </mask>
                            <use id="Rectangle" fill="url(#linearGradient-1)" xlink:href="#path-2"></use>
                            <g id="belly" mask="url(#mask-3)" fill="#000000" fill-rule="nonzero">
                                <g transform="translate(20.000000, 14.000000)" id="Path">
                                    <path d="M3.41478,50.9454957 C3.41318561,50.9403381 3.4119898,50.934784 3.41039541,50.9296265 C2.94005102,49.2780457 2.61240429,47.0877075 2.43662306,44.4208984 C2.4091199,44.0011597 2.04360653,43.6841736 1.62348531,43.7111511 C1.2017698,43.7385254 0.882493673,44.1011352 0.910395408,44.5204773 C1.09295286,47.2900391 1.43813776,49.5831299 1.93638388,51.3362732 L1.96069837,51.4299011 C2.05038265,51.7726746 2.36049102,52 2.70049429,52 C2.7642698,52 2.82884245,51.9920654 2.8934152,51.9754028 C3.30197704,51.8694763 3.54751276,51.4541016 3.44108735,51.0470582 L3.41478,50.9454957 Z"></path>
                                    <path d="M18.8803412,21.8728332 C19.302854,21.8728332 19.6448501,21.5324402 19.6448501,21.111908 C19.6448501,20.8877563 19.8278061,20.705658 20.0530134,20.705658 C20.277822,20.705658 20.4607781,20.8877563 20.4607781,21.111908 C20.4607781,21.5324402 20.8031729,21.8728332 21.2256856,21.8728332 C21.6477998,21.8728332 21.9901945,21.5324402 21.9901945,21.111908 C21.9901945,20.0486756 21.1212532,19.1834106 20.0530134,19.1834106 C18.984375,19.1834106 18.1154337,20.0486756 18.1154337,21.111908 C18.1154337,21.5320434 18.4578285,21.8728332 18.8803412,21.8728332 Z"></path>
                                    <path d="M31.0905612,20.5076904 C30.676419,20.3827209 30.2933673,20.1950684 29.9533642,19.9494934 C29.611368,19.7027283 29.1330516,19.7785035 28.8851244,20.1192932 C28.637197,20.4596863 28.7137277,20.9353637 29.0557239,21.1821289 C29.5340402,21.5272828 30.0697545,21.7907105 30.6473214,21.9648742 C30.7214604,21.987091 30.7959981,21.997406 30.8693399,21.997406 C31.1977838,21.997406 31.5011161,21.785553 31.6011639,21.456665 C31.7235332,21.0539856 31.4947386,20.6294861 31.0905612,20.5076904 Z"></path>
                                    <path d="M27.0978157,15.0304566 C27.1408642,15.0375977 27.1839127,15.0407715 27.2261639,15.0407715 C27.5924745,15.0407715 27.9161352,14.7781372 27.9791135,14.4064026 C27.9898756,14.3433227 28.0018336,14.2810364 28.0145887,14.2183533 C28.0907206,13.848999 28.2095026,13.4899597 28.3681441,13.1511535 C28.5467155,12.7702942 28.3808992,12.3172302 27.9982461,12.1394959 C27.6155931,11.9621582 27.1603954,12.1268006 26.981824,12.5080566 C26.7729592,12.9543762 26.615912,13.4268799 26.5158642,13.9128723 C26.4995216,13.9926148 26.4847736,14.0723572 26.4712213,14.152893 C26.4006696,14.5674744 26.6812818,14.9602356 27.0978157,15.0304566 Z"></path>
                                    <path d="M29.3849649,11.4761658 C29.5483897,11.4761658 29.7130102,11.4241943 29.8521205,11.3170777 C30.2108578,11.0413513 30.5943081,10.8195801 30.9925063,10.6581115 C31.38353,10.4994201 31.5716678,10.0554809 31.412229,9.66589355 C31.2527902,9.27670291 30.8063616,9.08944705 30.415338,9.24853516 C29.88919,9.46197505 29.3849649,9.75277712 28.9170121,10.1126098 C28.5825893,10.3696899 28.5212053,10.8477478 28.7794961,11.1806031 C28.9301658,11.3746033 29.1565689,11.4761658 29.3849649,11.4761658 Z"></path>
                                    <path d="M28.0707908,16.8276367 C27.9751276,16.4182129 27.5633769,16.1639099 27.1524235,16.2591248 C26.7410714,16.3543396 26.4851722,16.7637635 26.5808355,17.1731873 C26.6238839,17.3560791 26.6737086,17.5409546 26.7299107,17.723053 C26.8419164,18.0848694 26.9742506,18.4324035 27.1233259,18.7565308 C27.2520727,19.0358277 27.5290976,19.2004699 27.8188776,19.2004699 C27.9257015,19.2004699 28.0341199,19.1782531 28.1373565,19.1310425 C28.5212053,18.9556885 28.6898118,18.5038147 28.513632,18.1217652 C28.39206,17.8583375 28.2840402,17.573883 28.1919643,17.2763367 C28.1465243,17.1279602 28.1054688,16.9772033 28.0707908,16.8276367 Z"></path>
                                    <path d="M11.9682716,19.1310425 C12.0719069,19.1782531 12.1803253,19.2004699 12.2867506,19.2004699 C12.5765306,19.2004699 12.8539541,19.0358277 12.9823022,18.7565308 C13.1317761,18.4328003 13.2641103,18.0848694 13.3761161,17.7226563 C13.4319196,17.5409546 13.4817443,17.3564758 13.5247928,17.1731873 C13.620456,16.7637635 13.3649553,16.3547363 12.9532047,16.2591248 C12.5422512,16.1639099 12.1308992,16.4182129 12.0352359,16.8276367 C12.0001594,16.9772033 11.959104,17.1279602 11.9136639,17.2755432 C11.821588,17.573883 11.7135683,17.8583375 11.5919961,18.1217652 C11.4162149,18.5038147 11.5844229,18.9556885 11.9682716,19.1310425 Z"></path>
                                    <path d="M9.23628827,21.997406 C9.31002867,21.997406 9.38456633,21.9866943 9.45830673,21.9644775 C10.0362723,21.7903137 10.571588,21.5272828 11.050303,21.1821289 C11.3922991,20.9353637 11.4684311,20.4592895 11.2205039,20.1188965 C10.9725765,19.7785035 10.4942602,19.7027283 10.1526627,19.9494934 C9.81226082,20.1946717 9.42960776,20.3827209 9.01506694,20.5072937 C8.61088969,20.6290894 8.38249367,21.0539856 8.50486286,21.456665 C8.60491071,21.785553 8.90824296,21.997406 9.23628827,21.997406 Z"></path>
                                    <path d="M9.11352041,10.6581115 C9.5113202,10.8195801 9.89516898,11.0413513 10.2535077,11.3170777 C10.392618,11.4241943 10.5572386,11.4761658 10.7206633,11.4761658 C10.949458,11.4761658 11.1754623,11.3742066 11.3265306,11.1802063 C11.5844229,10.8477478 11.5230389,10.3696899 11.1890147,10.1126098 C10.7206633,9.75277712 10.2168367,9.46197505 9.69068878,9.24853516 C9.29926653,9.08944705 8.85323663,9.27670291 8.69379786,9.66589355 C8.53435908,10.0550842 8.72209816,10.4994201 9.11352041,10.6581115 Z"></path>
                                    <path d="M12.0914382,14.21875 C12.1041933,14.2810364 12.1161511,14.3433227 12.1269133,14.4064026 C12.1898916,14.7781372 12.5135522,15.0411682 12.8798629,15.0411682 C12.9221142,15.0411682 12.9651627,15.0375977 13.0082111,15.0304566 C13.4247449,14.9606324 13.7053571,14.5678711 13.6348055,14.1532898 C13.6212532,14.0727539 13.6065051,13.9926148 13.5901627,13.9128723 C13.4901148,13.4272766 13.3330676,12.954773 13.1242029,12.5080566 C12.9456314,12.1271973 12.4908322,11.9621582 12.1077806,12.1398926 C11.7251276,12.3172302 11.5593112,12.7702942 11.7378827,13.1515503 C11.8965243,13.4899597 12.0153061,13.848999 12.0914382,14.21875 Z"></path>
                                    <path d="M37.2205836,14.4992371 C33.9477041,11.1254578 33.88353,7.61123655 33.8831314,7.57910156 L33.8831314,0.761322047 C33.8831314,0.34078982 33.5407366,0 33.1182239,0 C32.6957111,0 32.3537149,0.34078982 32.3537149,0.761322047 L32.3537149,7.57910156 C32.3537149,7.74612424 32.3963648,11.7181701 36.1200573,15.5569153 C36.145169,15.5827027 37.9524076,17.4774781 38.3514031,20.0502625 C36.0989317,20.9813843 33.2633132,21.8363342 29.9087213,22.5944824 C29.4969706,22.6873168 29.2386798,23.0951539 29.3323501,23.5053711 C29.4260204,23.9151916 29.8345822,24.171875 30.2475287,24.0790406 C33.0066167,23.4553833 35.7374043,22.6992188 38.3781091,21.6828003 C38.3067602,21.7101746 37.8663106,23.9318543 37.8017379,24.2290039 C37.5231186,25.5159912 37.3007015,26.8382873 37.3007015,28.1585998 C37.3007015,28.183197 37.3018973,28.208191 37.3042889,28.2327881 C37.3054847,28.2431031 37.3329879,28.5267639 37.3748406,29.023468 C37.3780294,29.0615539 36.0801978,29.2976074 35.9845345,29.3174438 C35.0306919,29.5150146 34.0445632,29.7197266 33.0771684,29.9803772 C29.9449937,30.8250122 27.4410077,32.6983643 25.4049745,34.4189758 C23.8026148,35.7730102 21.796875,37.5567016 20.0530134,39.6680908 C18.3087532,37.5567016 16.303412,35.7730102 14.7010522,34.4189758 C12.6646205,32.6979676 10.1606346,30.8250122 7.02885837,29.9803772 C6.06146367,29.7197266 5.07493622,29.5150146 4.12109378,29.3174438 C3.65752551,29.2214355 3.18160082,29.1690674 2.73836102,29.0060119 C2.74872449,28.7485352 2.77622765,28.4902649 2.80133929,28.2327881 C2.80373082,28.208191 2.80492663,28.1835938 2.80492663,28.1585998 C2.80492663,26.0372925 2.12013714,24.1155395 1.76618306,22.067627 C1.75741388,22.0188293 1.74984061,21.969635 1.74266582,21.9208375 C1.7386798,21.8938598 1.73549102,21.8668824 1.7315051,21.839508 C1.72433041,21.7851563 1.71795286,21.7308045 1.71237245,21.6764527 C4.78356184,22.8840942 8.75079714,23.9437561 13.5295759,24.8316345 C16.3101882,25.3477783 18.1975447,25.5679627 20.0430485,25.5913696 C20.049426,25.5917664 20.0562021,25.5917664 20.0625797,25.5913696 C21.9080836,25.5679627 23.79544,25.3477783 26.5768495,24.8316345 L26.772162,24.7951355 C27.1871014,24.71698 27.4597417,24.3186645 27.3812182,23.9056701 C27.3022959,23.4926758 26.901706,23.222107 26.4871652,23.299469 L26.2958387,23.3351746 C23.6116868,23.8330688 21.8020567,24.0461121 20.0530134,24.0691223 C18.30397,24.0461121 16.4939413,23.8330688 13.8097896,23.3351746 C8.84885204,22.4135742 4.79910714,21.3098754 1.75821112,20.0526428 C2.16039541,17.4850158 3.96125633,15.5819092 3.98557082,15.5569153 C7.70926337,11.7185668 7.75191327,7.74612424 7.75191327,7.57910156 L7.75191327,0.761322047 C7.75191327,0.34078982 7.40991714,2.88657986e-15 6.98740429,2.88657986e-15 C6.56489163,2.88657986e-15 6.22249684,0.34078982 6.22249684,0.761322047 L6.22249684,7.57592773 C6.22249684,7.58505252 6.21093755,8.47293088 5.79360653,9.76547244 C5.41015622,10.9524842 4.59422837,12.7373657 2.88584184,14.4988403 C1.27511163,16.1591492 0.0462372449,18.6200562 0.0510204082,20.9591675 C0.0534120408,22.0854797 0.539700204,23.0836487 0.723453469,24.1742554 C0.94587051,25.4933777 1.26913265,26.7732239 1.27471306,28.1228943 C1.26155929,28.262146 1.21412633,28.7719422 1.15074939,29.57135 C1.14995214,29.5804748 1.15035082,29.5899963 1.14995214,29.5991211 C0.97456949,31.8608703 0.690369898,36.3435059 0.766501939,40.907074 C0.773278061,41.3228455 1.11447704,41.6553039 1.53101082,41.6553039 L1.54376592,41.6553039 C1.96627867,41.6485596 2.30269449,41.3022156 2.29591837,40.8816834 C2.22935265,36.8850403 2.44260204,32.9494934 2.61240429,30.5556336 C2.66063459,30.5659485 2.70926337,30.5766602 2.75749367,30.586975 C3.10746173,30.6623535 3.45822704,30.7349549 3.80899235,30.8075562 C4.74091204,31.0007629 5.70471939,31.2007141 6.62866714,31.4498596 C9.46986612,32.2159424 11.8032526,33.9674988 13.7105389,35.5794067 C15.3950096,37.0028687 17.5358737,38.9139099 19.290896,41.1593933 C19.2893016,41.1776428 19.2881059,41.1958924 19.2881059,41.2145386 L19.2881059,51.1454468 C19.2881059,51.565979 19.6305006,51.9067688 20.0526148,51.9067688 C20.4751276,51.9067688 20.8175223,51.565979 20.8175223,51.1454468 L20.8175223,41.2145386 C20.8175223,41.1958924 20.815928,41.1776428 20.8147321,41.1593933 C22.5693559,38.9139099 24.71022,37.0028687 26.3946907,35.5794067 C28.301977,33.9674988 30.6353635,32.2159424 33.4769611,31.4498596 C34.4005102,31.2007141 35.3643176,31.0007629 36.2962372,30.8075562 C36.6470026,30.7349549 36.9977679,30.6623535 37.3477359,30.586975 C37.3959662,30.5766602 37.4449937,30.5659485 37.4932239,30.5556336 C37.604831,32.1242981 37.7351722,34.3535156 37.7921715,36.8243408 C37.9356664,43.0267945 37.5566008,47.9041748 36.6952328,50.9292297 C36.6936384,50.9355774 36.692044,50.941925 36.690051,50.9482727 L36.6641422,51.0498352 C36.5597098,51.4572754 36.8064413,51.8718567 37.2154018,51.9757996 C37.2791773,51.9920654 37.3429529,51.9996033 37.4055326,51.9996033 C37.7467315,51.9996033 38.0576371,51.7710877 38.1461256,51.4267273 L38.1696429,51.3346863 C39.0445632,48.2544861 39.2366868,44.9743347 39.3247767,41.7901916 C39.4029018,38.954773 39.3407206,36.1153869 39.1964286,33.2827453 C39.1434152,32.2357789 39.0780453,31.189209 38.9999203,30.1434326 C38.9054529,28.880249 38.7205039,27.4913025 38.9190051,26.2404175 C39.068479,25.2993774 39.3399235,24.3825379 39.5822704,23.4625244 C39.6476403,23.2145691 39.71022,22.9689941 39.7668208,22.7269898 C40.8107461,18.2641906 37.3748406,14.6583252 37.2205836,14.4992371 L37.2205836,14.4992371 Z"></path>
                                </g>
                            </g>
                        </g>
                    </g>
                </g>
            </g>
        </g>
    </g>
</svg>