<svg id="Слой_1" data-name="Слой 1" xmlns="http://www.w3.org/2000/svg" xmlns:xlink="http://www.w3.org/1999/xlink" width="102" height="102" viewBox="0 0 102 102">
  <defs>
    <linearGradient id="Безымянный_градиент" data-name="Безымянный градиент" x1="-250.74" y1="444.51" x2="-251.28" y2="443.73" gradientTransform="matrix(102, 0, 0, -102, 25654, 45352)" gradientUnits="userSpaceOnUse">
      <stop offset="0" stop-color="#fae857"/>
      <stop offset="1" stop-color="#f2cd2c"/>
    </linearGradient>
  </defs>
  <title>a14-2</title>
  <g id="Design">
    <g id="cpa-97_design" data-name="cpa-97 design">
      <g id="_-art14" data-name="✅-art14">
        <g id="content">
          <g id="_2" data-name="2">
            <g id="Group-11">
              <g id="a14-2">
                <circle id="Oval" cx="51" cy="51" r="51" style="fill: url(#Безымянный_градиент)"/>
                <g id="flaticon1556774400-svg">
                  <path id="Shape" d="M67.64,19.47A1.41,1.41,0,0,0,66.58,19H35.42a1.41,1.41,0,0,0-1.05.47A1.45,1.45,0,0,0,34,20.58l4.25,43.12A1.43,1.43,0,0,0,39.67,65H62.33a1.42,1.42,0,0,0,1.41-1.29L68,20.58A1.43,1.43,0,0,0,67.64,19.47ZM63.86,33.6c-3.6,1.18-8.29,1.73-12-1.33-4.61-3.84-10.26-3.18-14.09-2L37,21.88H65Z"/>
                </g>
              </g>
            </g>
          </g>
        </g>
      </g>
    </g>
  </g>
</svg>
