<svg id="Слой_1" data-name="Слой 1" xmlns="http://www.w3.org/2000/svg" width="102" height="102" viewBox="0 0 102 102">
  <title>a16-4</title>
  <g id="Design">
    <g id="cpa-97_design" data-name="cpa-97 design">
      <g id="_-art16" data-name="✅-art16">
        <g id="content">
          <g id="_4" data-name="4">
            <g id="a16-4">
              <circle id="Oval" cx="51" cy="51" r="51" style="fill: #daf7ff"/>
              <g id="place">
                <path id="Shape" d="M70.35,25.5l-4.92-7A3.57,3.57,0,0,0,62.52,17H43.7a3.57,3.57,0,0,0-2.92,1.51l-4.92,7a3.53,3.53,0,0,0-.65,2v4.62a.78.78,0,0,0,1.56,0V27.54s0-.07,0-.1h10.4v7.41a.78.78,0,0,0,1.17.68l4.79-2.76,4.72,2.76A.78.78,0,0,0,59,34.86V27.44h10.4s0,.07,0,.1V49.16a2,2,0,0,1-2,2h-20a.78.78,0,1,0,0,1.56h20A3.56,3.56,0,0,0,71,49.16V27.54A3.53,3.53,0,0,0,70.35,25.5Zm-15-6.94,1.93,7.33H49l1.93-7.33Zm-8,7.33H37.5l4.56-6.48a2,2,0,0,1,1.64-.85h5.59ZM57.47,33.5l-3.94-2.3a.78.78,0,0,0-.79,0l-4,2.31V27.44h8.73V33.5Zm1.38-7.61-1.93-7.33h5.59a2,2,0,0,1,1.64.85l4.56,6.48Z"/>
                <path id="Shape-2" data-name="Shape" d="M39.87,34.16A8.85,8.85,0,0,0,33,48.59h0l6.28,8a.78.78,0,0,0,1.23,0l6.25-8,0,0a8.85,8.85,0,0,0-6.89-14.43Zm5.64,13.5-.06.08-5.58,7.14-5.64-7.22,0,0a7.31,7.31,0,1,1,11.31,0Z"/>
                <path id="Shape-3" data-name="Shape" d="M39.87,38.81A4.21,4.21,0,1,0,44.09,43,4.22,4.22,0,0,0,39.87,38.81Zm0,6.86A2.65,2.65,0,1,1,42.53,43,2.66,2.66,0,0,1,39.87,45.67Z"/>
                <path id="Path" d="M64.33,47a.78.78,0,1,0,.23.55A.79.79,0,0,0,64.33,47Z"/>
                <path id="Path-2" data-name="Path" d="M60.81,46.79H54.48a.78.78,0,1,0,0,1.56h6.34a.78.78,0,1,0,0-1.56Z"/>
                <path id="Path-3" data-name="Path" d="M66,43H54.48a.78.78,0,1,0,0,1.56H66A.78.78,0,1,0,66,43Z"/>
              </g>
            </g>
          </g>
        </g>
      </g>
    </g>
  </g>
</svg>
