<svg id="Слой_1" data-name="Слой 1" xmlns="http://www.w3.org/2000/svg" width="102" height="102" viewBox="0 0 102 102">
  <title>a16-1</title>
  <g id="Design">
    <g id="cpa-97_design" data-name="cpa-97 design">
      <g id="_-art16" data-name="✅-art16">
        <g id="content">
          <g id="_1" data-name="1">
            <g id="a16-1">
              <circle id="Oval" cx="51" cy="51" r="51" style="fill: #daf7ff"/>
              <g id="ecommerce">
                <path id="Path" d="M45.25,55.78a.8.8,0,0,0-1.12,0,.77.77,0,0,0,0,1.1.8.8,0,0,0,1.12,0,.77.77,0,0,0,0-1.1Z"/>
                <path id="Path-2" data-name="Path" d="M55.91,22.18h-5a.78.78,0,1,0,0,1.56h5a.78.78,0,1,0,0-1.56Z"/>
                <path id="Shape" d="M64.21,37.66a.79.79,0,0,0,.79-.78V22.82A2.85,2.85,0,0,0,62.13,20H44.7a2.85,2.85,0,0,0-2.87,2.82v5.39A20.21,20.21,0,0,0,36.37,35a19.9,19.9,0,0,0-2.07,8.8V52h-.71A1.58,1.58,0,0,0,32,53.52v5.7a.79.79,0,0,0,1.59,0v-5.7H47.66v5.7a.79.79,0,0,0,1.59,0V55.78H62.13A2.85,2.85,0,0,0,65,53V43.37a.79.79,0,0,0-1.59,0v5.77H51.52L54,45.64a2.68,2.68,0,0,0,.2-2.83,2.76,2.76,0,0,0-2.46-1.48,2.82,2.82,0,0,0-1.65.54l-5,3.68a1.08,1.08,0,0,1-.64.21,1.06,1.06,0,0,1-1.06-1V25.94h20V36.88A.79.79,0,0,0,64.21,37.66Zm-.79,13V53h0a1.27,1.27,0,0,1-1.28,1.26H49.25v-.7a1.55,1.55,0,0,0-.64-1.25,7.74,7.74,0,0,0,1.77-1.56h13ZM44.49,47.32a2.7,2.7,0,0,0,1.58-.52l5-3.68a1.2,1.2,0,0,1,.71-.23,1.16,1.16,0,0,1,1,.63,1.13,1.13,0,0,1-.09,1.21L49.4,49.38A6.24,6.24,0,0,1,44.35,52H35.89V43.78a18.21,18.21,0,0,1,6-13.5V44.71A2.63,2.63,0,0,0,44.49,47.32ZM43.42,24.38V22.82a1.27,1.27,0,0,1,1.28-1.26H62.13a1.27,1.27,0,0,1,1.28,1.26v1.55Z"/>
                <path id="Path-3" data-name="Path" d="M54,51.84a.8.8,0,0,0-1.12,0,.77.77,0,0,0,0,1.1.8.8,0,0,0,1.12,0,.77.77,0,0,0,0-1.1Z"/>
                <path id="Shape-2" data-name="Shape" d="M59.4,32.41A1.75,1.75,0,0,0,58,31.77H55.87l-.67-1.15a.8.8,0,0,0-1.08-.29.77.77,0,0,0-.29,1.07l.21.36H52.8l.21-.36a.77.77,0,0,0-.29-1.07.8.8,0,0,0-1.08.29L51,31.77H48.8a1.75,1.75,0,0,0-1.36.63,1.7,1.7,0,0,0-.36,1.44l1,5a1.75,1.75,0,0,0,1.71,1.38H57a1.75,1.75,0,0,0,1.71-1.38l1-5A1.7,1.7,0,0,0,59.4,32.41Zm-1.2,1.12-1,5a.16.16,0,0,1-.16.13H49.84a.16.16,0,0,1-.16-.13l-1-5a.15.15,0,0,1,0-.13.16.16,0,0,1,.13-.06H50l-.45.77a.77.77,0,0,0,.29,1.07A.8.8,0,0,0,51,34.88l.91-1.55H55l.91,1.55a.8.8,0,0,0,1.08.29.77.77,0,0,0,.29-1.07l-.45-.77H58a.16.16,0,0,1,.13.06A.15.15,0,0,1,58.2,33.53Z"/>
                <path id="Path-4" data-name="Path" d="M64.77,39.45a.8.8,0,0,0-1.12,0,.77.77,0,0,0,0,1.1.8.8,0,0,0,1.12,0,.77.77,0,0,0,0-1.1Z"/>
              </g>
            </g>
          </g>
        </g>
      </g>
    </g>
  </g>
</svg>
