<svg id="Слой_1" data-name="Слой 1" xmlns="http://www.w3.org/2000/svg" width="107.82" height="102" viewBox="0 0 107.82 102">
  <title>a2-2</title>
  <g id="Design">
    <g id="cpa-97_design" data-name="cpa-97 design">
      <g id="_-art2" data-name="✅-art2">
        <g id="content">
          <g id="_2" data-name="2">
            <g id="a2-2">
              <circle id="Oval" cx="56.6" cy="51" r="51" style="fill: #daf7ff"/>
              <path id="_28_" data-name="28%" d="M.7,62V55.82L15,41.06q4.8-5,4.8-8.4a5.3,5.3,0,0,0-1.53-4,5.38,5.38,0,0,0-3.93-1.5q-4.74,0-7,4.92L.4,28a14.67,14.67,0,0,1,5.7-6.6,15.32,15.32,0,0,1,8.16-2.28A14.35,14.35,0,0,1,24,22.73a12.15,12.15,0,0,1,4.08,9.63q0,6.54-6.9,13.44L13,54H28.78v8ZM57.22,40.16A11.14,11.14,0,0,1,63,50.3a11.29,11.29,0,0,1-4,9.18q-4.05,3.36-11,3.36t-11-3.36a11.33,11.33,0,0,1-4-9.18,11.16,11.16,0,0,1,5.76-10.14,10.18,10.18,0,0,1-4.38-8.7,11.09,11.09,0,0,1,3.93-9.06A14.82,14.82,0,0,1,48,19.16,14.7,14.7,0,0,1,57.7,22.4a11.13,11.13,0,0,1,3.9,9.06A10.08,10.08,0,0,1,57.22,40.16ZM51.88,28.28A5.69,5.69,0,0,0,48,27a5.69,5.69,0,0,0-3.9,1.32,4.55,4.55,0,0,0-1.5,3.6,4.64,4.64,0,0,0,1.5,3.63A5.61,5.61,0,0,0,48,36.86a5.61,5.61,0,0,0,3.9-1.35,4.64,4.64,0,0,0,1.5-3.63A4.55,4.55,0,0,0,51.88,28.28ZM43,53.54A7.85,7.85,0,0,0,48,55a7.62,7.62,0,0,0,5-1.53,5.21,5.21,0,0,0,1.89-4.29A5.14,5.14,0,0,0,52.93,45a7.62,7.62,0,0,0-5-1.53A7.62,7.62,0,0,0,43,45a5.14,5.14,0,0,0-1.89,4.23A5.33,5.33,0,0,0,43,53.54Zm42.06-17.4a10.56,10.56,0,0,1-14.43-.06,9.5,9.5,0,0,1-2.91-7,9.5,9.5,0,0,1,2.91-7,10.52,10.52,0,0,1,14.43,0,9.52,9.52,0,0,1,2.88,7A9.62,9.62,0,0,1,85.06,36.14ZM72,55.64,99.34,25.22l3.66,2L75.58,57.74ZM75.1,31.82a3.66,3.66,0,0,0,2.7,1.08,3.61,3.61,0,0,0,2.7-1.11,3.76,3.76,0,0,0,1.08-2.73,3.69,3.69,0,0,0-3.78-3.78,3.56,3.56,0,0,0-2.67,1.08,3.72,3.72,0,0,0-1,2.7A4,4,0,0,0,75.1,31.82Zm30.24,28a10.44,10.44,0,0,1-14.4,0,10,10,0,0,1,0-14,10.44,10.44,0,0,1,14.4,0,10,10,0,0,1,0,14Zm-9.9-4.26a3.66,3.66,0,0,0,2.7,1.08,3.47,3.47,0,0,0,2.67-1.14,4,4,0,0,0,0-5.43,3.77,3.77,0,0,0-5.34,0,3.82,3.82,0,0,0-1.05,2.73A4,4,0,0,0,95.44,55.58Z" transform="translate(-0.4)"/>
            </g>
          </g>
        </g>
      </g>
    </g>
  </g>
</svg>
