<?xml version="1.0" encoding="UTF-8"?>
<svg width="23px" height="24px" viewBox="0 0 23 24" version="1.1" xmlns="http://www.w3.org/2000/svg" xmlns:xlink="http://www.w3.org/1999/xlink">
    <!-- Generator: Sketch 54.1 (76490) - https://sketchapp.com -->
    <title>a7-check</title>
    <desc>Created with Sketch.</desc>
    <g id="Design" stroke="none" stroke-width="1" fill="none" fill-rule="evenodd">
        <g id="cpa-97_design" transform="translate(-326.000000, -3811.000000)" fill="#000000">
            <g id="✅-art7" transform="translate(0.000000, 3496.000000)">
                <g id="Content" transform="translate(160.000000, 267.000000)">
                    <g id="1">
                        <g id="Stacked-Group" transform="translate(166.000000, 36.000000)">
                            <g id="a7-check">
                                <g transform="translate(0.000000, 12.000000)">
                                    <path d="M11.3910238,0.223255814 C5.11038095,0.223255814 0,5.43181395 0,11.8331163 C0,18.2344186 5.11038095,23.4429767 11.3910238,23.4429767 C17.6716667,23.4429767 22.7820476,18.2344186 22.7820476,11.8331163 C22.7820476,5.43181395 17.6716667,0.223255814 11.3910238,0.223255814 Z M11.3910238,22.5488372 C5.59392857,22.5488372 0.877285714,17.7415814 0.877285714,11.8331163 C0.877285714,5.92465116 5.59392857,1.11739535 11.3910238,1.11739535 C17.188119,1.11739535 21.9047619,5.92465116 21.9047619,11.8331163 C21.9047619,17.7415814 17.188119,22.5488372 11.3910238,22.5488372 Z" id="Fill-1"></path>
                                    <path d="M16.7582381,7.07162791 L10.0241667,14.791814 L5.96795238,11.4842791 C5.78011905,11.3291163 5.50411905,11.3620465 5.35188095,11.5540465 C5.20238095,11.7460465 5.2325,12.0267907 5.42033333,12.1819535 L9.80128571,15.7529302 C9.88288095,15.8182326 9.9792619,15.8511628 10.0750952,15.8511628 C10.1972143,15.8511628 10.3171429,15.8009302 10.4047619,15.7004651 L17.4126429,7.66437209 C17.5752857,7.47906977 17.5577619,7.19776744 17.3759524,7.03423256 C17.1963333,6.86846512 16.9186905,6.88632558 16.7582381,7.07162791 Z" id="Fill-2"></path>
                                </g>
                            </g>
                        </g>
                    </g>
                </g>
            </g>
        </g>
    </g>
</svg>