<?xml version="1.0" encoding="UTF-8"?>
<svg width="32px" height="32px" viewBox="0 0 32 32" version="1.1" xmlns="http://www.w3.org/2000/svg" xmlns:xlink="http://www.w3.org/1999/xlink">
    <!-- Generator: Sketch 54.1 (76490) - https://sketchapp.com -->
    <title>check</title>
    <desc>Created with Sketch.</desc>
    <defs>
        <circle id="path-1" cx="16" cy="16" r="16"></circle>
        <filter x="-4.7%" y="-4.7%" width="109.4%" height="109.4%" filterUnits="objectBoundingBox" id="filter-2">
            <feGaussianBlur stdDeviation="1.5" in="SourceAlpha" result="shadowBlurInner1"></feGaussianBlur>
            <feOffset dx="0" dy="0" in="shadowBlurInner1" result="shadowOffsetInner1"></feOffset>
            <feComposite in="shadowOffsetInner1" in2="SourceAlpha" operator="arithmetic" k2="-1" k3="1" result="shadowInnerInner1"></feComposite>
            <feColorMatrix values="0 0 0 0 0.00837862319   0 0 0 0 0.00721778155   0 0 0 0 0.00721778155  0 0 0 0.264532343 0" type="matrix" in="shadowInnerInner1"></feColorMatrix>
        </filter>
    </defs>
    <g id="Design" stroke="none" stroke-width="1" fill="none" fill-rule="evenodd">
        <g id="cpa-97_design" transform="translate(-736.000000, -342.000000)">
            <g id="header" transform="translate(-178.000000, -16.000000)">
                <g id="ul" transform="translate(914.000000, 338.000000)">
                    <g id="li">
                        <g id="check" transform="translate(0.000000, 20.000000)">
                            <g id="Oval">
                                <use fill="#FFFFFF" fill-rule="evenodd" xlink:href="#path-1"></use>
                                <use fill="black" fill-opacity="1" filter="url(#filter-2)" xlink:href="#path-1"></use>
                            </g>
                            <circle id="Oval" fill="#6FDBEE" cx="16.5" cy="16" r="11"></circle>
                            <g id="flaticon1556729454-svg" transform="translate(10.000000, 0.000000)" fill="#003769">
                                <path d="M21.0392676,0.153192113 C20.0465168,-0.396939541 18.9392178,0.664028649 18.2901115,1.29275054 C16.8010477,2.78596503 15.5410179,4.51495023 14.1281947,6.08675496 C12.5627031,7.81574015 11.1117596,9.54472535 9.50808524,11.2344796 C8.59169989,12.1775625 7.59894909,13.1992356 6.98802553,14.3780891 C5.6134475,13.0026958 4.42978309,11.5094813 2.90247417,10.2913968 C1.7951752,9.42690421 -0.0375955052,8.79818232 0.00058721781,10.8808236 C0.0769526638,13.5922509 2.40609877,16.5000897 4.1243213,18.346896 C4.84979304,19.1327984 5.80436111,19.9579959 6.91166008,19.997291 C8.24805539,20.0758812 9.62263341,18.4254863 10.4244706,17.5216985 C11.8372937,15.9498938 12.9827754,14.1815493 14.2809256,12.5705137 C15.9609654,10.4485773 17.679188,8.36587181 19.3210451,6.20464031 C20.3519786,4.86860629 23.59751,1.56775216 21.0392676,0.153192113 Z M2,11.0590057 C1.93333333,11.0590057 1.86666667,11.0590057 1.73333333,11.0982366 C1.46666667,11.0590057 1.26666667,11.0196464 1,10.9410561 L1,10.9410561 C1.2,10.8624659 1.53333333,10.901761 2,11.0590057 Z" id="Shape"></path>
                            </g>
                        </g>
                    </g>
                </g>
            </g>
        </g>
    </g>
</svg>